<?xml version="1.0" standalone="no"?>
<!DOCTYPE svg PUBLIC "-//W3C//DTD SVG 1.1//EN" "http://www.w3.org/Graphics/SVG/1.1/DTD/svg11.dtd" >
<svg xmlns="http://www.w3.org/2000/svg" xmlns:xlink="http://www.w3.org/1999/xlink" version="1.1">
<metadata>
Created by FontForge 20190801 at Fri May  5 13:18:43 2017
 By Jimmy Wärting
Copyright (c) 2015 Indian Type Foundry (info@indiantypefoundry.com)
</metadata>
<defs>
<font id="HindVadodara-Bold" horiz-adv-x="268" >
  <font-face 
    font-family="Hind Vadodara"
    font-weight="700"
    font-stretch="normal"
    units-per-em="1000"
    panose-1="2 0 0 0 0 0 0 0 0 0"
    ascent="800"
    descent="-200"
    x-height="507"
    cap-height="674"
    bbox="-477 -373 2345 1125"
    underline-thickness="50"
    underline-position="-150"
    unicode-range="U+0020-FB02"
  />
<missing-glyph horiz-adv-x="756" 
d="M596 0h-436v701h436v-701zM241 625v-549h275v549h-275z" />
    <glyph glyph-name=".notdef" horiz-adv-x="756" 
d="M596 0h-436v701h436v-701zM241 625v-549h275v549h-275z" />
    <glyph glyph-name=".null" horiz-adv-x="0" 
 />
    <glyph glyph-name="nonmarkingreturn" horiz-adv-x="333" 
 />
    <glyph glyph-name="space" unicode=" " horiz-adv-x="250" 
 />
    <glyph glyph-name="exclam" unicode="!" horiz-adv-x="289" 
d="M214 236h-139v438h139v-438zM234 83q0 -38 -26.5 -64.5t-64.5 -26.5t-64.5 26.5t-26.5 64.5t26.5 64.5t64.5 26.5t64.5 -26.5t26.5 -64.5z" />
    <glyph glyph-name="quotedbl" unicode="&#x22;" horiz-adv-x="387" 
d="M347 420h-122v261h122v-261zM162 420h-122v261h122v-261z" />
    <glyph glyph-name="numbersign" unicode="#" horiz-adv-x="757" 
d="M496 0h-123l32 154h-136l-33 -154h-123l32 154h-100v111h124l28 135h-118v116h143l33 157h124l-33 -157h136l33 157h124l-33 -157h106v-116h-131l-29 -135h126v-111h-149zM429 265l28 135h-136l-29 -135h137z" />
    <glyph glyph-name="dollar" unicode="$" horiz-adv-x="514" 
d="M299 -118h-121v113q-83 8 -138 39v155q91 -66 194 -66q35 0 58 18.5t23 48.5q0 10 -3 19t-11 17t-15.5 13.5t-22 13t-24.5 12.5t-29.5 14t-31.5 14q-65 30 -104.5 74t-39.5 117q0 77 51 128.5t142 62.5v115h122v-117q53 -8 100 -29v-144q-81 47 -168 47q-39 0 -59.5 -16
t-20.5 -41t25 -44.5t75 -41.5q31 -14 51.5 -24.5t47 -29t42 -39t26.5 -50.5t11 -65q0 -76 -48.5 -129t-131.5 -69v-116z" />
    <glyph glyph-name="percent" unicode="%" horiz-adv-x="973" 
d="M358 -1h-131l379 708h132zM425 532q0 -79 -55.5 -134.5t-134.5 -55.5t-134.5 55.5t-55.5 134.5t55.5 134.5t134.5 55.5t134.5 -55.5t55.5 -134.5zM162 532q0 -30 21.5 -51.5t51.5 -21.5t51.5 21.5t21.5 51.5t-21.5 51.5t-51.5 21.5t-51.5 -21.5t-21.5 -51.5zM928 182
q0 -79 -55.5 -134.5t-134.5 -55.5t-134.5 55.5t-55.5 134.5t55.5 134.5t134.5 55.5t134.5 -55.5t55.5 -134.5zM665 182q0 -30 21.5 -51.5t51.5 -21.5t51.5 21.5t21.5 51.5t-21.5 51.5t-51.5 21.5t-51.5 -21.5t-21.5 -51.5z" />
    <glyph glyph-name="ampersand" unicode="&#x26;" horiz-adv-x="742" 
d="M272 504q0 -44 69 -113q75 41 75 101q0 37 -20.5 57t-56.5 20q-29 0 -48 -17t-19 -48zM737 0h-179l-39 39q-81 -47 -184 -47q-132 0 -208.5 56t-76.5 136q0 124 142 170q-68 75 -68 148q0 89 61 137.5t154 48.5q105 0 164.5 -49.5t59.5 -138.5q0 -59 -33.5 -104.5
t-108.5 -83.5l98 -96q18 39 18 85h131q0 -100 -56 -178zM336 112q47 0 89 18l-127 124q-3 3 -9.5 9t-10.5 10q-46 -16 -62.5 -36t-16.5 -48q0 -34 39 -55.5t98 -21.5z" />
    <glyph glyph-name="quotesingle" unicode="'" horiz-adv-x="202" 
d="M162 420h-122v261h122v-261z" />
    <glyph glyph-name="parenleft" unicode="(" horiz-adv-x="338" 
d="M358 -196h-155q-163 203 -163 455q0 260 157 448h151q-73 -89 -113.5 -216t-40.5 -236q0 -106 42 -229.5t122 -221.5z" />
    <glyph glyph-name="parenright" unicode=")" horiz-adv-x="338" 
d="M135 -196h-155q80 98 122 221.5t42 229.5q0 109 -40.5 236t-113.5 216h151q157 -188 157 -448q0 -252 -163 -455z" />
    <glyph glyph-name="asterisk" unicode="*" horiz-adv-x="508" 
d="M431 312l-96 -69l-57 79q-16 22 -22 43q-8 -19 -24 -42l-59 -80l-95 70l58 79q15 20 35 35q-23 0 -49 9l-94 31l37 112l93 -30q26 -9 45 -23q-7 24 -7 50v98h118v-98q0 -28 -8 -50q17 13 45 22l94 30l36 -112l-92 -30q-25 -8 -50 -8h-2q23 -17 36 -36z" />
    <glyph glyph-name="plus" unicode="+" horiz-adv-x="589" 
d="M544 274h-183v-180h-134v180h-182v130h182v181h134v-181h183v-130z" />
    <glyph glyph-name="comma" unicode="," horiz-adv-x="294" 
d="M119 -127h-126l101 261h161z" />
    <glyph glyph-name="hyphen" unicode="-" horiz-adv-x="357" 
d="M312 202h-267v120h267v-120z" />
    <glyph glyph-name="period" unicode="." horiz-adv-x="258" 
d="M218 81q0 -37 -26 -63t-63 -26t-63 26t-26 63t26 63t63 26t63 -26t26 -63z" />
    <glyph glyph-name="slash" unicode="/" horiz-adv-x="464" 
d="M149 -103h-151l359 810h152z" />
    <glyph glyph-name="zero" unicode="0" horiz-adv-x="547" 
d="M512 330q0 -154 -60.5 -246t-178.5 -92t-178 91.5t-60 246.5q0 156 60 247t178 91t178.5 -91t60.5 -247zM184 330q0 -208 89 -208q90 0 90 208t-90 208q-89 0 -89 -208z" />
    <glyph glyph-name="one" unicode="1" horiz-adv-x="380" 
d="M320 0h-145v497l-165 -99v149l184 107h126v-654z" />
    <glyph glyph-name="two" unicode="2" horiz-adv-x="501" 
d="M466 0h-436v113q108 74 190.5 164t82.5 159q0 42 -25 66.5t-76 24.5q-85 0 -161 -63v141q33 24 86 41t104 17q102 0 162.5 -53.5t60.5 -149.5q0 -173 -220 -336h232v-124z" />
    <glyph glyph-name="three" unicode="3" horiz-adv-x="483" 
d="M448 180q0 -84 -63.5 -134.5t-177.5 -50.5q-107 0 -177 34v140q80 -44 165 -44q49 0 76.5 21t27.5 53q0 73 -135 73h-35v120h35q53 0 87 18t34 54q0 69 -90 69q-69 0 -139 -43v136q74 37 149 37q106 0 168 -50.5t62 -131.5q0 -111 -101 -153q114 -27 114 -148z" />
    <glyph glyph-name="four" unicode="4" horiz-adv-x="562" 
d="M173 263h144v296zM462 0h-145v139h-287v124l200 393h232v-393h80v-124h-80v-139z" />
    <glyph glyph-name="five" unicode="5" horiz-adv-x="500" 
d="M470 219q0 -102 -67.5 -163.5t-191.5 -61.5q-109 0 -176 35v138q68 -42 152 -42q134 0 134 96q0 36 -27.5 57t-82.5 21q-77 0 -148 -33v390h367v-124h-225v-111q22 3 44 3q107 0 164 -55t57 -150z" />
    <glyph glyph-name="six" unicode="6" horiz-adv-x="537" 
d="M512 212q0 -99 -62.5 -165.5t-170.5 -66.5q-121 0 -182.5 86.5t-61.5 232.5q0 167 91.5 267t231.5 100q53 0 103 -16v-135q-39 21 -91 21q-71 0 -116.5 -43.5t-61.5 -116.5q54 46 129 46q86 0 138.5 -57t52.5 -153zM280 110q39 0 61 27t22 72q0 41 -21.5 65.5t-60.5 24.5
q-54 0 -95 -43q11 -146 94 -146z" />
    <glyph glyph-name="seven" unicode="7" horiz-adv-x="480" 
d="M206 0h-154l255 531h-287v124h440v-124z" />
    <glyph glyph-name="eight" unicode="8" horiz-adv-x="545" 
d="M510 182q0 -86 -66.5 -139t-173.5 -53q-108 0 -171.5 50.5t-63.5 136.5q0 106 95 153q-85 49 -85 141t63.5 143.5t161.5 51.5q102 0 165.5 -49t63.5 -146q0 -90 -82 -138q93 -43 93 -151zM181 181q0 -31 21.5 -53t68.5 -22q46 0 69.5 22.5t23.5 54.5q0 36 -24.5 59
t-68.5 23q-45 0 -67.5 -25t-22.5 -59zM192 473q0 -38 23 -59t58 -21q34 0 57 21t23 59q0 77 -83 77q-40 0 -59 -22.5t-19 -54.5z" />
    <glyph glyph-name="nine" unicode="9" horiz-adv-x="533" 
d="M254 346q60 0 97 45q-12 142 -96 142q-39 0 -62.5 -25t-23.5 -70q0 -40 23 -66t62 -26zM498 348q0 -179 -85 -267.5t-227 -88.5q-68 0 -119 19v138q52 -25 103 -25q78 0 121 35.5t56 111.5q-43 -43 -130 -43q-88 0 -142.5 56.5t-54.5 150.5q0 98 61.5 163t166.5 65
q117 0 183.5 -84.5t66.5 -230.5z" />
    <glyph glyph-name="colon" unicode=":" horiz-adv-x="286" 
d="M231 419q0 -37 -25.5 -62.5t-62.5 -25.5t-62.5 25.5t-25.5 62.5t25.5 62.5t62.5 25.5t62.5 -25.5t25.5 -62.5zM231 88q0 -37 -25.5 -62.5t-62.5 -25.5t-62.5 25.5t-25.5 62.5t25.5 62.5t62.5 25.5t62.5 -25.5t25.5 -62.5z" />
    <glyph glyph-name="semicolon" unicode=";" horiz-adv-x="294" 
d="M119 -127h-126l101 261h161zM249 419q0 -37 -25.5 -62.5t-62.5 -25.5t-62.5 25.5t-25.5 62.5t25.5 62.5t62.5 25.5t62.5 -25.5t25.5 -62.5z" />
    <glyph glyph-name="less" unicode="&#x3c;" horiz-adv-x="589" 
d="M544 237v-144l-499 178v138l499 178v-144l-354 -103z" />
    <glyph glyph-name="equal" unicode="=" horiz-adv-x="589" 
d="M544 394h-499v120h499v-120zM544 166h-499v120h499v-120z" />
    <glyph glyph-name="greater" unicode="&#x3e;" horiz-adv-x="589" 
d="M544 271l-499 -178v144l354 103l-354 103v144l499 -178v-138z" />
    <glyph glyph-name="question" unicode="?" horiz-adv-x="458" 
d="M262 236h-133l-3 151q154 0 154 94q0 36 -21.5 57.5t-63.5 21.5q-65 0 -130 -43v137q60 28 153 28q94 0 152 -49.5t58 -133.5q0 -45 -18 -81.5t-45 -57t-53 -31.5t-47 -11zM285 83q0 -38 -26.5 -64.5t-64.5 -26.5t-64.5 26.5t-26.5 64.5t26.5 64.5t64.5 26.5t64.5 -26.5
t26.5 -64.5z" />
    <glyph glyph-name="at" unicode="@" horiz-adv-x="977" 
d="M664 -175q-92 -41 -196 -41q-134 0 -233 58.5t-147 151.5t-48 206q0 129 65 238t175 171t239 62q112 0 207.5 -46t155.5 -137.5t60 -210.5q0 -118 -59.5 -197.5t-143.5 -79.5q-118 0 -153 109q-20 -53 -60.5 -80.5t-91.5 -27.5q-81 0 -128 61.5t-47 150.5q0 104 61 167.5
t144 63.5q81 0 120 -73q4 49 5 71h116l-1 -20q-12 -180 -12 -201q0 -108 51 -108q35 0 57 41.5t22 112.5q0 142 -86.5 214t-221.5 72q-103 0 -183.5 -51.5t-121.5 -132.5t-41 -173q0 -135 86 -214.5t213 -79.5q105 0 201 46zM476 105q34 0 62.5 26t37.5 73q0 6 0.5 20
t0.5 20q-6 47 -31 71.5t-58 24.5q-42 0 -71.5 -35t-29.5 -98q0 -46 26.5 -74t62.5 -28z" />
    <glyph glyph-name="A" unicode="A" horiz-adv-x="690" 
d="M269 286l-7 -24h162l-7 24q-29 98 -47.5 167t-22.5 89l-4 20q-8 -55 -74 -276zM184 0h-161l225 674h194l225 -674h-165l-41 138h-236z" />
    <glyph glyph-name="B" unicode="B" horiz-adv-x="605" 
d="M356 0h-291v674h262q111 0 169 -52.5t58 -133.5q0 -53 -28 -93t-73 -54q117 -35 117 -158q0 -80 -57.5 -131.5t-156.5 -51.5zM301 551h-82v-151h57q60 0 90.5 22t30.5 58q0 71 -96 71zM301 279h-82v-156h81q114 0 114 78t-113 78z" />
    <glyph glyph-name="C" unicode="C" horiz-adv-x="613" 
d="M563 30q-61 -38 -176 -38q-148 0 -247.5 95.5t-99.5 247.5q0 154 96.5 251t251.5 97q114 0 175 -38v-148q-75 46 -167 46q-81 0 -136 -56.5t-55 -151.5q0 -93 55 -147.5t142 -54.5q94 0 161 48v-151z" />
    <glyph glyph-name="D" unicode="D" horiz-adv-x="683" 
d="M295 0h-230v674h232q152 0 249 -93.5t97 -232.5q0 -162 -95.5 -255t-252.5 -93zM292 547h-69v-421h70q93 0 143.5 58t50.5 164q0 90 -51 144.5t-144 54.5z" />
    <glyph glyph-name="E" unicode="E" horiz-adv-x="544" 
d="M484 0h-419v674h415v-123h-260v-153h232v-122h-232v-153h264v-123z" />
    <glyph glyph-name="F" unicode="F" horiz-adv-x="506" 
d="M443 254h-223v-254h-155v674h411v-123h-256v-174h223v-123z" />
    <glyph glyph-name="G" unicode="G" horiz-adv-x="706" 
d="M646 62q-96 -70 -242 -70q-162 0 -263 93t-101 253q0 158 105.5 253t267.5 95q114 0 197 -42v-154q-96 55 -197 55q-95 0 -151 -56.5t-56 -150.5q0 -95 55 -151t150 -56q43 0 85 13v127h-109v131h259v-340z" />
    <glyph glyph-name="H" unicode="H" horiz-adv-x="686" 
d="M621 0h-155v269h-247v-269h-154v674h154v-274h247v274h155v-674z" />
    <glyph glyph-name="I" unicode="I" horiz-adv-x="304" 
d="M229 0h-154v674h154v-674z" />
    <glyph glyph-name="J" unicode="J" horiz-adv-x="392" 
d="M332 204q0 -97 -51.5 -151t-143.5 -54q-69 0 -107 20v136q37 -23 77 -23q71 0 71 76v465h154v-469z" />
    <glyph glyph-name="K" unicode="K" horiz-adv-x="662" 
d="M645 0h-193l-226 335l218 339h183l-221 -337zM219 0h-154v674h154v-674z" />
    <glyph glyph-name="L" unicode="L" horiz-adv-x="488" 
d="M468 0h-403v674h154v-539h249v-135z" />
    <glyph glyph-name="M" unicode="M" horiz-adv-x="893" 
d="M204 0h-154l58 674h169l94 -244q24 -61 41 -112t22 -72l5 -20q16 66 70 204l95 244h169l70 -674h-154l-25 261l-13 197q-26 -75 -72 -197l-95 -254h-91l-94 254q-23 62 -39 111t-21 68l-5 18q0 -71 -9 -197z" />
    <glyph glyph-name="N" unicode="N" horiz-adv-x="697" 
d="M219 0h-154v674h169l157 -279q33 -59 57.5 -110.5t31.5 -72.5l8 -22q-10 74 -10 205v279h154v-674h-169l-161 279q-32 54 -56.5 106.5t-33.5 77.5l-8 25q15 -90 15 -209v-279z" />
    <glyph glyph-name="O" unicode="O" horiz-adv-x="736" 
d="M696 339q0 -155 -89.5 -250.5t-238.5 -95.5q-150 0 -239 95t-89 251q0 155 89.5 250.5t238.5 95.5q150 0 239 -95t89 -251zM205 339q0 -95 44 -150.5t119 -55.5t119 55.5t44 150.5t-44 150.5t-119 55.5t-119 -55.5t-44 -150.5z" />
    <glyph glyph-name="P" unicode="P" horiz-adv-x="563" 
d="M297 218h-78v-218h-154v674h232q112 0 181.5 -63t69.5 -160q0 -111 -72.5 -172t-178.5 -61zM279 551h-60v-211h51q122 0 122 111q0 100 -113 100z" />
    <glyph glyph-name="Q" unicode="Q" horiz-adv-x="741" 
d="M696 339q0 -106 -43 -186t-121 -122l206 -115l-175 -67l-199 144q-148 1 -236 96t-88 250t89.5 250.5t238.5 95.5q150 0 239 -95t89 -251zM205 339q0 -95 44 -150.5t119 -55.5t119 55.5t44 150.5t-44 150.5t-119 55.5t-119 -55.5t-44 -150.5z" />
    <glyph glyph-name="R" unicode="R" horiz-adv-x="614" 
d="M295 549h-76v-190h73q100 0 100 98q0 43 -26 67.5t-71 24.5zM219 0h-154v674h233q113 0 181.5 -60t68.5 -156q0 -144 -123 -199l171 -259h-184l-146 234h-47v-234z" />
    <glyph glyph-name="S" unicode="S" horiz-adv-x="514" 
d="M484 196q0 -91 -67 -147.5t-178 -56.5q-119 0 -194 42v155q91 -66 194 -66q35 0 58 18.5t23 48.5q0 10 -3 19t-11 17t-15.5 13.5t-22 13t-24.5 12.5t-29.5 14t-31.5 14q-65 30 -104.5 74t-39.5 117q0 87 64 140.5t177 53.5q101 0 174 -34v-144q-81 47 -168 47
q-39 0 -59.5 -16t-20.5 -41t25 -44.5t75 -41.5q31 -14 51.5 -24.5t47 -29t42 -39t26.5 -50.5t11 -65z" />
    <glyph glyph-name="T" unicode="T" horiz-adv-x="544" 
d="M514 550h-164v-550h-155v550h-165v124h484v-124z" />
    <glyph glyph-name="U" unicode="U" horiz-adv-x="668" 
d="M608 261q0 -132 -74 -201.5t-200 -69.5q-124 0 -199 69t-75 195v420h154v-419q0 -125 120 -125t120 130v414h154v-413z" />
    <glyph glyph-name="V" unicode="V" horiz-adv-x="659" 
d="M413 0h-170l-224 674h166l81 -269q22 -72 38 -138.5t21 -96.5l5 -31q16 104 65 266l81 269h164z" />
    <glyph glyph-name="W" unicode="W" horiz-adv-x="971" 
d="M372 0h-172l-181 674h162l62 -248q20 -80 33 -144.5t16 -89.5l4 -24q17 78 68 258l67 238h114l66 -238q21 -75 37.5 -139.5t22.5 -91.5l6 -27q13 89 56 259l62 247h157l-180 -674h-172l-59 213q-21 77 -34.5 130t-16.5 68l-2 15q-3 -41 -54 -213z" />
    <glyph glyph-name="X" unicode="X" horiz-adv-x="663" 
d="M213 0h-186l213 342l-203 332h179l112 -197l107 197h188l-204 -333l217 -341h-183l-122 210z" />
    <glyph glyph-name="Y" unicode="Y" horiz-adv-x="643" 
d="M397 0h-154v247l-230 427h180l41 -98q32 -76 53 -130t27 -70l5 -16q10 45 88 216l44 98h179l-233 -426v-248z" />
    <glyph glyph-name="Z" unicode="Z" horiz-adv-x="621" 
d="M561 0h-501v113l302 437h-296v124h483v-109l-304 -441h316v-124z" />
    <glyph glyph-name="bracketleft" unicode="[" horiz-adv-x="363" 
d="M348 -196h-283v903h283v-127h-145v-648h145v-128z" />
    <glyph glyph-name="backslash" unicode="\" horiz-adv-x="464" 
d="M466 -103h-151l-360 810h152z" />
    <glyph glyph-name="bracketright" unicode="]" horiz-adv-x="363" 
d="M298 -196h-283v128h145v648h-145v127h283v-903z" />
    <glyph glyph-name="asciicircum" unicode="^" horiz-adv-x="491" 
d="M168 332h-135l151 262h123l151 -262h-135l-77 146z" />
    <glyph glyph-name="underscore" unicode="_" horiz-adv-x="546" 
d="M526 -166h-506v121h506v-121z" />
    <glyph glyph-name="grave" unicode="`" horiz-adv-x="500" 
d="M366 621h-121l-111 177h146z" />
    <glyph glyph-name="a" unicode="a" horiz-adv-x="516" 
d="M246 100q31 0 48 19t17 52v37h-47q-37 0 -57 -16t-20 -41q0 -51 59 -51zM318 62q-32 -65 -126 -65q-74 0 -115.5 42t-41.5 105q0 73 53.5 113.5t158.5 40.5h64v35q0 64 -85 64q-82 0 -152 -46v131q60 34 173 34q108 0 161 -46.5t53 -144.5v-325h-143v62z" />
    <glyph glyph-name="b" unicode="b" horiz-adv-x="611" 
d="M206 0h-146v707h146v-278q52 84 151 84q95 0 157 -69t62 -189q0 -107 -59.5 -184t-158.5 -77q-101 0 -152 85v-79zM206 259q0 -65 31 -104t81 -39q46 0 78 37.5t32 98.5q0 66 -31.5 103t-77.5 37t-79.5 -35t-33.5 -98z" />
    <glyph glyph-name="c" unicode="c" horiz-adv-x="469" 
d="M439 24q-59 -32 -142 -32q-114 0 -188 72.5t-74 187.5q2 114 74 188.5t197 74.5q77 0 133 -29v-125q-53 33 -118 33q-61 0 -99 -36.5t-39 -105.5q4 -67 40 -104t95 -37q63 0 121 35v-122z" />
    <glyph glyph-name="d" unicode="d" horiz-adv-x="611" 
d="M183 252q0 -61 32 -98.5t78 -37.5q50 0 81 39t31 104q0 63 -33.5 98t-79.5 35t-77.5 -37t-31.5 -103zM551 0h-146v79q-51 -85 -152 -85q-99 0 -158.5 77t-59.5 184q0 120 62 189t157 69q99 0 151 -84v278h146v-707z" />
    <glyph glyph-name="e" unicode="e" horiz-adv-x="533" 
d="M458 29q-52 -34 -159 -34q-125 0 -194.5 72.5t-69.5 186.5q0 121 67.5 189.5t166.5 68.5q102 0 161 -59.5t59 -177.5q0 -23 -8 -79h-298q15 -42 52 -65t89 -23q77 0 134 43v-122zM275 401q-35 0 -62 -25.5t-36 -75.5h176v12q-7 89 -78 89z" />
    <glyph glyph-name="f" unicode="f" horiz-adv-x="346" 
d="M336 400h-95v-400h-145v400h-66v107h66v19q0 92 51.5 143t142.5 51q47 0 76 -10v-118q-28 11 -52 11q-37 0 -55 -17t-18 -60v-19h95v-107z" />
    <glyph glyph-name="g" unicode="g" horiz-adv-x="585" 
d="M530 49q0 -122 -73 -183.5t-183 -61.5q-107 0 -187 38v149q70 -56 172 -56q66 0 96 28t30 88v34q-44 -68 -140 -68q-84 0 -144.5 62t-60.5 184q0 108 58.5 178.5t153.5 70.5q90 0 133 -72v67h145v-458zM192 262q0 -63 24 -96t69 -33q47 0 73.5 35.5t26.5 85.5
q0 136 -99 136q-44 0 -69 -34t-25 -94z" />
    <glyph glyph-name="h" unicode="h" horiz-adv-x="580" 
d="M525 0h-146v300q0 44 -22 69t-57 25q-15 0 -28.5 -4.5t-29.5 -16t-26 -39t-10 -66.5v-268h-146v707h146v-286q39 91 152 91q74 0 120.5 -47t46.5 -142v-323z" />
    <glyph glyph-name="i" unicode="i" horiz-adv-x="276" 
d="M211 0h-146v507h146v-507zM223 654q0 -35 -25 -60t-60 -25t-60 25t-25 60t25 60t60 25t60 -25t25 -60z" />
    <glyph glyph-name="j" unicode="j" horiz-adv-x="274" 
d="M214 -21q0 -80 -45 -128.5t-130 -48.5q-35 0 -79 16v111q33 -15 57 -15q52 0 52 67v526h145v-528zM226 654q0 -35 -25 -60t-60 -25t-60 25t-25 60t25 60t60 25t60 -25t25 -60z" />
    <glyph glyph-name="k" unicode="k" horiz-adv-x="548" 
d="M206 0h-146v690h146v-410l160 227h168l-176 -243l179 -264h-169l-162 249v-249z" />
    <glyph glyph-name="l" unicode="l" horiz-adv-x="276" 
d="M211 0h-146v707h146v-707z" />
    <glyph glyph-name="m" unicode="m" horiz-adv-x="859" 
d="M804 0h-146v301q0 43 -17 68t-49 25q-34 0 -60.5 -27.5t-26.5 -98.5v-268h-146v301q0 43 -17 68t-49 25q-34 0 -60.5 -27.5t-26.5 -98.5v-268h-146v507h146v-79q42 84 143 84q107 0 142 -96q17 45 57 70.5t94 25.5q75 0 118.5 -47.5t43.5 -139.5v-325z" />
    <glyph glyph-name="n" unicode="n" horiz-adv-x="580" 
d="M525 0h-146v302q0 45 -21 68.5t-59 23.5q-40 0 -66.5 -31.5t-26.5 -94.5v-268h-146v507h146v-86q19 42 58.5 66.5t94.5 24.5q78 0 122 -46.5t44 -136.5v-329z" />
    <glyph glyph-name="o" unicode="o" horiz-adv-x="567" 
d="M532 256q0 -115 -65.5 -189.5t-182.5 -74.5q-119 0 -184 71.5t-65 183.5q0 117 68 192.5t181 75.5q118 0 183 -73t65 -186zM187 253q0 -65 24.5 -106.5t73.5 -41.5q48 0 71.5 40.5t23.5 105.5q0 149 -97 149q-48 0 -72 -41t-24 -106z" />
    <glyph glyph-name="p" unicode="p" horiz-adv-x="611" 
d="M206 -187h-146v694h146v-78q53 84 153 84q98 0 157.5 -69.5t59.5 -188.5q0 -113 -57.5 -187t-159.5 -74q-103 0 -153 81v-262zM206 259q0 -65 32 -104t82 -39q48 0 78 36.5t30 99.5q0 69 -30.5 104.5t-77.5 35.5q-46 0 -80 -35t-34 -98z" />
    <glyph glyph-name="q" unicode="q" horiz-adv-x="611" 
d="M183 252q0 -61 32 -98.5t78 -37.5q50 0 81 39t31 104q0 63 -33.5 98t-79.5 35t-77.5 -37t-31.5 -103zM551 -187h-146v266q-51 -85 -152 -85q-102 0 -160 74t-58 187q0 119 60 188.5t159 69.5t151 -84v78h146v-694z" />
    <glyph glyph-name="r" unicode="r" horiz-adv-x="370" 
d="M205 0h-146l1 507h145v-94q14 44 46.5 70.5t75.5 26.5q24 0 38 -4v-138q-24 11 -55 11q-47 0 -76 -34.5t-29 -91.5v-253z" />
    <glyph glyph-name="s" unicode="s" horiz-adv-x="436" 
d="M406 153q0 -75 -54 -116t-143 -41q-92 0 -154 31v130q69 -48 146 -48q55 0 55 35q0 9 -5 17t-17 15t-22 11.5t-29 12.5t-29 13q-101 48 -101 144q0 74 56.5 115t140.5 41q78 0 130 -21v-125q-53 31 -124 31q-26 0 -40 -10.5t-14 -26.5q0 -9 5 -17t16.5 -15t22 -12.5
t29 -13.5t29.5 -14q46 -24 74 -55.5t28 -80.5z" />
    <glyph glyph-name="t" unicode="t" horiz-adv-x="386" 
d="M356 11q-37 -16 -100 -16q-173 0 -173 173v232h-73v107h73v120h146v-120h118v-107h-118v-233q0 -27 15.5 -41t40.5 -14q40 0 71 20v-121z" />
    <glyph glyph-name="u" unicode="u" horiz-adv-x="580" 
d="M520 0h-146v81q-40 -85 -154 -85q-78 0 -121.5 43.5t-43.5 128.5v339h146v-306q0 -89 78 -89q95 0 95 127v268h146v-507z" />
    <glyph glyph-name="v" unicode="v" horiz-adv-x="536" 
d="M342 0h-150l-187 507h153l66 -216q15 -50 26 -94.5t14 -64.5l4 -19q9 65 45 178l68 216h150z" />
    <glyph glyph-name="w" unicode="w" horiz-adv-x="806" 
d="M318 0h-150l-163 507h151l44 -167q16 -63 27 -113.5t13 -69.5l3 -19q7 60 49 202l49 167h126l48 -167q18 -64 30 -114.5t15 -69.5l3 -18q7 59 47 202l47 167h144l-162 -507h-150l-44 166q-14 54 -24.5 101t-13.5 67l-3 20q-10 -67 -42 -188z" />
    <glyph glyph-name="x" unicode="x" horiz-adv-x="526" 
d="M174 0h-158l181 254l-170 253h162l82 -151l91 151h160l-182 -254l169 -253h-159l-85 152z" />
    <glyph glyph-name="y" unicode="y" horiz-adv-x="532" 
d="M344 15q-79 -213 -241 -213q-31 0 -56 5v116q16 -4 34 -4q83 0 120 89l-196 499h159l55 -158q21 -61 34.5 -105t16.5 -58l3 -14q11 40 54 177l50 158h150z" />
    <glyph glyph-name="z" unicode="z" horiz-adv-x="479" 
d="M439 0h-399v105l222 290h-213v112h378v-101l-222 -293h234v-113z" />
    <glyph glyph-name="braceleft" unicode="{" horiz-adv-x="380" 
d="M355 -194q-35 -12 -66 -12q-70 0 -114.5 51t-44.5 129q0 22 6 60t6 54q0 38 -23 67.5t-62 29.5l-17 -1v141h17q39 0 62 29t23 67q0 16 -6 54t-6 60q0 78 44.5 129t114.5 51q31 0 66 -12v-135q-15 9 -31 9q-21 0 -36 -15.5t-15 -39.5q0 -12 6 -51.5t6 -63.5
q0 -61 -34.5 -103.5t-81.5 -48.5q47 -6 81.5 -49t34.5 -104q0 -24 -6 -63.5t-6 -51.5q0 -24 15 -39.5t36 -15.5q16 0 31 9v-135z" />
    <glyph glyph-name="bar" unicode="|" horiz-adv-x="280" 
d="M210 -194h-140v889h140v-889z" />
    <glyph glyph-name="braceright" unicode="}" horiz-adv-x="380" 
d="M250 -26q0 -78 -44.5 -129t-114.5 -51q-31 0 -66 12v135q15 -9 31 -9q21 0 36 15.5t15 39.5q0 12 -6 51.5t-6 63.5q0 61 34.5 104t81.5 49q-47 6 -81.5 48.5t-34.5 103.5q0 24 6 63.5t6 51.5q0 24 -15 39.5t-36 15.5q-16 0 -31 -9v135q35 12 66 12q70 0 114.5 -51
t44.5 -129q0 -22 -6 -60t-6 -54q0 -38 23 -67t62 -29h17v-141q-7 1 -17 1q-39 0 -62 -29.5t-23 -67.5q0 -16 6 -54t6 -60z" />
    <glyph glyph-name="asciitilde" unicode="~" horiz-adv-x="654" 
d="M232 238q-33 0 -55 -14t-48 -44l-101 80q31 44 76 76.5t96 32.5q66 0 131.5 -24.5t89.5 -24.5q33 0 55 14t48 45l101 -81q-77 -109 -173 -109q-57 0 -121.5 24.5t-98.5 24.5z" />
    <glyph glyph-name="exclamdown" unicode="&#xa1;" horiz-adv-x="289" 
d="M214 -165h-139v438h139v-438zM234 426q0 -38 -26.5 -64.5t-64.5 -26.5t-64.5 26.5t-26.5 64.5t26.5 64.5t64.5 26.5t64.5 -26.5t26.5 -64.5z" />
    <glyph glyph-name="cent" unicode="&#xa2;" horiz-adv-x="478" 
d="M438 24q-35 -18 -79 -26v-109h-121v108q-92 18 -150 87t-58 168q2 97 56.5 167t150.5 89v112h122v-110q43 -8 79 -27v-122q-53 33 -118 33q-62 0 -101.5 -37t-40.5 -105q4 -66 41.5 -103.5t97.5 -37.5q63 0 121 35v-122z" />
    <glyph glyph-name="sterling" unicode="&#xa3;" horiz-adv-x="540" 
d="M507 0h-462v121q73 38 73 130v16h-74v106h60q-3 24 -3 47q0 113 59 176.5t175 63.5q85 0 137 -32v-138q-46 33 -104 33q-105 0 -105 -109q0 -13 2 -41h166v-106h-155v-17q0 -88 -61 -127h292v-123z" />
    <glyph glyph-name="currency" unicode="&#xa4;" horiz-adv-x="571" 
d="M171 117l-58 -57l-85 82l59 57q-29 52 -29 112q0 59 28 110l-58 57l85 82l58 -57q51 28 115 28q62 0 114 -27l58 56l85 -82l-58 -57q29 -53 29 -110q0 -59 -30 -112l59 -57l-85 -82l-59 56q-50 -26 -113 -26q-64 0 -115 27zM180 311q0 -44 30 -75.5t76 -31.5t76 31.5
t30 75.5t-30 75.5t-76 31.5t-76 -31.5t-30 -75.5z" />
    <glyph glyph-name="yen" unicode="&#xa5;" horiz-adv-x="635" 
d="M568 117h-175v-117h-154v117h-173v90h173v45l-11 19h-162v90h111l-168 294h180l126 -246l132 246h179l-170 -294h112v-90h-164l-11 -19v-45h175v-90z" />
    <glyph glyph-name="brokenbar" unicode="&#xa6;" horiz-adv-x="280" 
d="M210 369h-140v338h140v-338zM210 -117h-140v338h140v-338z" />
    <glyph glyph-name="section" unicode="&#xa7;" horiz-adv-x="599" 
d="M324 192q33 -14 51 -24q8 16 8 32q0 14 -5.5 25.5t-13 20t-24 18.5t-29.5 16.5l-39 19.5l-44 22l-12 6q-11 -19 -11 -37q0 -28 26 -49t93 -50zM531 197q0 -65 -42 -115q31 -41 31 -90q0 -83 -64.5 -131t-175.5 -48q-119 0 -194 42v155q91 -66 194 -66q82 0 82 48
q0 26 -30 45.5t-154 73.5q-121 54 -121 183q0 62 46 117q-30 38 -30 88q0 82 61.5 131.5t170.5 49.5q98 0 174 -35v-144q-83 48 -168 48q-77 0 -77 -49q0 -8 2.5 -15t10 -13.5t15 -12t23 -14t29 -15.5t37.5 -19t44 -23q69 -36 102.5 -78t33.5 -113z" />
    <glyph glyph-name="dieresis" unicode="&#xa8;" horiz-adv-x="500" 
d="M467 710q0 -35 -24 -58.5t-59 -23.5q-36 0 -59.5 23.5t-23.5 58.5q0 34 23.5 57.5t59.5 23.5q35 0 59 -23.5t24 -57.5zM198 710q0 -35 -23.5 -58.5t-58.5 -23.5q-36 0 -59.5 23.5t-23.5 58.5q0 34 23.5 57.5t59.5 23.5q35 0 58.5 -23.5t23.5 -57.5z" />
    <glyph glyph-name="copyright" unicode="&#xa9;" horiz-adv-x="761" 
d="M487 192q-39 -21 -96 -21q-69 0 -119.5 46t-50.5 120q1 75 48.5 122t127.5 47q49 0 90 -22v-94q-35 22 -80 22q-28 0 -50 -19t-23 -56q2 -35 22.5 -54.5t48.5 -19.5q43 0 82 24v-95zM726 338q0 -143 -101 -244.5t-244 -101.5t-244.5 101.5t-101.5 244.5t101.5 244
t244.5 101t244 -101.5t101 -243.5zM132 337q0 -109 70.5 -179t178.5 -70q107 0 177.5 70t70.5 179q0 107 -70.5 177.5t-177.5 70.5q-108 0 -178.5 -70.5t-70.5 -177.5z" />
    <glyph glyph-name="ordfeminine" unicode="&#xaa;" horiz-adv-x="400" 
d="M189 476q25 0 40 16.5t15 43.5v32h-41q-31 0 -48 -13.5t-17 -35.5q0 -43 51 -43zM250 444q-26 -55 -108 -55q-62 0 -97 35t-35 90q0 61 45 96t134 35h55v28q0 54 -73 54q-69 0 -129 -38v111q52 28 147 28q92 0 136.5 -39t44.5 -121v-276h-120v52z" />
    <glyph glyph-name="guillemotleft" unicode="&#xab;" horiz-adv-x="592" 
d="M404 253l146 -162h-152l-152 162l152 162h152zM330 91h-152l-152 162l152 162h152l-146 -162z" />
    <glyph glyph-name="logicalnot" unicode="&#xac;" horiz-adv-x="603" 
d="M558 136h-120v165h-393v116h513v-281z" />
    <glyph glyph-name="uni00AD" unicode="&#xad;" horiz-adv-x="357" 
d="M312 202h-267v120h267v-120z" />
    <glyph glyph-name="registered" unicode="&#xae;" horiz-adv-x="492" 
d="M228 440h-54v237h70q91 0 91 -75q0 -48 -38 -66l60 -96h-66l-50 86h-13v-86zM246 632h-18v-61h22q13 0 20.5 9t7.5 22q0 30 -32 30zM482 551q0 -102 -67 -168t-169 -66q-103 0 -169.5 65.5t-66.5 168.5t66.5 169t169.5 66q102 0 169 -66.5t67 -168.5zM72 551
q0 -79 47.5 -127t127.5 -48q79 0 126.5 48t47.5 127t-47.5 128t-126.5 49q-80 0 -127.5 -49t-47.5 -128z" />
    <glyph glyph-name="macron" unicode="&#xaf;" horiz-adv-x="500" 
d="M428 651h-356v99h356v-99z" />
    <glyph glyph-name="degree" unicode="&#xb0;" horiz-adv-x="440" 
d="M410 495q0 -79 -55.5 -134.5t-134.5 -55.5t-134.5 55.5t-55.5 134.5t55.5 134.5t134.5 55.5t134.5 -55.5t55.5 -134.5zM132 495q0 -36 26 -62t62 -26t62 26t26 62t-26 62t-62 26t-62 -26t-26 -62z" />
    <glyph glyph-name="plusminus" unicode="&#xb1;" horiz-adv-x="589" 
d="M544 326h-183v-140h-134v140h-182v120h182v139h134v-139h183v-120zM544 28h-499v120h499v-120z" />
    <glyph glyph-name="twosuperior" unicode="&#xb2;" horiz-adv-x="365" 
d="M330 392h-295v77q72 52 121 108t49 100q0 51 -61 51q-47 0 -99 -37v105q52 33 117 33q69 0 111.5 -36.5t42.5 -100.5q0 -115 -148 -210h162v-90z" />
    <glyph glyph-name="threesuperior" unicode="&#xb3;" horiz-adv-x="353" 
d="M318 510q0 -55 -41.5 -88.5t-111.5 -33.5q-80 0 -130 27v94q57 -30 113 -30q28 0 44.5 13t16.5 32q0 41 -85 41h-15v89h14q77 0 77 41t-52 41q-51 0 -97 -35v101q47 27 107 27q71 0 112 -33.5t41 -87.5q0 -39 -21.5 -64.5t-59.5 -33.5q38 -4 63 -30t25 -70z" />
    <glyph glyph-name="acute" unicode="&#xb4;" horiz-adv-x="500" 
d="M255 621h-121l86 177h146z" />
    <glyph glyph-name="uni00B5" unicode="&#xb5;" horiz-adv-x="585" 
d="M206 -180h-146v687h146v-306q0 -43 25 -66t63 -23q44 0 64.5 28.5t20.5 98.5v268h146v-507h-146v60q-34 -64 -104 -64q-36 0 -69 14v-190z" />
    <glyph glyph-name="paragraph" unicode="&#xb6;" horiz-adv-x="592" 
d="M324 -148h-111v465q-97 0 -150 52.5t-53 127.5q0 74 54.5 125.5t167.5 51.5h92v-822zM527 -148h-111l1 822h110v-822z" />
    <glyph glyph-name="periodcentered" unicode="&#xb7;" 
d="M223 252q0 -37 -26 -63t-63 -26t-63 26t-26 63t26 63t63 26t63 -26t26 -63z" />
    <glyph glyph-name="cedilla" unicode="&#xb8;" horiz-adv-x="500" 
d="M339 -125q0 -63 -45.5 -103t-133.5 -40v91q36 0 55.5 17t19.5 47q0 28 -26 62h113q17 -27 17 -74z" />
    <glyph glyph-name="onesuperior" unicode="&#xb9;" horiz-adv-x="279" 
d="M229 392h-103v321l-116 -62v98l134 76h85v-433z" />
    <glyph glyph-name="ordmasculine" unicode="&#xba;" horiz-adv-x="442" 
d="M432 610q0 -98 -55.5 -161t-154.5 -63q-102 0 -157 61t-55 155q0 100 57.5 164t154.5 64q101 0 155.5 -62t54.5 -158zM139 607q0 -55 21 -90t63 -35q41 0 60.5 34t19.5 89q0 128 -83 128q-41 0 -61 -35t-20 -91z" />
    <glyph glyph-name="guillemotright" unicode="&#xbb;" horiz-adv-x="591" 
d="M565 253l-152 -162h-152l146 162l-146 162h152zM193 91h-152l146 162l-146 162h152l152 -162z" />
    <glyph glyph-name="onequarter" unicode="&#xbc;" horiz-adv-x="829" 
d="M232 0h-109l429 711h108zM229 278h-103v321l-116 -62v98l134 76h85v-433zM578 171h89v182zM769 0h-102v86h-194v85l133 259h163v-259h52v-85h-52v-86z" />
    <glyph glyph-name="onehalf" unicode="&#xbd;" horiz-adv-x="833" 
d="M232 0h-109l429 711h108zM229 278h-103v321l-116 -62v98l134 76h85v-433zM817 0h-295v77q72 52 121 108t49 100q0 51 -61 51q-47 0 -99 -37v105q52 33 117 33q69 0 111.5 -36.5t42.5 -100.5q0 -115 -148 -210h162v-90z" />
    <glyph glyph-name="threequarters" unicode="&#xbe;" horiz-adv-x="898" 
d="M285 0h-109l429 711h108zM306 395q0 -55 -41.5 -88.5t-111.5 -33.5q-80 0 -130 27v94q57 -30 113 -30q28 0 44.5 13t16.5 32q0 41 -85 41h-15v89h14q77 0 77 41t-52 41q-51 0 -97 -35v101q46 27 107 27q71 0 112 -33.5t41 -87.5q0 -39 -21.5 -64.5t-59.5 -33.5
q38 -4 63 -30t25 -70zM631 171h89v182zM822 0h-102v86h-194v85l133 259h163v-259h52v-85h-52v-86z" />
    <glyph glyph-name="questiondown" unicode="&#xbf;" horiz-adv-x="458" 
d="M428 -144q-60 -28 -153 -28q-94 0 -152 49.5t-58 133.5q0 45 18 81.5t45 57t53 31.5t47 11l3 82h133l3 -151q-154 0 -154 -94q0 -36 21.5 -57.5t63.5 -21.5q65 0 130 43v-137zM390 427q0 -38 -26.5 -64.5t-64.5 -26.5t-64.5 26.5t-26.5 64.5t26.5 64.5t64.5 26.5
t64.5 -26.5t26.5 -64.5z" />
    <glyph glyph-name="Agrave" unicode="&#xc0;" horiz-adv-x="690" 
d="M269 286l-7 -24h162l-7 24q-29 98 -47.5 167t-22.5 89l-4 20q-8 -55 -74 -276zM184 0h-161l225 674h194l225 -674h-165l-41 138h-236zM406 721h-121l-111 177h146z" />
    <glyph glyph-name="Aacute" unicode="&#xc1;" horiz-adv-x="690" 
d="M269 286l-7 -24h162l-7 24q-29 98 -47.5 167t-22.5 89l-4 20q-8 -55 -74 -276zM184 0h-161l225 674h194l225 -674h-165l-41 138h-236zM416 721h-121l86 177h146z" />
    <glyph glyph-name="Acircumflex" unicode="&#xc2;" horiz-adv-x="690" 
d="M269 286l-7 -24h162l-7 24q-29 98 -47.5 167t-22.5 89l-4 20q-8 -55 -74 -276zM184 0h-161l225 674h194l225 -674h-165l-41 138h-236zM267 721h-139l156 177h124l156 -177h-139l-79 96z" />
    <glyph glyph-name="Atilde" unicode="&#xc3;" horiz-adv-x="690" 
d="M269 286l-7 -24h162l-7 24q-29 98 -47.5 167t-22.5 89l-4 20q-8 -55 -74 -276zM184 0h-161l225 674h194l225 -674h-165l-41 138h-236zM289 776q-25 0 -39 -8.5t-36 -34.5l-65 64q16 34 47.5 58t68.5 24q36 0 76.5 -17.5t59.5 -17.5q49 0 70 43l74 -61q-43 -85 -136 -85
q-33 0 -69 17.5t-51 17.5z" />
    <glyph glyph-name="Adieresis" unicode="&#xc4;" horiz-adv-x="690" 
d="M269 286l-7 -24h162l-7 24q-29 98 -47.5 167t-22.5 89l-4 20q-8 -55 -74 -276zM184 0h-161l225 674h194l225 -674h-165l-41 138h-236zM569 810q0 -35 -24 -58.5t-59 -23.5q-36 0 -59.5 23.5t-23.5 58.5q0 34 23.5 57.5t59.5 23.5q35 0 59 -23.5t24 -57.5zM300 810
q0 -35 -23.5 -58.5t-58.5 -23.5q-36 0 -59.5 23.5t-23.5 58.5q0 34 23.5 57.5t59.5 23.5q35 0 58.5 -23.5t23.5 -57.5z" />
    <glyph glyph-name="Aring" unicode="&#xc5;" horiz-adv-x="690" 
d="M269 286l-7 -24h162l-7 24q-29 98 -47.5 167t-22.5 89l-4 20q-8 -55 -74 -276zM184 0h-161l225 674h194l225 -674h-165l-41 138h-236zM485 846q0 -56 -40 -96t-96 -40t-96 40t-40 96t40 96t96 40t96 -40t40 -96zM296 849q0 -23 15 -39.5t38 -16.5t38 16.5t15 39.5
t-15 39.5t-38 16.5t-38 -16.5t-15 -39.5z" />
    <glyph glyph-name="AE" unicode="&#xc6;" horiz-adv-x="940" 
d="M169 0h-161l325 674h543v-123h-260v-153h232v-122h-232v-153h264v-123h-413v138h-229zM313 286l-12 -24h166v352q-41 -106 -154 -328z" />
    <glyph glyph-name="Ccedilla" unicode="&#xc7;" horiz-adv-x="613" 
d="M563 30q-61 -38 -176 -38q-148 0 -247.5 95.5t-99.5 247.5q0 154 96.5 251t251.5 97q114 0 175 -38v-148q-75 46 -167 46q-81 0 -136 -56.5t-55 -151.5q0 -93 55 -147.5t142 -54.5q94 0 161 48v-151zM448 -125q0 -63 -45.5 -103t-133.5 -40v91q36 0 55.5 17t19.5 47
q0 28 -26 62h113q17 -27 17 -74z" />
    <glyph glyph-name="Egrave" unicode="&#xc8;" horiz-adv-x="544" 
d="M484 0h-419v674h415v-123h-260v-153h232v-122h-232v-153h264v-123zM346 721h-121l-111 177h146z" />
    <glyph glyph-name="Eacute" unicode="&#xc9;" horiz-adv-x="544" 
d="M484 0h-419v674h415v-123h-260v-153h232v-122h-232v-153h264v-123zM343 721h-121l86 177h146z" />
    <glyph glyph-name="Ecircumflex" unicode="&#xca;" horiz-adv-x="544" 
d="M484 0h-419v674h415v-123h-260v-153h232v-122h-232v-153h264v-123zM193 721h-139l156 177h124l156 -177h-139l-79 96z" />
    <glyph glyph-name="Edieresis" unicode="&#xcb;" horiz-adv-x="544" 
d="M484 0h-419v674h415v-123h-260v-153h232v-122h-232v-153h264v-123zM489 809q0 -35 -24 -58.5t-59 -23.5q-36 0 -59.5 23.5t-23.5 58.5q0 34 23.5 57.5t59.5 23.5q35 0 59 -23.5t24 -57.5zM220 809q0 -35 -23.5 -58.5t-58.5 -23.5q-36 0 -59.5 23.5t-23.5 58.5
q0 34 23.5 57.5t59.5 23.5q35 0 58.5 -23.5t23.5 -57.5z" />
    <glyph glyph-name="Igrave" unicode="&#xcc;" horiz-adv-x="304" 
d="M229 0h-154v674h154v-674zM208 721h-121l-111 177h146z" />
    <glyph glyph-name="Iacute" unicode="&#xcd;" horiz-adv-x="304" 
d="M229 0h-154v674h154v-674zM215 721h-121l86 177h146z" />
    <glyph glyph-name="Icircumflex" unicode="&#xce;" horiz-adv-x="304" 
d="M229 0h-154v674h154v-674zM75 721h-139l156 177h124l156 -177h-139l-79 96z" />
    <glyph glyph-name="Idieresis" unicode="&#xcf;" horiz-adv-x="304" 
d="M229 0h-154v674h154v-674zM375 810q0 -35 -24 -58.5t-59 -23.5q-36 0 -59.5 23.5t-23.5 58.5q0 34 23.5 57.5t59.5 23.5q35 0 59 -23.5t24 -57.5zM106 810q0 -35 -23.5 -58.5t-58.5 -23.5q-36 0 -59.5 23.5t-23.5 58.5q0 34 23.5 57.5t59.5 23.5q35 0 58.5 -23.5
t23.5 -57.5z" />
    <glyph glyph-name="Eth" unicode="&#xd0;" horiz-adv-x="749" 
d="M361 0h-230v269h-66v124h66v281h232q152 0 249 -93.5t97 -232.5q0 -162 -95.5 -255t-252.5 -93zM427 269h-138v-143h70q93 0 143.5 58t50.5 164q0 90 -51 144.5t-144 54.5h-69v-154h138v-124z" />
    <glyph glyph-name="Ntilde" unicode="&#xd1;" horiz-adv-x="697" 
d="M219 0h-154v674h169l157 -279q33 -59 57.5 -110.5t31.5 -72.5l8 -22q-10 74 -10 205v279h154v-674h-169l-161 279q-32 54 -56.5 106.5t-33.5 77.5l-8 25q15 -90 15 -209v-279zM296 776q-25 0 -39 -8.5t-36 -34.5l-65 64q16 34 47.5 58t68.5 24q36 0 76.5 -17.5
t59.5 -17.5q48 0 70 43l74 -61q-42 -85 -136 -85q-33 0 -69 17.5t-51 17.5z" />
    <glyph glyph-name="Ograve" unicode="&#xd2;" horiz-adv-x="736" 
d="M696 339q0 -155 -89.5 -250.5t-238.5 -95.5q-150 0 -239 95t-89 251q0 155 89.5 250.5t238.5 95.5q150 0 239 -95t89 -251zM205 339q0 -95 44 -150.5t119 -55.5t119 55.5t44 150.5t-44 150.5t-119 55.5t-119 -55.5t-44 -150.5zM438 721h-121l-111 177h146z" />
    <glyph glyph-name="Oacute" unicode="&#xd3;" horiz-adv-x="736" 
d="M696 339q0 -155 -89.5 -250.5t-238.5 -95.5q-150 0 -239 95t-89 251q0 155 89.5 250.5t238.5 95.5q150 0 239 -95t89 -251zM205 339q0 -95 44 -150.5t119 -55.5t119 55.5t44 150.5t-44 150.5t-119 55.5t-119 -55.5t-44 -150.5zM432 721h-121l86 177h146z" />
    <glyph glyph-name="Ocircumflex" unicode="&#xd4;" horiz-adv-x="736" 
d="M696 339q0 -155 -89.5 -250.5t-238.5 -95.5q-150 0 -239 95t-89 251q0 155 89.5 250.5t238.5 95.5q150 0 239 -95t89 -251zM205 339q0 -95 44 -150.5t119 -55.5t119 55.5t44 150.5t-44 150.5t-119 55.5t-119 -55.5t-44 -150.5zM293 721h-139l156 177h124l156 -177h-139
l-79 96z" />
    <glyph glyph-name="Otilde" unicode="&#xd5;" horiz-adv-x="736" 
d="M696 339q0 -155 -89.5 -250.5t-238.5 -95.5q-150 0 -239 95t-89 251q0 155 89.5 250.5t238.5 95.5q150 0 239 -95t89 -251zM205 339q0 -95 44 -150.5t119 -55.5t119 55.5t44 150.5t-44 150.5t-119 55.5t-119 -55.5t-44 -150.5zM310 775q-25 0 -39 -8.5t-36 -34.5l-65 64
q16 34 47.5 58t68.5 24q36 0 76.5 -17.5t59.5 -17.5q48 0 70 43l74 -61q-42 -85 -136 -85q-33 0 -69 17.5t-51 17.5z" />
    <glyph glyph-name="Odieresis" unicode="&#xd6;" horiz-adv-x="736" 
d="M696 339q0 -155 -89.5 -250.5t-238.5 -95.5q-150 0 -239 95t-89 251q0 155 89.5 250.5t238.5 95.5q150 0 239 -95t89 -251zM205 339q0 -95 44 -150.5t119 -55.5t119 55.5t44 150.5t-44 150.5t-119 55.5t-119 -55.5t-44 -150.5zM594 810q0 -35 -24 -58.5t-59 -23.5
q-36 0 -59.5 23.5t-23.5 58.5q0 34 23.5 57.5t59.5 23.5q35 0 59 -23.5t24 -57.5zM325 810q0 -35 -23.5 -58.5t-58.5 -23.5q-36 0 -59.5 23.5t-23.5 58.5q0 34 23.5 57.5t59.5 23.5q35 0 58.5 -23.5t23.5 -57.5z" />
    <glyph glyph-name="multiply" unicode="&#xd7;" horiz-adv-x="530" 
d="M487 209l-92 -92l-130 129l-127 -127l-95 94l128 128l-129 128l92 92l129 -128l127 127l95 -94l-128 -128z" />
    <glyph glyph-name="Oslash" unicode="&#xd8;" horiz-adv-x="714" 
d="M694 339q0 -155 -89.5 -250.5t-238.5 -95.5q-86 0 -156 34l-25 -34h-146l78 106q-79 93 -79 240q0 155 89.5 250.5t238.5 95.5q89 0 159 -35l25 34h145l-79 -107q78 -92 78 -238zM196 339q0 -64 18 -109l227 307q-35 16 -75 16q-78 0 -124 -58t-46 -156zM366 125
q78 0 124 58t46 156q0 61 -17 106l-225 -305q32 -15 72 -15z" />
    <glyph glyph-name="Ugrave" unicode="&#xd9;" horiz-adv-x="668" 
d="M608 261q0 -132 -74 -201.5t-200 -69.5q-124 0 -199 69t-75 195v420h154v-419q0 -125 120 -125t120 130v414h154v-413zM402 721h-121l-111 177h146z" />
    <glyph glyph-name="Uacute" unicode="&#xda;" horiz-adv-x="668" 
d="M608 261q0 -132 -74 -201.5t-200 -69.5q-124 0 -199 69t-75 195v420h154v-419q0 -125 120 -125t120 130v414h154v-413zM408 721h-121l86 177h146z" />
    <glyph glyph-name="Ucircumflex" unicode="&#xdb;" horiz-adv-x="668" 
d="M608 261q0 -132 -74 -201.5t-200 -69.5q-124 0 -199 69t-75 195v420h154v-419q0 -125 120 -125t120 130v414h154v-413zM253 721h-139l156 177h124l156 -177h-139l-79 96z" />
    <glyph glyph-name="Udieresis" unicode="&#xdc;" horiz-adv-x="668" 
d="M608 261q0 -132 -74 -201.5t-200 -69.5q-124 0 -199 69t-75 195v420h154v-419q0 -125 120 -125t120 130v414h154v-413zM556 809q0 -35 -24 -58.5t-59 -23.5q-36 0 -59.5 23.5t-23.5 58.5q0 34 23.5 57.5t59.5 23.5q35 0 59 -23.5t24 -57.5zM287 809q0 -35 -23.5 -58.5
t-58.5 -23.5q-36 0 -59.5 23.5t-23.5 58.5q0 34 23.5 57.5t59.5 23.5q35 0 58.5 -23.5t23.5 -57.5z" />
    <glyph glyph-name="Yacute" unicode="&#xdd;" horiz-adv-x="643" 
d="M397 0h-154v247l-230 427h180l41 -98q32 -76 53 -130t27 -70l5 -16q10 45 88 216l44 98h179l-233 -426v-248zM396 721h-121l86 177h146z" />
    <glyph glyph-name="Thorn" unicode="&#xde;" horiz-adv-x="563" 
d="M297 110h-78v-110h-154v674h154v-110h78q113 0 182 -62.5t69 -159.5q0 -111 -72.5 -171.5t-178.5 -60.5zM285 441h-66v-209h66q53 0 80 29t27 75q0 43 -25 74t-82 31z" />
    <glyph glyph-name="germandbls" unicode="&#xdf;" horiz-adv-x="598" 
d="M578 159q0 -76 -49.5 -122t-131.5 -46q-81 0 -117 24v123q51 -33 101 -33q27 0 44 14t17 38q0 20 -15 38t-36 33t-42.5 31t-36.5 39.5t-15 52.5q0 38 28.5 84.5t28.5 70.5q0 57 -62 57q-90 0 -90 -93v-470h-142v461q0 109 58 169t165 60q98 0 158.5 -50.5t60.5 -120.5
q0 -38 -14 -68t-27.5 -50t-13.5 -35q0 -11 20.5 -28t45 -35t45 -56.5t20.5 -87.5z" />
    <glyph glyph-name="agrave" unicode="&#xe0;" horiz-adv-x="516" 
d="M246 100q31 0 48 19t17 52v37h-47q-37 0 -57 -16t-20 -41q0 -51 59 -51zM318 62q-32 -65 -126 -65q-74 0 -115.5 42t-41.5 105q0 73 53.5 113.5t158.5 40.5h64v35q0 64 -85 64q-82 0 -152 -46v131q60 34 173 34q108 0 161 -46.5t53 -144.5v-325h-143v62zM326 554h-121
l-111 177h146z" />
    <glyph glyph-name="aacute" unicode="&#xe1;" horiz-adv-x="516" 
d="M246 100q31 0 48 19t17 52v37h-47q-37 0 -57 -16t-20 -41q0 -51 59 -51zM318 62q-32 -65 -126 -65q-74 0 -115.5 42t-41.5 105q0 73 53.5 113.5t158.5 40.5h64v35q0 64 -85 64q-82 0 -152 -46v131q60 34 173 34q108 0 161 -46.5t53 -144.5v-325h-143v62zM315 554h-121
l86 177h146z" />
    <glyph glyph-name="acircumflex" unicode="&#xe2;" horiz-adv-x="516" 
d="M246 100q31 0 48 19t17 52v37h-47q-37 0 -57 -16t-20 -41q0 -51 59 -51zM318 62q-32 -65 -126 -65q-74 0 -115.5 42t-41.5 105q0 73 53.5 113.5t158.5 40.5h64v35q0 64 -85 64q-82 0 -152 -46v131q60 34 173 34q108 0 161 -46.5t53 -144.5v-325h-143v62zM177 554h-139
l156 177h124l156 -177h-139l-79 96z" />
    <glyph glyph-name="atilde" unicode="&#xe3;" horiz-adv-x="516" 
d="M246 100q31 0 48 19t17 52v37h-47q-37 0 -57 -16t-20 -41q0 -51 59 -51zM318 62q-32 -65 -126 -65q-74 0 -115.5 42t-41.5 105q0 73 53.5 113.5t158.5 40.5h64v35q0 64 -85 64q-82 0 -152 -46v131q60 34 173 34q108 0 161 -46.5t53 -144.5v-325h-143v62zM198 609
q-25 0 -39 -8.5t-36 -34.5l-65 64q16 34 47.5 58t68.5 24q36 0 76.5 -17.5t59.5 -17.5q48 0 70 43l74 -61q-42 -85 -136 -85q-33 0 -69 17.5t-51 17.5z" />
    <glyph glyph-name="adieresis" unicode="&#xe4;" horiz-adv-x="516" 
d="M246 100q31 0 48 19t17 52v37h-47q-37 0 -57 -16t-20 -41q0 -51 59 -51zM318 62q-32 -65 -126 -65q-74 0 -115.5 42t-41.5 105q0 73 53.5 113.5t158.5 40.5h64v35q0 64 -85 64q-82 0 -152 -46v131q60 34 173 34q108 0 161 -46.5t53 -144.5v-325h-143v62zM482 643
q0 -35 -24 -58.5t-59 -23.5q-36 0 -59.5 23.5t-23.5 58.5q0 34 23.5 57.5t59.5 23.5q35 0 59 -23.5t24 -57.5zM213 643q0 -35 -23.5 -58.5t-58.5 -23.5q-36 0 -59.5 23.5t-23.5 58.5q0 34 23.5 57.5t59.5 23.5q35 0 58.5 -23.5t23.5 -57.5z" />
    <glyph glyph-name="aring" unicode="&#xe5;" horiz-adv-x="516" 
d="M246 100q31 0 48 19t17 52v37h-47q-37 0 -57 -16t-20 -41q0 -51 59 -51zM318 62q-32 -65 -126 -65q-74 0 -115.5 42t-41.5 105q0 73 53.5 113.5t158.5 40.5h64v35q0 64 -85 64q-82 0 -152 -46v131q60 34 173 34q108 0 161 -46.5t53 -144.5v-325h-143v62zM396 679
q0 -56 -40 -96t-96 -40t-96 40t-40 96t40 96t96 40t96 -40t40 -96zM207 682q0 -23 15 -39.5t38 -16.5t38 16.5t15 39.5t-15 39.5t-38 16.5t-38 -16.5t-15 -39.5z" />
    <glyph glyph-name="ae" unicode="&#xe6;" horiz-adv-x="808" 
d="M392 88q-16 -38 -59 -65t-115 -27q-85 0 -131.5 40t-46.5 108q0 73 53.5 113.5t158.5 40.5h64v35q0 64 -85 64q-82 0 -152 -46v131q60 34 163 34q54 0 93.5 -20t55.5 -54q23 33 65 51.5t92 18.5q102 0 161 -59.5t59 -177.5q0 -23 -8 -79h-299q16 -42 53 -65t89 -23
q77 0 134 43v-122q-53 -34 -152 -34q-57 0 -111 23t-82 70zM192 151q0 -51 59 -51q31 0 48 19t17 52v37h-47q-37 0 -57 -16t-20 -41zM554 401q-34 0 -61.5 -26t-36.5 -75h176v11q-7 90 -78 90z" />
    <glyph glyph-name="ccedilla" unicode="&#xe7;" horiz-adv-x="469" 
d="M439 24q-59 -32 -142 -32q-114 0 -188 72.5t-74 187.5q2 114 74 188.5t197 74.5q77 0 133 -29v-125q-53 33 -118 33q-61 0 -99 -36.5t-39 -105.5q4 -67 40 -104t95 -37q63 0 121 35v-122zM369 -125q0 -63 -45.5 -103t-133.5 -40v91q36 0 55.5 17t19.5 47q0 28 -26 62h113
q17 -27 17 -74z" />
    <glyph glyph-name="egrave" unicode="&#xe8;" horiz-adv-x="533" 
d="M458 29q-52 -34 -159 -34q-125 0 -194.5 72.5t-69.5 186.5q0 121 67.5 189.5t166.5 68.5q102 0 161 -59.5t59 -177.5q0 -23 -8 -79h-298q15 -42 52 -65t89 -23q77 0 134 43v-122zM275 401q-35 0 -62 -25.5t-36 -75.5h176v12q-7 89 -78 89zM336 554h-121l-111 177h146z
" />
    <glyph glyph-name="eacute" unicode="&#xe9;" horiz-adv-x="533" 
d="M458 29q-52 -34 -159 -34q-125 0 -194.5 72.5t-69.5 186.5q0 121 67.5 189.5t166.5 68.5q102 0 161 -59.5t59 -177.5q0 -23 -8 -79h-298q15 -42 52 -65t89 -23q77 0 134 43v-122zM275 401q-35 0 -62 -25.5t-36 -75.5h176v12q-7 89 -78 89zM346 553h-121l86 177h146z" />
    <glyph glyph-name="ecircumflex" unicode="&#xea;" horiz-adv-x="533" 
d="M458 29q-52 -34 -159 -34q-125 0 -194.5 72.5t-69.5 186.5q0 121 67.5 189.5t166.5 68.5q102 0 161 -59.5t59 -177.5q0 -23 -8 -79h-298q15 -42 52 -65t89 -23q77 0 134 43v-122zM275 401q-35 0 -62 -25.5t-36 -75.5h176v12q-7 89 -78 89zM190 554h-139l156 177h124
l156 -177h-139l-79 96z" />
    <glyph glyph-name="edieresis" unicode="&#xeb;" horiz-adv-x="533" 
d="M458 29q-52 -34 -159 -34q-125 0 -194.5 72.5t-69.5 186.5q0 121 67.5 189.5t166.5 68.5q102 0 161 -59.5t59 -177.5q0 -23 -8 -79h-298q15 -42 52 -65t89 -23q77 0 134 43v-122zM275 401q-35 0 -62 -25.5t-36 -75.5h176v12q-7 89 -78 89zM501 643q0 -35 -24 -58.5
t-59 -23.5q-36 0 -59.5 23.5t-23.5 58.5q0 34 23.5 57.5t59.5 23.5q35 0 59 -23.5t24 -57.5zM232 643q0 -35 -23.5 -58.5t-58.5 -23.5q-36 0 -59.5 23.5t-23.5 58.5q0 34 23.5 57.5t59.5 23.5q35 0 58.5 -23.5t23.5 -57.5z" />
    <glyph glyph-name="igrave" unicode="&#xec;" horiz-adv-x="276" 
d="M211 0h-146v507h146v-507zM189 554h-121l-111 177h146z" />
    <glyph glyph-name="iacute" unicode="&#xed;" horiz-adv-x="276" 
d="M211 0h-146v507h146v-507zM206 554h-121l86 177h146z" />
    <glyph glyph-name="icircumflex" unicode="&#xee;" horiz-adv-x="276" 
d="M211 0h-146v507h146v-507zM60 554h-139l156 177h124l156 -177h-139l-79 96z" />
    <glyph glyph-name="idieresis" unicode="&#xef;" horiz-adv-x="276" 
d="M211 0h-146v507h146v-507zM356 643q0 -35 -24 -58.5t-59 -23.5q-36 0 -59.5 23.5t-23.5 58.5q0 34 23.5 57.5t59.5 23.5q35 0 59 -23.5t24 -57.5zM87 643q0 -35 -23.5 -58.5t-58.5 -23.5q-36 0 -59.5 23.5t-23.5 58.5q0 34 23.5 57.5t59.5 23.5q35 0 58.5 -23.5
t23.5 -57.5z" />
    <glyph glyph-name="eth" unicode="&#xf0;" horiz-adv-x="557" 
d="M510 289q0 -135 -62 -217t-180 -82q-109 0 -171 62t-62 152q0 89 53.5 143.5t137.5 54.5q82 0 136 -51q-13 86 -62 161l-143 -70v81l97 47q-50 54 -126 104h184q28 -20 57 -47l113 55v-81l-65 -32q45 -63 69 -137.5t24 -142.5zM267 120q38 0 63 25t33 90q-42 44 -97 44
q-39 0 -60.5 -22.5t-21.5 -62.5q0 -33 22.5 -53.5t60.5 -20.5z" />
    <glyph glyph-name="ntilde" unicode="&#xf1;" horiz-adv-x="580" 
d="M525 0h-146v302q0 45 -21 68.5t-59 23.5q-40 0 -66.5 -31.5t-26.5 -94.5v-268h-146v507h146v-86q19 42 58.5 66.5t94.5 24.5q78 0 122 -46.5t44 -136.5v-329zM234 609q-25 0 -39 -8.5t-36 -34.5l-65 64q16 34 47.5 58t68.5 24q36 0 76.5 -17.5t59.5 -17.5q48 0 70 43
l74 -61q-42 -85 -136 -85q-33 0 -69 17.5t-51 17.5z" />
    <glyph glyph-name="ograve" unicode="&#xf2;" horiz-adv-x="567" 
d="M532 256q0 -115 -65.5 -189.5t-182.5 -74.5q-119 0 -184 71.5t-65 183.5q0 117 68 192.5t181 75.5q118 0 183 -73t65 -186zM187 253q0 -65 24.5 -106.5t73.5 -41.5q48 0 71.5 40.5t23.5 105.5q0 149 -97 149q-48 0 -72 -41t-24 -106zM354 553h-121l-111 177h146z" />
    <glyph glyph-name="oacute" unicode="&#xf3;" horiz-adv-x="567" 
d="M532 256q0 -115 -65.5 -189.5t-182.5 -74.5q-119 0 -184 71.5t-65 183.5q0 117 68 192.5t181 75.5q118 0 183 -73t65 -186zM187 253q0 -65 24.5 -106.5t73.5 -41.5q48 0 71.5 40.5t23.5 105.5q0 149 -97 149q-48 0 -72 -41t-24 -106zM356 553h-121l86 177h146z" />
    <glyph glyph-name="ocircumflex" unicode="&#xf4;" horiz-adv-x="567" 
d="M532 256q0 -115 -65.5 -189.5t-182.5 -74.5q-119 0 -184 71.5t-65 183.5q0 117 68 192.5t181 75.5q118 0 183 -73t65 -186zM187 253q0 -65 24.5 -106.5t73.5 -41.5q48 0 71.5 40.5t23.5 105.5q0 149 -97 149q-48 0 -72 -41t-24 -106zM208 553h-139l156 177h124l156 -177
h-139l-79 96z" />
    <glyph glyph-name="otilde" unicode="&#xf5;" horiz-adv-x="567" 
d="M532 256q0 -115 -65.5 -189.5t-182.5 -74.5q-119 0 -184 71.5t-65 183.5q0 117 68 192.5t181 75.5q118 0 183 -73t65 -186zM187 253q0 -65 24.5 -106.5t73.5 -41.5q48 0 71.5 40.5t23.5 105.5q0 149 -97 149q-48 0 -72 -41t-24 -106zM229 609q-25 0 -39 -8.5t-36 -34.5
l-65 64q16 34 47.5 58t68.5 24q36 0 76.5 -17.5t59.5 -17.5q49 0 70 43l74 -61q-43 -85 -136 -85q-33 0 -69 17.5t-51 17.5z" />
    <glyph glyph-name="odieresis" unicode="&#xf6;" horiz-adv-x="567" 
d="M532 256q0 -115 -65.5 -189.5t-182.5 -74.5q-119 0 -184 71.5t-65 183.5q0 117 68 192.5t181 75.5q118 0 183 -73t65 -186zM187 253q0 -65 24.5 -106.5t73.5 -41.5q48 0 71.5 40.5t23.5 105.5q0 149 -97 149q-48 0 -72 -41t-24 -106zM512 644q0 -35 -24 -58.5t-59 -23.5
q-36 0 -59.5 23.5t-23.5 58.5q0 34 23.5 57.5t59.5 23.5q35 0 59 -23.5t24 -57.5zM243 644q0 -35 -23.5 -58.5t-58.5 -23.5q-36 0 -59.5 23.5t-23.5 58.5q0 34 23.5 57.5t59.5 23.5q35 0 58.5 -23.5t23.5 -57.5z" />
    <glyph glyph-name="divide" unicode="&#xf7;" horiz-adv-x="589" 
d="M544 275h-499v130h499v-130zM366 164q0 -31 -22.5 -53.5t-53.5 -22.5t-53.5 22.5t-22.5 53.5t22.5 53.5t53.5 22.5t53.5 -22.5t22.5 -53.5zM366 516q0 -31 -22.5 -53.5t-53.5 -22.5t-53.5 22.5t-22.5 53.5t22.5 53.5t53.5 22.5t53.5 -22.5t22.5 -53.5z" />
    <glyph glyph-name="oslash" unicode="&#xf8;" horiz-adv-x="562" 
d="M532 256q0 -115 -65.5 -189.5t-182.5 -74.5q-63 0 -112 22l-16 -22h-121l57 80q-57 69 -57 175q0 117 68 192.5t181 75.5q59 0 111 -21l15 21h122l-58 -81q58 -68 58 -178zM169 253q0 -36 7 -64l156 217q-23 10 -49 10q-56 0 -85 -45.5t-29 -117.5zM285 89q57 0 85 45
t28 117q0 39 -7 68l-156 -218q21 -12 50 -12z" />
    <glyph glyph-name="ugrave" unicode="&#xf9;" horiz-adv-x="580" 
d="M520 0h-146v81q-40 -85 -154 -85q-78 0 -121.5 43.5t-43.5 128.5v339h146v-306q0 -89 78 -89q95 0 95 127v268h146v-507zM351 553h-121l-111 177h146z" />
    <glyph glyph-name="uacute" unicode="&#xfa;" horiz-adv-x="580" 
d="M520 0h-146v81q-40 -85 -154 -85q-78 0 -121.5 43.5t-43.5 128.5v339h146v-306q0 -89 78 -89q95 0 95 127v268h146v-507zM359 553h-121l86 177h146z" />
    <glyph glyph-name="ucircumflex" unicode="&#xfb;" horiz-adv-x="580" 
d="M520 0h-146v81q-40 -85 -154 -85q-78 0 -121.5 43.5t-43.5 128.5v339h146v-306q0 -89 78 -89q95 0 95 127v268h146v-507zM209 554h-139l156 177h124l156 -177h-139l-79 96z" />
    <glyph glyph-name="udieresis" unicode="&#xfc;" horiz-adv-x="580" 
d="M520 0h-146v81q-40 -85 -154 -85q-78 0 -121.5 43.5t-43.5 128.5v339h146v-306q0 -89 78 -89q95 0 95 127v268h146v-507zM504 643q0 -35 -24 -58.5t-59 -23.5q-36 0 -59.5 23.5t-23.5 58.5q0 34 23.5 57.5t59.5 23.5q35 0 59 -23.5t24 -57.5zM235 643q0 -35 -23.5 -58.5
t-58.5 -23.5q-36 0 -59.5 23.5t-23.5 58.5q0 34 23.5 57.5t59.5 23.5q35 0 58.5 -23.5t23.5 -57.5z" />
    <glyph glyph-name="yacute" unicode="&#xfd;" horiz-adv-x="532" 
d="M344 15q-79 -213 -241 -213q-31 0 -56 5v116q16 -4 34 -4q83 0 120 89l-196 499h159l55 -158q21 -61 34.5 -105t16.5 -58l3 -14q11 40 54 177l50 158h150zM345 554h-121l86 177h146z" />
    <glyph glyph-name="thorn" unicode="&#xfe;" horiz-adv-x="611" 
d="M206 -187h-146v894h146v-278q53 84 153 84q98 0 157.5 -69.5t59.5 -188.5q0 -113 -57.5 -187t-159.5 -74q-103 0 -153 81v-262zM206 259q0 -65 32 -104t82 -39q48 0 78 36.5t30 99.5q0 69 -30.5 104.5t-77.5 35.5q-46 0 -80 -35t-34 -98z" />
    <glyph glyph-name="ydieresis" unicode="&#xff;" horiz-adv-x="532" 
d="M344 15q-79 -213 -241 -213q-31 0 -56 5v116q16 -4 34 -4q83 0 120 89l-196 499h159l55 -158q21 -61 34.5 -105t16.5 -58l3 -14q11 40 54 177l50 158h150zM493 643q0 -35 -24 -58.5t-59 -23.5q-36 0 -59.5 23.5t-23.5 58.5q0 34 23.5 57.5t59.5 23.5q35 0 59 -23.5
t24 -57.5zM224 643q0 -35 -23.5 -58.5t-58.5 -23.5q-36 0 -59.5 23.5t-23.5 58.5q0 34 23.5 57.5t59.5 23.5q35 0 58.5 -23.5t23.5 -57.5z" />
    <glyph glyph-name="Amacron" unicode="&#x100;" horiz-adv-x="690" 
d="M269 286l-7 -24h162l-7 24q-29 98 -47.5 167t-22.5 89l-4 20q-8 -55 -74 -276zM184 0h-161l225 674h194l225 -674h-165l-41 138h-236zM527 761h-356v99h356v-99z" />
    <glyph glyph-name="amacron" unicode="&#x101;" horiz-adv-x="516" 
d="M246 100q31 0 48 19t17 52v37h-47q-37 0 -57 -16t-20 -41q0 -51 59 -51zM318 62q-32 -65 -126 -65q-74 0 -115.5 42t-41.5 105q0 73 53.5 113.5t158.5 40.5h64v35q0 64 -85 64q-82 0 -152 -46v131q60 34 173 34q108 0 161 -46.5t53 -144.5v-325h-143v62zM436 593h-356v99
h356v-99z" />
    <glyph glyph-name="Abreve" unicode="&#x102;" horiz-adv-x="690" 
d="M269 286l-7 -24h162l-7 24q-29 98 -47.5 167t-22.5 89l-4 20q-8 -55 -74 -276zM184 0h-161l225 674h194l225 -674h-165l-41 138h-236zM540 898q0 -93 -54.5 -137t-143.5 -44t-143.5 44t-54.5 137h112q0 -42 23.5 -65.5t62.5 -23.5t62.5 23.5t23.5 65.5h112z" />
    <glyph glyph-name="abreve" unicode="&#x103;" horiz-adv-x="516" 
d="M246 100q31 0 48 19t17 52v37h-47q-37 0 -57 -16t-20 -41q0 -51 59 -51zM318 62q-32 -65 -126 -65q-74 0 -115.5 42t-41.5 105q0 73 53.5 113.5t158.5 40.5h64v35q0 64 -85 64q-82 0 -152 -46v131q60 34 173 34q108 0 161 -46.5t53 -144.5v-325h-143v62zM455 730
q0 -93 -54.5 -137t-143.5 -44t-143.5 44t-54.5 137h112q0 -42 23.5 -65.5t62.5 -23.5t62.5 23.5t23.5 65.5h112z" />
    <glyph glyph-name="Aogonek" unicode="&#x104;" horiz-adv-x="680" 
d="M264 286l-7 -24h162l-7 24q-29 98 -47.5 167t-22.5 89l-4 20q-8 -55 -74 -276zM674 -235q-48 -25 -109 -25q-70 0 -103.5 33t-33.5 84q0 79 69 143l-41 138h-236l-41 -138h-161l225 674h194l225 -674q-118 -73 -118 -130q0 -34 43 -34q44 0 87 30v-101z" />
    <glyph glyph-name="aogonek" unicode="&#x105;" horiz-adv-x="511" 
d="M246 100q31 0 48 19t17 52v37h-47q-37 0 -57 -16t-20 -41q0 -51 59 -51zM473 -235q-48 -25 -109 -25q-70 0 -103.5 33t-33.5 84q0 85 91 153v52q-32 -65 -126 -65q-74 0 -115.5 42t-41.5 105q0 73 53.5 113.5t158.5 40.5h64v35q0 64 -85 64q-82 0 -152 -46v131
q60 34 173 34q108 0 161 -46.5t53 -144.5v-325q-118 -73 -118 -130q0 -34 43 -34q44 0 87 30v-101z" />
    <glyph glyph-name="Cacute" unicode="&#x106;" horiz-adv-x="613" 
d="M563 30q-61 -38 -176 -38q-148 0 -247.5 95.5t-99.5 247.5q0 154 96.5 251t251.5 97q114 0 175 -38v-148q-75 46 -167 46q-81 0 -136 -56.5t-55 -151.5q0 -93 55 -147.5t142 -54.5q94 0 161 48v-151zM425 721h-121l86 177h146z" />
    <glyph glyph-name="cacute" unicode="&#x107;" horiz-adv-x="469" 
d="M439 24q-59 -32 -142 -32q-114 0 -188 72.5t-74 187.5q2 114 74 188.5t197 74.5q77 0 133 -29v-125q-53 33 -118 33q-61 0 -99 -36.5t-39 -105.5q4 -67 40 -104t95 -37q63 0 121 35v-122zM358 553h-121l86 177h146z" />
    <glyph glyph-name="Ccaron" unicode="&#x10c;" horiz-adv-x="613" 
d="M563 30q-61 -38 -176 -38q-148 0 -247.5 95.5t-99.5 247.5q0 154 96.5 251t251.5 97q114 0 175 -38v-148q-75 46 -167 46q-81 0 -136 -56.5t-55 -151.5q0 -93 55 -147.5t142 -54.5q94 0 161 48v-151zM422 721h-124l-156 177h139l79 -96l79 96h139z" />
    <glyph glyph-name="ccaron" unicode="&#x10d;" horiz-adv-x="469" 
d="M439 24q-59 -32 -142 -32q-114 0 -188 72.5t-74 187.5q2 114 74 188.5t197 74.5q77 0 133 -29v-125q-53 33 -118 33q-61 0 -99 -36.5t-39 -105.5q4 -67 40 -104t95 -37q63 0 121 35v-122zM337 553h-124l-156 177h139l79 -96l79 96h139z" />
    <glyph glyph-name="Dcaron" unicode="&#x10e;" horiz-adv-x="683" 
d="M295 0h-230v674h232q152 0 249 -93.5t97 -232.5q0 -162 -95.5 -255t-252.5 -93zM292 547h-69v-421h70q93 0 143.5 58t50.5 164q0 90 -51 144.5t-144 54.5zM382 721h-124l-156 177h139l79 -96l79 96h139z" />
    <glyph glyph-name="dcaron" unicode="&#x10f;" horiz-adv-x="745" 
d="M183 252q0 -61 32 -98.5t78 -37.5q50 0 81 39t31 104q0 63 -33.5 98t-79.5 35t-77.5 -37t-31.5 -103zM551 0h-146v79q-51 -85 -152 -85q-99 0 -158.5 77t-59.5 184q0 120 62 189t157 69q99 0 151 -84v278h146v-707zM705 497h-106l71 211h151z" />
    <glyph glyph-name="Dcroat" unicode="&#x110;" horiz-adv-x="749" 
d="M361 0h-230v269h-66v124h66v281h232q152 0 249 -93.5t97 -232.5q0 -162 -95.5 -255t-252.5 -93zM427 269h-138v-143h70q93 0 143.5 58t50.5 164q0 90 -51 144.5t-144 54.5h-69v-154h138v-124z" />
    <glyph glyph-name="dcroat" unicode="&#x111;" horiz-adv-x="611" 
d="M183 252q0 -61 32 -98.5t78 -37.5q50 0 81 39t31 104q0 63 -33.5 98t-79.5 35t-77.5 -37t-31.5 -103zM551 0h-146v79q-51 -85 -152 -85q-99 0 -158.5 77t-59.5 184q0 120 62 189t157 69q99 0 151 -84v135h-151v82h151v61h146v-61h57v-82h-57v-564z" />
    <glyph glyph-name="Emacron" unicode="&#x112;" horiz-adv-x="544" 
d="M484 0h-419v674h415v-123h-260v-153h232v-122h-232v-153h264v-123zM450 764h-356v99h356v-99z" />
    <glyph glyph-name="emacron" unicode="&#x113;" horiz-adv-x="533" 
d="M458 29q-52 -34 -159 -34q-125 0 -194.5 72.5t-69.5 186.5q0 121 67.5 189.5t166.5 68.5q102 0 161 -59.5t59 -177.5q0 -23 -8 -79h-298q15 -42 52 -65t89 -23q77 0 134 43v-122zM275 401q-35 0 -62 -25.5t-36 -75.5h176v12q-7 89 -78 89zM448 593h-356v99h356v-99z" />
    <glyph glyph-name="Edotaccent" unicode="&#x116;" horiz-adv-x="544" 
d="M484 0h-419v674h415v-123h-260v-153h232v-122h-232v-153h264v-123zM364 810q0 -35 -23.5 -58.5t-58.5 -23.5q-36 0 -59.5 23.5t-23.5 58.5q0 34 23.5 57.5t59.5 23.5q35 0 58.5 -23.5t23.5 -57.5z" />
    <glyph glyph-name="edotaccent" unicode="&#x117;" horiz-adv-x="533" 
d="M458 29q-52 -34 -159 -34q-125 0 -194.5 72.5t-69.5 186.5q0 121 67.5 189.5t166.5 68.5q102 0 161 -59.5t59 -177.5q0 -23 -8 -79h-298q15 -42 52 -65t89 -23q77 0 134 43v-122zM275 401q-35 0 -62 -25.5t-36 -75.5h176v12q-7 89 -78 89zM362 643q0 -35 -23.5 -58.5
t-58.5 -23.5q-36 0 -59.5 23.5t-23.5 58.5q0 34 23.5 57.5t59.5 23.5q35 0 58.5 -23.5t23.5 -57.5z" />
    <glyph glyph-name="Eogonek" unicode="&#x118;" horiz-adv-x="544" 
d="M496 -235q-48 -25 -109 -25q-70 0 -103.5 33t-33.5 84q0 79 79 143h-264v674h415v-123h-260v-153h232v-122h-232v-153h264v-123q-118 -73 -118 -130q0 -34 43 -34q44 0 87 30v-101z" />
    <glyph glyph-name="eogonek" unicode="&#x119;" horiz-adv-x="533" 
d="M275 401q-35 0 -62 -25.5t-36 -75.5h176v12q-7 89 -78 89zM457 -213q-48 -25 -109 -25q-70 0 -103.5 33t-33.5 84q0 63 52 118q-109 10 -168.5 81t-59.5 176q0 121 67.5 189.5t166.5 68.5q102 0 161 -59.5t59 -177.5q0 -23 -8 -79h-298q15 -42 52 -65t89 -23q77 0 134 43
v-122q-2 -2 -7 -4.5l-7 -3.5q-117 -73 -117 -129q0 -34 43 -34q44 0 87 30v-101z" />
    <glyph glyph-name="Ecaron" unicode="&#x11a;" horiz-adv-x="544" 
d="M484 0h-419v674h415v-123h-260v-153h232v-122h-232v-153h264v-123zM341 721h-124l-156 177h139l79 -96l79 96h139z" />
    <glyph glyph-name="ecaron" unicode="&#x11b;" horiz-adv-x="533" 
d="M458 29q-52 -34 -159 -34q-125 0 -194.5 72.5t-69.5 186.5q0 121 67.5 189.5t166.5 68.5q102 0 161 -59.5t59 -177.5q0 -23 -8 -79h-298q15 -42 52 -65t89 -23q77 0 134 43v-122zM275 401q-35 0 -62 -25.5t-36 -75.5h176v12q-7 89 -78 89zM334 553h-124l-156 177h139
l79 -96l79 96h139z" />
    <glyph glyph-name="Gbreve" unicode="&#x11e;" horiz-adv-x="706" 
d="M646 62q-96 -70 -242 -70q-162 0 -263 93t-101 253q0 158 105.5 253t267.5 95q114 0 197 -42v-154q-96 55 -197 55q-95 0 -151 -56.5t-56 -150.5q0 -95 55 -151t150 -56q43 0 85 13v127h-109v131h259v-340zM576 898q0 -93 -54.5 -137t-143.5 -44t-143.5 44t-54.5 137h112
q0 -42 23.5 -65.5t62.5 -23.5t62.5 23.5t23.5 65.5h112z" />
    <glyph glyph-name="gbreve" unicode="&#x11f;" horiz-adv-x="585" 
d="M530 49q0 -122 -73 -183.5t-183 -61.5q-107 0 -187 38v149q70 -56 172 -56q66 0 96 28t30 88v34q-44 -68 -140 -68q-84 0 -144.5 62t-60.5 184q0 108 58.5 178.5t153.5 70.5q90 0 133 -72v67h145v-458zM192 262q0 -63 24 -96t69 -33q47 0 73.5 35.5t26.5 85.5
q0 136 -99 136q-44 0 -69 -34t-25 -94zM509 731q0 -93 -54.5 -137t-143.5 -44t-143.5 44t-54.5 137h112q0 -42 23.5 -65.5t62.5 -23.5t62.5 23.5t23.5 65.5h112z" />
    <glyph glyph-name="uni0122" unicode="&#x122;" horiz-adv-x="706" 
d="M646 62q-96 -70 -242 -70q-162 0 -263 93t-101 253q0 158 105.5 253t267.5 95q114 0 197 -42v-154q-96 55 -197 55q-95 0 -151 -56.5t-56 -150.5q0 -95 55 -151t150 -56q43 0 85 13v127h-109v131h259v-340zM335 -262h-106l71 211h151z" />
    <glyph glyph-name="uni0123" unicode="&#x123;" horiz-adv-x="585" 
d="M530 49q0 -122 -73 -183.5t-183 -61.5q-107 0 -187 38v149q70 -56 172 -56q66 0 96 28t30 88v34q-44 -68 -140 -68q-84 0 -144.5 62t-60.5 184q0 108 58.5 178.5t153.5 70.5q90 0 133 -72v67h145v-458zM192 262q0 -63 24 -96t69 -33q47 0 73.5 35.5t26.5 85.5
q0 136 -99 136q-44 0 -69 -34t-25 -94zM400 554h-151l116 211h106z" />
    <glyph glyph-name="Imacron" unicode="&#x12a;" horiz-adv-x="304" 
d="M229 0h-154v674h154v-674zM330 760h-356v99h356v-99z" />
    <glyph glyph-name="imacron" unicode="&#x12b;" horiz-adv-x="276" 
d="M211 0h-146v507h146v-507zM316 593h-356v99h356v-99z" />
    <glyph glyph-name="Iogonek" unicode="&#x12e;" horiz-adv-x="304" 
d="M241 -235q-48 -25 -109 -25q-70 0 -103.5 33t-33.5 84q0 79 80 144v673h154v-674q-118 -73 -118 -130q0 -34 43 -34q44 0 87 30v-101z" />
    <glyph glyph-name="iogonek" unicode="&#x12f;" horiz-adv-x="276" 
d="M223 654q0 -35 -25 -60t-60 -25t-60 25t-25 60t25 60t60 25t60 -25t25 -60zM223 -235q-48 -25 -109 -25q-70 0 -103.5 33t-33.5 84q0 81 88 150v500h146v-507q-118 -73 -118 -130q0 -34 43 -34q44 0 87 30v-101z" />
    <glyph glyph-name="Idotaccent" unicode="&#x130;" horiz-adv-x="304" 
d="M229 0h-154v674h154v-674zM236 810q0 -35 -23.5 -58.5t-58.5 -23.5q-36 0 -59.5 23.5t-23.5 58.5q0 34 23.5 57.5t59.5 23.5q35 0 58.5 -23.5t23.5 -57.5z" />
    <glyph glyph-name="dotlessi" unicode="&#x131;" horiz-adv-x="276" 
d="M211 0h-146v507h146v-507z" />
    <glyph glyph-name="uni0136" unicode="&#x136;" horiz-adv-x="662" 
d="M645 0h-193l-226 335l218 339h183l-221 -337zM295 -262h-106l71 211h151zM219 0h-154v674h154v-674z" />
    <glyph glyph-name="uni0137" unicode="&#x137;" horiz-adv-x="548" 
d="M206 0h-146v690h146v-410l160 227h168l-176 -243l179 -264h-169l-162 249v-249zM254 -262h-106l71 211h151z" />
    <glyph glyph-name="Lacute" unicode="&#x139;" horiz-adv-x="488" 
d="M468 0h-403v674h154v-539h249v-135zM377 721h-121l86 177h146z" />
    <glyph glyph-name="lacute" unicode="&#x13a;" horiz-adv-x="276" 
d="M211 0h-146v707h146v-707zM196 754h-121l86 177h146z" />
    <glyph glyph-name="uni013B" unicode="&#x13b;" horiz-adv-x="488" 
d="M245 -262h-106l71 211h151zM468 0h-403v674h154v-539h249v-135z" />
    <glyph glyph-name="uni013C" unicode="&#x13c;" horiz-adv-x="276" 
d="M211 0h-146v707h146v-707zM95 -262h-106l71 211h151z" />
    <glyph glyph-name="Lcaron" unicode="&#x13d;" horiz-adv-x="488" 
d="M468 0h-403v674h154v-539h249v-135zM385 488h-106l71 211h151z" />
    <glyph glyph-name="lcaron" unicode="&#x13e;" horiz-adv-x="276" 
d="M211 0h-146v707h146v-707zM375 498h-106l71 211h151z" />
    <glyph glyph-name="Lslash" unicode="&#x141;" horiz-adv-x="563" 
d="M443 383l-164 -92v-156h249v-135h-403v205l-80 -45v121l80 45v348h154v-262l164 92v-121z" />
    <glyph glyph-name="lslash" unicode="&#x142;" horiz-adv-x="341" 
d="M248 0h-146v263l-77 -53v121l77 53v323h146v-224l83 57v-121l-83 -57v-362z" />
    <glyph glyph-name="Nacute" unicode="&#x143;" horiz-adv-x="697" 
d="M219 0h-154v674h169l157 -279q33 -59 57.5 -110.5t31.5 -72.5l8 -22q-10 74 -10 205v279h154v-674h-169l-161 279q-32 54 -56.5 106.5t-33.5 77.5l-8 25q15 -90 15 -209v-279zM423 721h-121l86 177h146z" />
    <glyph glyph-name="nacute" unicode="&#x144;" horiz-adv-x="580" 
d="M525 0h-146v302q0 45 -21 68.5t-59 23.5q-40 0 -66.5 -31.5t-26.5 -94.5v-268h-146v507h146v-86q19 42 58.5 66.5t94.5 24.5q78 0 122 -46.5t44 -136.5v-329zM379 554h-121l86 177h146z" />
    <glyph glyph-name="uni0145" unicode="&#x145;" horiz-adv-x="697" 
d="M219 0h-154v674h169l157 -279q33 -59 57.5 -110.5t31.5 -72.5l8 -22q-10 74 -10 205v279h154v-674h-169l-161 279q-32 54 -56.5 106.5t-33.5 77.5l-8 25q15 -90 15 -209v-279zM315 -262h-106l71 211h151z" />
    <glyph glyph-name="uni0146" unicode="&#x146;" horiz-adv-x="580" 
d="M525 0h-146v302q0 45 -21 68.5t-59 23.5q-40 0 -66.5 -31.5t-26.5 -94.5v-268h-146v507h146v-86q19 42 58.5 66.5t94.5 24.5q78 0 122 -46.5t44 -136.5v-329zM255 -262h-106l71 211h151z" />
    <glyph glyph-name="Ncaron" unicode="&#x147;" horiz-adv-x="697" 
d="M219 0h-154v674h169l157 -279q33 -59 57.5 -110.5t31.5 -72.5l8 -22q-10 74 -10 205v279h154v-674h-169l-161 279q-32 54 -56.5 106.5t-33.5 77.5l-8 25q15 -90 15 -209v-279zM415 721h-124l-156 177h139l79 -96l79 96h139z" />
    <glyph glyph-name="ncaron" unicode="&#x148;" horiz-adv-x="580" 
d="M525 0h-146v302q0 45 -21 68.5t-59 23.5q-40 0 -66.5 -31.5t-26.5 -94.5v-268h-146v507h146v-86q19 42 58.5 66.5t94.5 24.5q78 0 122 -46.5t44 -136.5v-329zM361 554h-124l-156 177h139l79 -96l79 96h139z" />
    <glyph glyph-name="Omacron" unicode="&#x14c;" horiz-adv-x="736" 
d="M696 339q0 -155 -89.5 -250.5t-238.5 -95.5q-150 0 -239 95t-89 251q0 155 89.5 250.5t238.5 95.5q150 0 239 -95t89 -251zM205 339q0 -95 44 -150.5t119 -55.5t119 55.5t44 150.5t-44 150.5t-119 55.5t-119 -55.5t-44 -150.5zM545 760h-356v99h356v-99z" />
    <glyph glyph-name="omacron" unicode="&#x14d;" horiz-adv-x="567" 
d="M532 256q0 -115 -65.5 -189.5t-182.5 -74.5q-119 0 -184 71.5t-65 183.5q0 117 68 192.5t181 75.5q118 0 183 -73t65 -186zM187 253q0 -65 24.5 -106.5t73.5 -41.5q48 0 71.5 40.5t23.5 105.5q0 149 -97 149q-48 0 -72 -41t-24 -106zM462 593h-356v99h356v-99z" />
    <glyph glyph-name="Ohungarumlaut" unicode="&#x150;" horiz-adv-x="736" 
d="M696 339q0 -155 -89.5 -250.5t-238.5 -95.5q-150 0 -239 95t-89 251q0 155 89.5 250.5t238.5 95.5q150 0 239 -95t89 -251zM205 339q0 -95 44 -150.5t119 -55.5t119 55.5t44 150.5t-44 150.5t-119 55.5t-119 -55.5t-44 -150.5zM523 721h-108l94 177h145zM336 721h-108
l86 177h133z" />
    <glyph glyph-name="ohungarumlaut" unicode="&#x151;" horiz-adv-x="567" 
d="M532 256q0 -115 -65.5 -189.5t-182.5 -74.5q-119 0 -184 71.5t-65 183.5q0 117 68 192.5t181 75.5q118 0 183 -73t65 -186zM187 253q0 -65 24.5 -106.5t73.5 -41.5q48 0 71.5 40.5t23.5 105.5q0 149 -97 149q-48 0 -72 -41t-24 -106zM446 554h-108l94 177h145zM259 554
h-108l86 177h133z" />
    <glyph glyph-name="OE" unicode="&#x152;" horiz-adv-x="1000" 
d="M205 339q0 -95 42 -150.5t116 -55.5t116 55.5t42 150.5t-42 150.5t-116 55.5t-116 -55.5t-42 -150.5zM940 0h-419v44q-70 -51 -158 -51q-149 0 -236 94.5t-87 251.5q0 156 87 251t236 95q88 0 158 -50v39h415v-123h-270v-153h242v-122h-242v-153h274v-123z" />
    <glyph glyph-name="oe" unicode="&#x153;" horiz-adv-x="879" 
d="M187 253q0 -65 24.5 -106.5t73.5 -41.5t75.5 41t26.5 105q0 65 -26 107t-78 42q-48 0 -72 -41t-24 -106zM627 401q-35 0 -62 -25.5t-36 -75.5h176l-1 21q-9 80 -77 80zM810 29q-52 -34 -159 -34q-117 0 -191 74q-67 -77 -176 -77q-119 0 -184 71.5t-65 183.5
q0 117 68 192.5t181 75.5q108 0 174 -72q69 69 163 69q102 0 161 -59.5t59 -177.5q0 -23 -8 -79h-298q15 -42 52 -65t89 -23q77 0 134 43v-122z" />
    <glyph glyph-name="Racute" unicode="&#x154;" horiz-adv-x="614" 
d="M295 549h-76v-190h73q100 0 100 98q0 43 -26 67.5t-71 24.5zM219 0h-154v674h233q113 0 181.5 -60t68.5 -156q0 -144 -123 -199l171 -259h-184l-146 234h-47v-234zM355 721h-121l86 177h146z" />
    <glyph glyph-name="racute" unicode="&#x155;" horiz-adv-x="370" 
d="M205 0h-146l1 507h145v-94q14 44 46.5 70.5t75.5 26.5q24 0 38 -4v-138q-24 11 -55 11q-47 0 -76 -34.5t-29 -91.5v-253zM280 554h-121l86 177h146z" />
    <glyph glyph-name="uni0156" unicode="&#x156;" horiz-adv-x="614" 
d="M295 549h-76v-190h73q100 0 100 98q0 43 -26 67.5t-71 24.5zM271 -262h-106l71 211h151zM219 0h-154v674h233q113 0 181.5 -60t68.5 -156q0 -144 -123 -199l171 -259h-184l-146 234h-47v-234z" />
    <glyph glyph-name="uni0157" unicode="&#x157;" horiz-adv-x="370" 
d="M86 -262h-106l71 211h151zM205 0h-146l1 507h145v-94q14 44 46.5 70.5t75.5 26.5q24 0 38 -4v-138q-24 11 -55 11q-47 0 -76 -34.5t-29 -91.5v-253z" />
    <glyph glyph-name="Rcaron" unicode="&#x158;" horiz-adv-x="614" 
d="M295 549h-76v-190h73q100 0 100 98q0 43 -26 67.5t-71 24.5zM219 0h-154v674h233q113 0 181.5 -60t68.5 -156q0 -144 -123 -199l171 -259h-184l-146 234h-47v-234zM378 721h-124l-156 177h139l79 -96l79 96h139z" />
    <glyph glyph-name="rcaron" unicode="&#x159;" horiz-adv-x="370" 
d="M205 0h-146l1 507h145v-94q14 44 46.5 70.5t75.5 26.5q24 0 38 -4v-138q-24 11 -55 11q-47 0 -76 -34.5t-29 -91.5v-253zM274 554h-124l-156 177h139l79 -96l79 96h139z" />
    <glyph glyph-name="Sacute" unicode="&#x15a;" horiz-adv-x="514" 
d="M484 196q0 -91 -67 -147.5t-178 -56.5q-119 0 -194 42v155q91 -66 194 -66q35 0 58 18.5t23 48.5q0 10 -3 19t-11 17t-15.5 13.5t-22 13t-24.5 12.5t-29.5 14t-31.5 14q-65 30 -104.5 74t-39.5 117q0 87 64 140.5t177 53.5q101 0 174 -34v-144q-81 47 -168 47
q-39 0 -59.5 -16t-20.5 -41t25 -44.5t75 -41.5q31 -14 51.5 -24.5t47 -29t42 -39t26.5 -50.5t11 -65zM323 721h-121l86 177h146z" />
    <glyph glyph-name="sacute" unicode="&#x15b;" horiz-adv-x="436" 
d="M406 153q0 -75 -54 -116t-143 -41q-92 0 -154 31v130q69 -48 146 -48q55 0 55 35q0 9 -5 17t-17 15t-22 11.5t-29 12.5t-29 13q-101 48 -101 144q0 74 56.5 115t140.5 41q78 0 130 -21v-125q-53 31 -124 31q-26 0 -40 -10.5t-14 -26.5q0 -9 5 -17t16.5 -15t22 -12.5
t29 -13.5t29.5 -14q46 -24 74 -55.5t28 -80.5zM302 554h-121l86 177h146z" />
    <glyph glyph-name="uni015E" unicode="&#x15e;" horiz-adv-x="514" 
d="M484 196q0 -91 -67 -147.5t-178 -56.5q-119 0 -194 42v155q91 -66 194 -66q35 0 58 18.5t23 48.5q0 10 -3 19t-11 17t-15.5 13.5t-22 13t-24.5 12.5t-29.5 14t-31.5 14q-65 30 -104.5 74t-39.5 117q0 87 64 140.5t177 53.5q101 0 174 -34v-144q-81 47 -168 47
q-39 0 -59.5 -16t-20.5 -41t25 -44.5t75 -41.5q31 -14 51.5 -24.5t47 -29t42 -39t26.5 -50.5t11 -65zM339 -125q0 -63 -45.5 -103t-133.5 -40v91q36 0 55.5 17t19.5 47q0 28 -26 62h113q17 -27 17 -74z" />
    <glyph glyph-name="uni015F" unicode="&#x15f;" horiz-adv-x="436" 
d="M406 153q0 -75 -54 -116t-143 -41q-92 0 -154 31v130q69 -48 146 -48q55 0 55 35q0 9 -5 17t-17 15t-22 11.5t-29 12.5t-29 13q-101 48 -101 144q0 74 56.5 115t140.5 41q78 0 130 -21v-125q-53 31 -124 31q-26 0 -40 -10.5t-14 -26.5q0 -9 5 -17t16.5 -15t22 -12.5
t29 -13.5t29.5 -14q46 -24 74 -55.5t28 -80.5zM299 -125q0 -63 -45.5 -103t-133.5 -40v91q36 0 55.5 17t19.5 47q0 28 -26 62h113q17 -27 17 -74z" />
    <glyph glyph-name="Scaron" unicode="&#x160;" horiz-adv-x="514" 
d="M484 196q0 -91 -67 -147.5t-178 -56.5q-119 0 -194 42v155q91 -66 194 -66q35 0 58 18.5t23 48.5q0 10 -3 19t-11 17t-15.5 13.5t-22 13t-24.5 12.5t-29.5 14t-31.5 14q-65 30 -104.5 74t-39.5 117q0 87 64 140.5t177 53.5q101 0 174 -34v-144q-81 47 -168 47
q-39 0 -59.5 -16t-20.5 -41t25 -44.5t75 -41.5q31 -14 51.5 -24.5t47 -29t42 -39t26.5 -50.5t11 -65zM328 721h-124l-156 177h139l79 -96l79 96h139z" />
    <glyph glyph-name="scaron" unicode="&#x161;" horiz-adv-x="436" 
d="M406 153q0 -75 -54 -116t-143 -41q-92 0 -154 31v130q69 -48 146 -48q55 0 55 35q0 9 -5 17t-17 15t-22 11.5t-29 12.5t-29 13q-101 48 -101 144q0 74 56.5 115t140.5 41q78 0 130 -21v-125q-53 31 -124 31q-26 0 -40 -10.5t-14 -26.5q0 -9 5 -17t16.5 -15t22 -12.5
t29 -13.5t29.5 -14q46 -24 74 -55.5t28 -80.5zM301 553h-124l-156 177h139l79 -96l79 96h139z" />
    <glyph glyph-name="uni0162" unicode="&#x162;" horiz-adv-x="544" 
d="M514 550h-164v-550h-155v550h-165v124h484v-124zM349 -125q0 -63 -45.5 -103t-133.5 -40v91q36 0 55.5 17t19.5 47q0 28 -26 62h113q17 -27 17 -74z" />
    <glyph glyph-name="uni0163" unicode="&#x163;" horiz-adv-x="386" 
d="M356 11q-37 -16 -100 -16q-173 0 -173 173v232h-73v107h73v120h146v-120h118v-107h-118v-233q0 -27 15.5 -41t40.5 -14q40 0 71 20v-121zM289 -125q0 -63 -45.5 -103t-133.5 -40v91q36 0 55.5 17t19.5 47q0 28 -26 62h113q17 -27 17 -74z" />
    <glyph glyph-name="Tcaron" unicode="&#x164;" horiz-adv-x="544" 
d="M514 550h-164v-550h-155v550h-165v124h484v-124zM334 721h-124l-156 177h139l79 -96l79 96h139z" />
    <glyph glyph-name="tcaron" unicode="&#x165;" horiz-adv-x="386" 
d="M356 11q-37 -16 -100 -16q-173 0 -173 173v232h-73v107h73v120h146v-120h118v-107h-118v-233q0 -27 15.5 -41t40.5 -14q40 0 71 20v-121zM386 588h-106l71 211h151z" />
    <glyph glyph-name="Umacron" unicode="&#x16a;" horiz-adv-x="668" 
d="M608 261q0 -132 -74 -201.5t-200 -69.5q-124 0 -199 69t-75 195v420h154v-419q0 -125 120 -125t120 130v414h154v-413zM520 760h-356v99h356v-99z" />
    <glyph glyph-name="umacron" unicode="&#x16b;" horiz-adv-x="580" 
d="M520 0h-146v81q-40 -85 -154 -85q-78 0 -121.5 43.5t-43.5 128.5v339h146v-306q0 -89 78 -89q95 0 95 127v268h146v-507zM464 593h-356v99h356v-99z" />
    <glyph glyph-name="Uring" unicode="&#x16e;" horiz-adv-x="668" 
d="M608 261q0 -132 -74 -201.5t-200 -69.5q-124 0 -199 69t-75 195v420h154v-419q0 -125 120 -125t120 130v414h154v-413zM472 846q0 -56 -40 -96t-96 -40t-96 40t-40 96t40 96t96 40t96 -40t40 -96zM283 849q0 -23 15 -39.5t38 -16.5t38 16.5t15 39.5t-15 39.5t-38 16.5
t-38 -16.5t-15 -39.5z" />
    <glyph glyph-name="uring" unicode="&#x16f;" horiz-adv-x="580" 
d="M520 0h-146v81q-40 -85 -154 -85q-78 0 -121.5 43.5t-43.5 128.5v339h146v-306q0 -89 78 -89q95 0 95 127v268h146v-507zM427 679q0 -56 -40 -96t-96 -40t-96 40t-40 96t40 96t96 40t96 -40t40 -96zM238 682q0 -23 15 -39.5t38 -16.5t38 16.5t15 39.5t-15 39.5t-38 16.5
t-38 -16.5t-15 -39.5z" />
    <glyph glyph-name="Uhungarumlaut" unicode="&#x170;" horiz-adv-x="668" 
d="M608 261q0 -132 -74 -201.5t-200 -69.5q-124 0 -199 69t-75 195v420h154v-419q0 -125 120 -125t120 130v414h154v-413zM485 721h-108l94 177h145zM298 721h-108l86 177h133z" />
    <glyph glyph-name="uhungarumlaut" unicode="&#x171;" horiz-adv-x="580" 
d="M520 0h-146v81q-40 -85 -154 -85q-78 0 -121.5 43.5t-43.5 128.5v339h146v-306q0 -89 78 -89q95 0 95 127v268h146v-507zM445 554h-108l94 177h145zM258 554h-108l86 177h133z" />
    <glyph glyph-name="Uogonek" unicode="&#x172;" horiz-adv-x="668" 
d="M608 261q0 -98 -42.5 -162.5t-117.5 -90.5q-118 -73 -118 -130q0 -34 43 -34q44 0 87 30v-101q-48 -25 -109 -25q-70 0 -103.5 33t-33.5 84q0 68 63 129q-100 15 -158.5 82t-58.5 178v420h154v-419q0 -125 120 -125t120 130v414h154v-413z" />
    <glyph glyph-name="uogonek" unicode="&#x173;" horiz-adv-x="580" 
d="M532 -235q-48 -25 -109 -25q-70 0 -103.5 33t-33.5 84q0 81 88 150v74q-40 -85 -154 -85q-78 0 -121.5 43.5t-43.5 128.5v339h146v-306q0 -89 78 -89q95 0 95 127v268h146v-507q-118 -73 -118 -130q0 -34 43 -34q44 0 87 30v-101z" />
    <glyph glyph-name="Ydieresis" unicode="&#x178;" horiz-adv-x="643" 
d="M397 0h-154v247l-230 427h180l41 -98q32 -76 53 -130t27 -70l5 -16q10 45 88 216l44 98h179l-233 -426v-248zM546 809q0 -35 -24 -58.5t-59 -23.5q-36 0 -59.5 23.5t-23.5 58.5q0 34 23.5 57.5t59.5 23.5q35 0 59 -23.5t24 -57.5zM277 809q0 -35 -23.5 -58.5t-58.5 -23.5
q-36 0 -59.5 23.5t-23.5 58.5q0 34 23.5 57.5t59.5 23.5q35 0 58.5 -23.5t23.5 -57.5z" />
    <glyph glyph-name="Zacute" unicode="&#x179;" horiz-adv-x="621" 
d="M561 0h-501v113l302 437h-296v124h483v-109l-304 -441h316v-124zM393 721h-121l86 177h146z" />
    <glyph glyph-name="zacute" unicode="&#x17a;" horiz-adv-x="479" 
d="M439 0h-399v105l222 290h-213v112h378v-101l-222 -293h234v-113zM321 553h-121l86 177h146z" />
    <glyph glyph-name="Zdotaccent" unicode="&#x17b;" horiz-adv-x="621" 
d="M561 0h-501v113l302 437h-296v124h483v-109l-304 -441h316v-124zM411 810q0 -35 -23.5 -58.5t-58.5 -23.5q-36 0 -59.5 23.5t-23.5 58.5q0 34 23.5 57.5t59.5 23.5q35 0 58.5 -23.5t23.5 -57.5z" />
    <glyph glyph-name="zdotaccent" unicode="&#x17c;" horiz-adv-x="479" 
d="M439 0h-399v105l222 290h-213v112h378v-101l-222 -293h234v-113zM334 642q0 -35 -23.5 -58.5t-58.5 -23.5q-36 0 -59.5 23.5t-23.5 58.5q0 34 23.5 57.5t59.5 23.5q35 0 58.5 -23.5t23.5 -57.5z" />
    <glyph glyph-name="Zcaron" unicode="&#x17d;" horiz-adv-x="621" 
d="M561 0h-501v113l302 437h-296v124h483v-109l-304 -441h316v-124zM382 721h-124l-156 177h139l79 -96l79 96h139z" />
    <glyph glyph-name="zcaron" unicode="&#x17e;" horiz-adv-x="479" 
d="M439 0h-399v105l222 290h-213v112h378v-101l-222 -293h234v-113zM321 554h-124l-156 177h139l79 -96l79 96h139z" />
    <glyph glyph-name="florin" unicode="&#x192;" horiz-adv-x="522" 
d="M270 -42q-15 -98 -66 -156t-138 -58q-61 0 -96 15v118q32 -16 72 -16q38 0 56.5 26.5t26.5 80.5l48 311h-87v107h104l12 79q15 98 66 156t138 58q57 0 86 -10v-118q-28 11 -57 11q-72 0 -88 -107l-11 -69h96v-107h-112z" />
    <glyph glyph-name="uni0218" unicode="&#x218;" horiz-adv-x="514" 
d="M484 196q0 -91 -67 -147.5t-178 -56.5q-119 0 -194 42v155q91 -66 194 -66q35 0 58 18.5t23 48.5q0 10 -3 19t-11 17t-15.5 13.5t-22 13t-24.5 12.5t-29.5 14t-31.5 14q-65 30 -104.5 74t-39.5 117q0 87 64 140.5t177 53.5q101 0 174 -34v-144q-81 47 -168 47
q-39 0 -59.5 -16t-20.5 -41t25 -44.5t75 -41.5q31 -14 51.5 -24.5t47 -29t42 -39t26.5 -50.5t11 -65zM225 -262h-106l71 211h151z" />
    <glyph glyph-name="uni0219" unicode="&#x219;" horiz-adv-x="436" 
d="M406 153q0 -75 -54 -116t-143 -41q-92 0 -154 31v130q69 -48 146 -48q55 0 55 35q0 9 -5 17t-17 15t-22 11.5t-29 12.5t-29 13q-101 48 -101 144q0 74 56.5 115t140.5 41q78 0 130 -21v-125q-53 31 -124 31q-26 0 -40 -10.5t-14 -26.5q0 -9 5 -17t16.5 -15t22 -12.5
t29 -13.5t29.5 -14q46 -24 74 -55.5t28 -80.5zM185 -262h-106l71 211h151z" />
    <glyph glyph-name="uni021A" unicode="&#x21a;" horiz-adv-x="544" 
d="M231 -262h-106l71 211h151zM514 550h-164v-550h-155v550h-165v124h484v-124z" />
    <glyph glyph-name="uni021B" unicode="&#x21b;" horiz-adv-x="386" 
d="M356 11q-37 -16 -100 -16q-173 0 -173 173v232h-73v107h73v120h146v-120h118v-107h-118v-233q0 -27 15.5 -41t40.5 -14q40 0 71 20v-121zM214 -262h-106l71 211h151z" />
    <glyph glyph-name="circumflex" unicode="&#x2c6;" horiz-adv-x="500" 
d="M171 621h-139l156 177h124l156 -177h-139l-79 96z" />
    <glyph glyph-name="caron" unicode="&#x2c7;" horiz-adv-x="500" 
d="M312 621h-124l-156 177h139l79 -96l79 96h139z" />
    <glyph glyph-name="uni02C9" unicode="&#x2c9;" horiz-adv-x="500" 
d="M428 651h-356v99h356v-99z" />
    <glyph glyph-name="breve" unicode="&#x2d8;" horiz-adv-x="500" 
d="M448 798q0 -93 -54.5 -137t-143.5 -44t-143.5 44t-54.5 137h112q0 -42 23.5 -65.5t62.5 -23.5t62.5 23.5t23.5 65.5h112z" />
    <glyph glyph-name="dotaccent" unicode="&#x2d9;" horiz-adv-x="500" 
d="M332 711q0 -35 -23.5 -58.5t-58.5 -23.5q-36 0 -59.5 23.5t-23.5 58.5q0 34 23.5 57.5t59.5 23.5q35 0 58.5 -23.5t23.5 -57.5z" />
    <glyph glyph-name="ring" unicode="&#x2da;" horiz-adv-x="500" 
d="M386 710q0 -56 -40 -96t-96 -40t-96 40t-40 96t40 96t96 40t96 -40t40 -96zM197 713q0 -23 15 -39.5t38 -16.5t38 16.5t15 39.5t-15 39.5t-38 16.5t-38 -16.5t-15 -39.5z" />
    <glyph glyph-name="ogonek" unicode="&#x2db;" horiz-adv-x="500" 
d="M373 -221q-48 -25 -109 -25q-70 0 -103.5 33t-33.5 84q0 39 20 75t52 62t59 42t54 28l49 -64q-118 -73 -118 -130q0 -34 43 -34q44 0 87 30v-101z" />
    <glyph glyph-name="tilde" unicode="&#x2dc;" horiz-adv-x="500" 
d="M192 656q-25 0 -39 -8.5t-36 -34.5l-65 64q16 34 47.5 58t68.5 24q36 0 76.5 -17.5t59.5 -17.5q48 0 70 43l74 -61q-42 -85 -136 -85q-33 0 -69 17.5t-51 17.5z" />
    <glyph glyph-name="hungarumlaut" unicode="&#x2dd;" horiz-adv-x="500" 
d="M332 621h-108l94 177h145zM145 621h-108l86 177h133z" />
    <glyph glyph-name="pi" unicode="&#x3c0;" horiz-adv-x="606" 
d="M596 400h-80v-400h-146v400h-124v-184q0 -121 -48.5 -168.5t-158.5 -47.5v119q34 0 47.5 16.5t13.5 65.5v199h-80v107h576v-107z" />
    <glyph glyph-name="danda" unicode="&#x964;" horiz-adv-x="477" 
d="M357 0h-142v671h142v-671z" />
    <glyph glyph-name="doubledanda" unicode="&#x965;" horiz-adv-x="727" 
d="M607 0h-142v671h142v-671zM357 0h-142v671h142v-671z" />
    <glyph glyph-name="gjCandrabindu" unicode="&#xa81;" horiz-adv-x="0" 
d="M107 942q0 -103 -68 -154t-173 -51t-173 51t-68 154h134q0 -46 27.5 -73t79.5 -27t79.5 27t27.5 73h134zM-134 877q-12 0 -23 3.5t-19.5 10t-15 15.5t-10 19.5t-3.5 22.5q0 30 20.5 50.5t50.5 20.5t50.5 -20.5t20.5 -50.5q0 -19 -9.5 -35.5t-25.5 -26t-36 -9.5z" />
    <glyph glyph-name="gjAnusvara" unicode="&#xa82;" horiz-adv-x="0" 
d="M-134 738q-34 0 -58 24t-24 58t24 58t58 24t58 -24t24 -58t-24 -58t-58 -24z" />
    <glyph glyph-name="gjVisarga" unicode="&#xa83;" horiz-adv-x="280" 
d="M140 419q-34 0 -58 23.5t-24 58.5t24 58.5t58 23.5t58 -23.5t24 -58.5t-24 -58.5t-58 -23.5zM140 88q-34 0 -58 24t-24 58t24 58t58 24t58 -24t24 -58t-24 -58t-58 -24z" />
    <glyph glyph-name="gjA" unicode="&#xa85;" horiz-adv-x="941" 
d="M736 671h142v-671h-142v300h-127q-20 -87 -85 -140.5t-173 -53.5q-99 0 -172 51.5t-90 154.5h-66v119h143q35 0 61 14.5t26 48.5q0 30 -25 47t-63 17q-43 0 -82 -12v120q48 12 96 12q92 0 155 -50t63 -139q0 -74 -47 -119.5t-122 -54.5q7 -42 40 -65.5t80 -23.5
q66 0 96.5 43.5t30.5 112.5v135h142v-100h119v254z" />
    <glyph glyph-name="gjAA" unicode="&#xa86;" horiz-adv-x="1209" 
d="M736 671h142v-671h-142v300h-127q-20 -87 -85 -140.5t-173 -53.5q-99 0 -172 51.5t-90 154.5h-66v119h143q35 0 61 14.5t26 48.5q0 30 -25 47t-63 17q-43 0 -82 -12v120q48 12 96 12q92 0 155 -50t63 -139q0 -74 -47 -119.5t-122 -54.5q7 -42 40 -65.5t80 -23.5
q66 0 96.5 43.5t30.5 112.5v135h142v-100h119v254zM1004 671h142v-671h-142v671z" />
    <glyph glyph-name="gjI" unicode="&#xa87;" horiz-adv-x="671" 
d="M342 408v-119h-55q-40 0 -68.5 -20.5t-28.5 -62.5t34.5 -67t86.5 -25q65 0 107 43.5t42 126.5v305q0 66 43.5 104t105.5 38q18 0 35.5 -1.5t25.5 -3.5l9 -2v-117q-16 7 -33 7q-44 0 -44 -47v-290q0 -136 -79 -210t-202 -74q-118 0 -197 52t-79 145q0 67 41.5 106
t110.5 52q-64 13 -103 52.5t-39 106.5q0 84 64.5 129.5t163.5 45.5q53 0 95 -8v-121q-38 8 -76 8q-45 0 -73.5 -20.5t-28.5 -58.5q0 -37 26 -55.5t62 -18.5h54z" />
    <glyph glyph-name="gjII" unicode="&#xa88;" horiz-adv-x="671" 
d="M602 701v-424q0 -136 -79 -210t-202 -74q-118 0 -197 52t-79 145q0 67 41.5 106t110.5 52q-64 13 -103 52.5t-39 106.5q0 84 64.5 129.5t163.5 45.5q53 0 95 -8v-121q-38 8 -76 8q-45 0 -73.5 -20.5t-28.5 -58.5q0 -37 26 -55.5t62 -18.5h54v-119h-55q-40 0 -68.5 -20.5
t-28.5 -62.5t34.5 -67t86.5 -25q65 0 107 43.5t42 126.5v439q0 66 43.5 104t105.5 38q18 0 35.5 -1.5t25.5 -3.5l9 -2v-117q-16 7 -33 7q-44 0 -44 -47z" />
    <glyph glyph-name="gjU" unicode="&#xa89;" horiz-adv-x="683" 
d="M643 184q0 -88 -67 -139.5t-177 -51.5q-89 0 -160.5 34t-116.5 92.5t-68.5 134t-23.5 161.5q0 128 42 230t132 166t217 64q95 0 174 -33v-126q-83 37 -162 37q-129 0 -195 -96.5t-66 -253.5q0 -57 12 -106.5t36.5 -91.5t67.5 -66t101 -24q49 0 79 24.5t30 65.5
q0 42 -29 62.5t-70 20.5h-61v119h62q35 0 61.5 18t26.5 53q0 37 -25.5 54.5t-63.5 17.5q-30 0 -61 -12v121q36 12 81 12q89 0 151.5 -46.5t62.5 -129.5q0 -58 -36 -97t-99 -52q65 -15 105 -58t40 -104z" />
    <glyph glyph-name="gjUU" unicode="&#xa8a;" horiz-adv-x="947" 
d="M643 184q0 -88 -67 -139.5t-177 -51.5q-89 0 -160.5 34t-116.5 92.5t-68.5 134t-23.5 161.5q0 130 48.5 233.5t146.5 165.5t232 62q202 0 314.5 -123.5t112.5 -310.5v-442h-142v432q0 140 -71.5 230.5t-214.5 90.5q-139 0 -211.5 -98.5t-72.5 -251.5q0 -57 12 -106.5
t36.5 -91.5t67.5 -66t101 -24q49 0 79 24.5t30 65.5q0 42 -29 62.5t-70 20.5h-61v119h62q35 0 61.5 18t26.5 53q0 37 -25.5 54.5t-63.5 17.5q-30 0 -61 -12v121q36 12 81 12q89 0 151.5 -46.5t62.5 -129.5q0 -58 -36 -97t-99 -52q65 -15 105 -58t40 -104z" />
    <glyph glyph-name="gjvR" unicode="&#xa8b;" horiz-adv-x="993" 
d="M451 671h142v-195q66 39 96 70.5t30 69.5h138q0 -76 -57 -133l62 -39q111 -69 111 -176q0 -71 -52.5 -123t-149.5 -52q-41 0 -83 14v119q36 -14 70 -14q32 0 54 15t22 45q0 28 -20 50.5t-61 46.5l-59 34q-6 -4 -17.5 -11t-17.5 -10l-66 -40v-342h-142v256l-310 -189
l-77 106l269 154q-49 141 -161 141q-73 0 -147 -43v128q71 37 157 37q85 0 152 -52t106 -150l11 6v277z" />
    <glyph glyph-name="gjEcandra" unicode="&#xa8d;" horiz-adv-x="941" 
d="M1048 942q0 -103 -68 -154t-173 -51t-173 51t-68 154h134q0 -46 27.5 -73t79.5 -27t79.5 27t27.5 73h134zM736 671h142v-671h-142v300h-127q-20 -87 -85 -140.5t-173 -53.5q-99 0 -172 51.5t-90 154.5h-66v119h143q35 0 61 14.5t26 48.5q0 30 -25 47t-63 17
q-43 0 -82 -12v120q48 12 96 12q92 0 155 -50t63 -139q0 -74 -47 -119.5t-122 -54.5q7 -42 40 -65.5t80 -23.5q66 0 96.5 43.5t30.5 112.5v135h142v-100h119v254z" />
    <glyph glyph-name="gjE" unicode="&#xa8f;" horiz-adv-x="941" 
d="M736 671h142v-671h-142v300h-127q-20 -87 -85 -140.5t-173 -53.5q-99 0 -172 51.5t-90 154.5h-66v119h143q35 0 61 14.5t26 48.5q0 30 -25 47t-63 17q-43 0 -82 -12v120q48 12 96 12q92 0 155 -50t63 -139q0 -74 -47 -119.5t-122 -54.5q7 -42 40 -65.5t80 -23.5
q66 0 96.5 43.5t30.5 112.5v135h142v-100h119v254zM520 875v118q40 9 78 9q116 0 172 -94l103 -169h-133l-80 105q-31 41 -79 41q-28 0 -61 -10z" />
    <glyph glyph-name="gjAI" unicode="&#xa90;" horiz-adv-x="941" 
d="M877 739h-141l-14 15q-53 57 -151 57q-50 0 -107 -20v113q54 16 99 16q129 0 212 -118h4l-43 81q-37 68 -110 68q-19 0 -39 -5v112q32 6 54 6q156 0 202 -184zM736 671h142v-671h-142v300h-127q-20 -87 -85 -140.5t-173 -53.5q-99 0 -172 51.5t-90 154.5h-66v119h143
q35 0 61 14.5t26 48.5q0 30 -25 47t-63 17q-43 0 -82 -12v120q48 12 96 12q92 0 155 -50t63 -139q0 -74 -47 -119.5t-122 -54.5q7 -42 40 -65.5t80 -23.5q66 0 96.5 43.5t30.5 112.5v135h142v-100h119v254z" />
    <glyph glyph-name="gjOcandra" unicode="&#xa91;" horiz-adv-x="1209" 
d="M736 671h142v-671h-142v300h-127q-20 -87 -85 -140.5t-173 -53.5q-99 0 -172 51.5t-90 154.5h-66v119h143q35 0 61 14.5t26 48.5q0 30 -25 47t-63 17q-43 0 -82 -12v120q48 12 96 12q92 0 155 -50t63 -139q0 -74 -47 -119.5t-122 -54.5q7 -42 40 -65.5t80 -23.5
q66 0 96.5 43.5t30.5 112.5v135h142v-100h119v254zM1004 671h142v-671h-142v671zM1182 942q0 -103 -68 -154t-173 -51t-173 51t-68 154h134q0 -46 27.5 -73t79.5 -27t79.5 27t27.5 73h134z" />
    <glyph glyph-name="gjO" unicode="&#xa93;" horiz-adv-x="1209" 
d="M736 671h142v-671h-142v300h-127q-20 -87 -85 -140.5t-173 -53.5q-99 0 -172 51.5t-90 154.5h-66v119h143q35 0 61 14.5t26 48.5q0 30 -25 47t-63 17q-43 0 -82 -12v120q48 12 96 12q92 0 155 -50t63 -139q0 -74 -47 -119.5t-122 -54.5q7 -42 40 -65.5t80 -23.5
q66 0 96.5 43.5t30.5 112.5v135h142v-100h119v254zM1004 671h142v-671h-142v671zM788 875v118q40 9 78 9q116 0 172 -94l103 -169h-133l-80 105q-31 41 -79 41q-28 0 -61 -10z" />
    <glyph glyph-name="gjAU" unicode="&#xa94;" horiz-adv-x="1209" 
d="M736 671h142v-671h-142v300h-127q-20 -87 -85 -140.5t-173 -53.5q-99 0 -172 51.5t-90 154.5h-66v119h143q35 0 61 14.5t26 48.5q0 30 -25 47t-63 17q-43 0 -82 -12v120q48 12 96 12q92 0 155 -50t63 -139q0 -74 -47 -119.5t-122 -54.5q7 -42 40 -65.5t80 -23.5
q66 0 96.5 43.5t30.5 112.5v135h142v-100h119v254zM1004 671h142v-671h-142v671zM1145 739h-141l-14 15q-53 57 -151 57q-50 0 -107 -20v113q54 16 99 16q129 0 212 -118h4l-43 81q-37 68 -110 68q-19 0 -39 -5v112q32 6 54 6q156 0 202 -184z" />
    <glyph glyph-name="gjKA" unicode="&#xa95;" horiz-adv-x="581" 
d="M293 -7q-130 0 -228 46v130q108 -54 215 -54q42 0 77.5 17t35.5 56q0 40 -30 61.5t-85 38.5l-246 -62v122l100 23q-66 47 -66 127q0 85 66 132.5t176 47.5q96 0 177 -24v-124q-88 26 -172 26q-48 0 -76.5 -18t-28.5 -53q0 -47 63 -74l275 69v-122l-108 -24
q97 -50 97 -153q0 -83 -68 -135.5t-174 -52.5z" />
    <glyph glyph-name="gjKHA" unicode="&#xa96;" horiz-adv-x="837" 
d="M632 671h142v-671h-142v299h-129q-9 -83 -62 -127.5t-142 -44.5q-96 0 -150 53t-54 149v187q0 38 -40 38q-16 0 -37 -7v117q29 7 70 7q62 0 105.5 -38t43.5 -104v-217q0 -67 62 -67q63 0 63 67v205h142v-101h128v255z" />
    <glyph glyph-name="gjGA" unicode="&#xa97;" horiz-adv-x="676" 
d="M471 671h142v-671h-142v671zM132 678q106 0 182 -69.5t76 -182.5t-76 -182.5t-182 -69.5q-48 0 -99 17v123q40 -17 85 -17q57 0 92 36t35 93q0 58 -35 94t-92 36q-37 0 -70 -13v123q42 12 84 12z" />
    <glyph glyph-name="gjGHA" unicode="&#xa98;" horiz-adv-x="656" 
d="M451 671h142v-671h-142v151q-58 -75 -180 -75q-91 0 -158.5 46.5t-67.5 123.5q0 60 39 95.5t107 47.5q-59 13 -96 48.5t-37 95.5q0 68 56 108.5t141 40.5q57 0 114 -12v-117q-44 11 -86 11q-32 0 -56.5 -14.5t-24.5 -47.5q0 -30 21.5 -45t52.5 -15h57v-119h-70
q-31 0 -52 -16.5t-21 -42.5q0 -33 27.5 -51.5t73.5 -18.5q74 0 117 40.5t43 114.5v322z" />
    <glyph glyph-name="gjNGA" unicode="&#xa99;" horiz-adv-x="643" 
d="M337 392q181 -51 181 -201q0 -87 -68.5 -142.5t-176.5 -55.5q-130 0 -228 56v130q108 -64 226 -64q45 0 73.5 20t28.5 53q0 23 -9.5 39.5t-31 27.5t-38 16.5t-48.5 13.5q-39 10 -69.5 22.5t-63.5 35.5t-51.5 60t-18.5 85q0 90 67 140t178 50q97 0 178 -24v-124
q-89 26 -173 26q-48 0 -76.5 -18t-28.5 -53q0 -19 10 -33.5t30.5 -24.5t35.5 -15.5t41.5 -12t31.5 -7.5zM551 342q-35 0 -58.5 24t-23.5 58t23.5 58t58.5 24t58.5 -24t23.5 -58t-23.5 -58t-58.5 -24z" />
    <glyph glyph-name="gjCA" unicode="&#xa9a;" horiz-adv-x="702" 
d="M23 312v119h163q35 0 61 14.5t26 48.5q0 30 -25 47t-63 17q-55 0 -103 -13v120q63 13 117 13q92 0 155 -50t63 -139q0 -81 -55 -127t-141 -50q5 -50 40 -75t87 -25q66 0 107.5 38t41.5 97v324h142v-671h-142v164q-25 -33 -69.5 -52.5t-95.5 -19.5q-93 0 -162 58.5
t-81 161.5h-66z" />
    <glyph glyph-name="gjCHA" unicode="&#xa9b;" horiz-adv-x="810" 
d="M341 116q129 0 214 84.5t85 201.5q0 115 -50 115q-51 0 -51 -100q0 -68 34 -128h-137q-38 68 -38 146q0 88 48 146t136 58q82 0 140 -65.5t58 -185.5q0 -112 -61 -204t-157 -141.5t-202 -49.5q-139 0 -225 55t-86 151q0 62 39.5 98t99.5 48q-65 14 -106.5 56t-41.5 104
q0 82 65.5 127.5t156.5 45.5q47 0 95 -11v-120q-42 10 -76 10q-43 0 -69.5 -19t-26.5 -56q0 -39 27.5 -57.5t64.5 -18.5h61v-119h-47q-40 0 -68.5 -20t-28.5 -60q0 -47 45 -69t102 -22z" />
    <glyph glyph-name="gjJA" unicode="&#xa9c;" horiz-adv-x="748" 
d="M774 671v-11l-209 -226q116 -147 116 -259q0 -75 -58.5 -128.5t-158.5 -53.5q-88 0 -154.5 50.5t-66.5 143.5q0 59 30 110.5t103 125.5l14 14q-55 61 -94.5 90t-76.5 29q-26 0 -44 -15.5t-18 -42.5q0 -25 18.5 -42t46.5 -17q23 0 42 7v-116q-23 -10 -67 -10
q-79 0 -130.5 52t-51.5 124q0 79 55 130.5t139 51.5q76 0 141 -38.5t132 -108.5l138 140h154zM462 112q31 0 54.5 22t23.5 55q0 64 -64 148l-18 -19q-34 -37 -51.5 -64t-20 -39t-2.5 -30q0 -29 22 -51t56 -22z" />
    <glyph glyph-name="gjJHA" unicode="&#xa9d;" horiz-adv-x="786" 
d="M352 19v123q48 -19 102 -19q60 0 102 32.5t42 92.5q0 63 -38.5 94.5t-95.5 31.5q-40 0 -79 -16q-22 -85 -91.5 -134.5t-158.5 -49.5q-48 0 -102 16v123q43 -16 82 -16q56 0 94.5 35t38.5 94q0 58 -35 94t-92 36q-37 0 -70 -13v123q42 12 84 12q91 0 161.5 -52t90.5 -141
q44 11 91 11q9 0 31 -2l81 177h156l-103 -225q100 -71 100 -200q0 -108 -73 -177t-188 -69q-73 0 -130 19z" />
    <glyph glyph-name="gjNYA" unicode="&#xa9e;" horiz-adv-x="695" 
d="M490 671h142v-671h-142v300h-105q-28 -72 -94.5 -114t-147.5 -42q-59 0 -117 24v123q45 -24 103 -24q57 0 92 34.5t35 89.5t-35 90t-92 35q-37 0 -70 -13v123q42 12 84 12q100 0 174 -60.5t83 -160.5h90v254z" />
    <glyph glyph-name="gjTTA" unicode="&#xa9f;" horiz-adv-x="550" 
d="M92 512v134q73 32 174 32t171 -55.5t70 -145.5q0 -132 -159 -183q-11 -4 -41 -12t-46.5 -14t-37 -16.5t-30.5 -27t-10 -37.5q0 -28 20 -45.5t42 -22.5t47 -5q110 0 209 54v-134q-81 -42 -205 -42q-111 0 -185 55.5t-74 155.5q0 142 193 194q29 8 41 11.5t33.5 12t31 16.5
t17.5 20.5t8 27.5q0 38 -32.5 54t-74.5 16q-85 0 -162 -43z" />
    <glyph glyph-name="gjTTHA" unicode="&#xaa0;" horiz-adv-x="613" 
d="M310 112q60 0 95 25t35 66q0 40 -35 64.5t-95 24.5q-61 0 -96.5 -25t-35.5 -65t35.5 -65t96.5 -25zM583 203q0 -93 -76.5 -152t-198.5 -59q-121 0 -197 59t-76 151q0 58 33 101.5t92 67.5q-77 51 -77 131q0 85 67.5 130.5t177.5 45.5q97 0 178 -24v-124q-89 26 -173 26
q-105 0 -105 -65q0 -18 10.5 -31.5t31.5 -22.5t39 -14t48 -11.5t44 -10.5q79 -22 130.5 -70t51.5 -128z" />
    <glyph glyph-name="gjDDA" unicode="&#xaa1;" horiz-adv-x="549" 
d="M466 653v-128q-76 30 -164 30q-114 0 -114 -70q0 -15 8 -27.5t17.5 -20.5t31 -16.5t33.5 -12t41 -11.5q200 -53 200 -201q0 -98 -71 -151t-188 -53q-130 0 -215 45v134q104 -57 219 -57q44 0 76.5 18.5t32.5 56.5q0 21 -10.5 36.5t-32 26.5t-39 17t-48 13.5t-42.5 11.5
q-159 51 -159 186q0 91 65.5 144.5t179.5 53.5q108 0 179 -25z" />
    <glyph glyph-name="gjDDHA" unicode="&#xaa2;" horiz-adv-x="605" 
d="M467 671q24 -31 24 -79q0 -54 -33 -93t-79.5 -63.5t-93 -48.5t-79.5 -61t-33 -87q0 -61 43.5 -94t113.5 -33q47 0 84.5 18.5t37.5 62.5q0 22 -12 34.5t-28 12.5q-18 0 -29 -12.5t-11 -30.5q0 -17 5 -29h-123q-12 24 -12 57q0 62 49 97.5t118 35.5q83 0 133 -48.5
t50 -123.5q0 -89 -75.5 -141t-186.5 -52q-124 0 -211.5 72t-87.5 189q0 57 23.5 103.5t59 74.5t76.5 53t76.5 42t59 39t23.5 47q0 30 -23 58h141z" />
    <glyph glyph-name="gjNNA" unicode="&#xaa3;" horiz-adv-x="890" 
d="M685 671h142v-671h-142v671zM205 671v-398q0 -85 56.5 -121.5t145.5 -36.5q50 0 102 12.5t83 28.5v-125q-83 -38 -175 -38q-55 0 -104.5 9.5t-96 32.5t-80 57t-53.5 86.5t-20 118.5v374h142zM381 671q102 0 161.5 -63t59.5 -148t-59 -148t-162 -63q-43 0 -75 10v120
q25 -8 56 -8q48 0 75 26.5t27 62.5t-27 62.5t-75 26.5q-31 0 -56 -8v120q32 10 75 10z" />
    <glyph glyph-name="gjTA" unicode="&#xaa4;" horiz-adv-x="616" 
d="M411 671h142v-671h-142v388h-109q-61 0 -95.5 -36.5t-34.5 -102.5q0 -61 27 -95.5t79 -34.5q16 0 36 3v-117q-25 -5 -50 -5q-103 0 -168.5 70t-65.5 182q0 120 70.5 187t197.5 67h113v165z" />
    <glyph glyph-name="gjTHA" unicode="&#xaa5;" horiz-adv-x="695" 
d="M490 671h142v-671h-142v181q-59 -75 -178 -75q-105 0 -185.5 70.5t-101.5 190.5q142 29 199.5 62t57.5 84q0 25 -13 38t-30 13q-47 0 -47 -54q0 -24 11 -53h-132q-11 33 -11 67q0 69 47 113t127 44q81 0 129.5 -48t48.5 -126q0 -83 -64 -141t-156 -80q35 -62 128 -62
q66 0 118 37.5t52 113.5v296z" />
    <glyph glyph-name="gjDA" unicode="&#xaa6;" horiz-adv-x="494" 
d="M484 25q-86 -32 -177 -32q-102 0 -182 54t-80 149q0 62 40.5 101.5t102.5 51.5q-57 15 -95 55.5t-38 99.5q0 84 65.5 129t162.5 45q88 0 165 -23v-123q-77 24 -146 24q-46 0 -74 -19.5t-28 -57.5q0 -37 26 -55.5t62 -18.5h99v-119h-100q-40 0 -68.5 -20.5t-28.5 -62.5
q0 -44 34.5 -66t87.5 -22q79 0 172 35v-125z" />
    <glyph glyph-name="gjDHA" unicode="&#xaa7;" horiz-adv-x="664" 
d="M294 740v-11q-94 -87 -94 -162q0 -88 98 -88h45v-116h-61q-41 0 -66.5 -23t-25.5 -60q0 -40 31 -62t76 -22q71 0 116.5 42.5t45.5 108.5v324h142v-671h-142v146q-69 -70 -183 -70q-94 0 -162.5 51.5t-68.5 139.5q0 69 44 107t105 51q-57 16 -96.5 57.5t-39.5 105.5
q0 85 67 152h169z" />
    <glyph glyph-name="gjNA" unicode="&#xaa8;" horiz-adv-x="740" 
d="M535 671h142v-671h-142v391h-130q49 -49 49 -118q0 -78 -58 -128.5t-152 -50.5q-97 0 -156.5 59.5t-59.5 146.5q0 94 61 150t164 56h282v165zM170 300q0 -39 20.5 -63.5t52.5 -24.5q33 0 53.5 24.5t20.5 63.5t-20.5 63.5t-52.5 24.5q-33 0 -53.5 -24.5t-20.5 -63.5z" />
    <glyph glyph-name="gjPA" unicode="&#xaaa;" horiz-adv-x="605" 
d="M400 376v295h142v-671h-142v206q-47 -35 -117 -35q-91 0 -139.5 51t-48.5 153v141q0 38 -40 38q-16 0 -37 -7v117q29 7 70 7q62 0 105.5 -38t43.5 -104v-159q0 -87 77 -87q86 0 86 93z" />
    <glyph glyph-name="gjPHA" unicode="&#xaab;" horiz-adv-x="581" 
d="M329 -3q-67 0 -127 30v-126h-134v278h130q7 -31 36 -48t65 -17q40 0 68.5 19.5t28.5 54.5q0 28 -19 49t-40 30.5t-57 21.5l-248 -63v122l100 23q-66 47 -66 127q0 85 66 132.5t176 47.5q96 0 177 -24v-124q-88 26 -172 26q-48 0 -76.5 -18t-28.5 -53q0 -47 63 -74l275 69
v-122l-106 -24q98 -49 98 -153q0 -87 -61 -135.5t-148 -48.5z" />
    <glyph glyph-name="gjBA" unicode="&#xaac;" horiz-adv-x="809" 
d="M604 671h142v-671h-142v246h-135q-29 -166 -207 -166q-99 0 -165.5 72.5t-66.5 223.5q0 80 23 140t63 94.5t88.5 51t105.5 16.5q72 0 126 -18v-123q-65 19 -116 19q-148 0 -148 -188q0 -102 24.5 -135.5t63.5 -33.5q73 0 73 109v144h141v-89h130v308z" />
    <glyph glyph-name="gjBHA" unicode="&#xaad;" horiz-adv-x="819" 
d="M358 0q-146 0 -237 98.5t-91 265.5q0 87 23.5 155t82 113.5t146.5 45.5q97 0 150.5 -58.5t53.5 -153.5v-33h128v238h142v-671h-142v315h-128v-86h-124l-31 60q-29 57 -29 82q0 43 45 55v49q0 37 -16 60.5t-50 23.5q-46 0 -77.5 -49.5t-31.5 -156.5q0 -104 49.5 -167.5
t156.5 -63.5q46 0 104 14v-121q-60 -15 -124 -15z" />
    <glyph glyph-name="gjMA" unicode="&#xaae;" horiz-adv-x="619" 
d="M414 671h142v-671h-142v256h-168v-117h-119l-36 80q-29 67 -29 92q0 43 45 55v150q0 38 -40 38q-16 0 -37 -7v117q29 7 70 7q61 0 103.5 -38t42.5 -104v-156h168v298z" />
    <glyph glyph-name="gjYA" unicode="&#xaaf;" horiz-adv-x="650" 
d="M445 671h142v-671h-142v181q-56 -75 -167 -75q-99 0 -173 72.5t-80 203.5q83 12 132.5 41t49.5 71q0 30 -20.5 46t-51.5 16q-37 0 -76 -22v124q41 19 92 19q79 0 137 -52.5t58 -132.5q0 -137 -164 -187q9 -38 41.5 -58t75.5 -20q57 0 101.5 38.5t44.5 105.5v300z" />
    <glyph glyph-name="gjRA" unicode="&#xab0;" horiz-adv-x="506" 
d="M28 263v121h171q57 0 93.5 22.5t36.5 63.5t-30 63.5t-78 22.5q-64 0 -132 -27v123q69 26 151 26q99 0 166.5 -55t67.5 -153q0 -93 -67 -147t-168 -59q-1 -6 -1 -17q0 -67 38 -99.5t93 -32.5q47 0 91 16v-123q-45 -15 -111 -15q-105 0 -179.5 70.5t-74.5 199.5h-67z" />
    <glyph glyph-name="gjLA" unicode="&#xab2;" horiz-adv-x="724" 
d="M519 671h142v-671h-142v274h-230v122h230v275zM368 555q-87 0 -140 -62t-53 -158q0 -102 52.5 -160.5t140.5 -58.5q34 0 75 12v-121q-54 -14 -99 -14q-140 0 -227 95t-87 247q0 157 84.5 250t223.5 93q49 0 105 -14v-121q-41 12 -75 12z" />
    <glyph glyph-name="gjLLA" unicode="&#xab3;" horiz-adv-x="778" 
d="M274 665v-119q-14 4 -28 4q-37 0 -56.5 -36.5t-19.5 -126.5q0 -91 17 -131t60 -40q39 0 55 34t16 115q0 4 -0.5 29.5t-0.5 48.5q0 234 198 234q99 0 149.5 -58.5t50.5 -162.5v-456h-141v461q0 51 -13.5 73.5t-43.5 22.5q-64 0 -64 -113q0 -22 0.5 -55t0.5 -45
q0 -248 -203 -248q-108 0 -164.5 75t-56.5 220q0 280 196 280q26 0 48 -6z" />
    <glyph glyph-name="gjVA" unicode="&#xab5;" horiz-adv-x="663" 
d="M458 671h142v-671h-142v208q-54 -72 -163 -72q-114 0 -189.5 74.5t-75.5 188.5q0 109 72 185t188 76q42 0 78 -8v-119q-27 5 -47 5q-70 0 -108 -41.5t-38 -101.5q0 -58 36.5 -99t102.5 -41q56 0 98 36t46 94v286z" />
    <glyph glyph-name="gjSHA" unicode="&#xab6;" horiz-adv-x="772" 
d="M356 -7q-106 0 -179.5 65t-79.5 187h-69v122h160q62 0 107 29.5t45 91.5q0 36 -14 56t-40 20q-27 0 -41 -21.5t-14 -52.5q0 -39 19 -71h-139q-19 34 -19 91q0 76 53 125.5t136 49.5q91 0 147 -56t56 -159q0 -99 -68.5 -157.5t-176.5 -66.5q1 -68 39.5 -99.5t97.5 -31.5
q47 0 101 21v-123q-53 -20 -121 -20zM567 671h142v-671h-142v671z" />
    <glyph glyph-name="gjSSA" unicode="&#xab7;" horiz-adv-x="641" 
d="M436 671h142v-671h-142v208q-54 -42 -129 -42q-94 0 -153 55.5t-59 156.5v138q0 38 -40 38q-16 0 -37 -7v117q29 7 70 7q63 0 120 -56l228 -219v275zM230 436v-60q0 -47 25.5 -73t75.5 -26q62 0 89 42l-193 186q3 -25 3 -69z" />
    <glyph glyph-name="gjSA" unicode="&#xab8;" horiz-adv-x="790" 
d="M28 254v122h144q61 0 96 22.5t35 65.5q0 45 -32.5 68.5t-85.5 23.5q-45 0 -87 -13v123q45 12 106 12q103 0 173.5 -56t70.5 -158q0 -31 -8 -60h145v267h142v-671h-142v287h-247q-43 -22 -100 -30v-7q0 -69 36.5 -102t90.5 -33q43 0 90 18v-123q-47 -17 -110 -17
q-101 0 -172.5 68t-75.5 193h-69z" />
    <glyph glyph-name="gjHA" unicode="&#xab9;" horiz-adv-x="622" 
d="M266 365h5q59 -49 117 -49q22 0 35.5 10t13.5 28q0 19 -20.5 36t-49.5 32.5t-57.5 35t-49 52.5t-20.5 75q0 54 30 86h139v-4q-28 -30 -28 -67q0 -25 14.5 -44.5t36.5 -31.5t47 -28.5t47 -34t36.5 -48t14.5 -69.5q0 -69 -50.5 -109t-122.5 -40q-76 0 -138 41v129zM64 476
h145q-39 -76 -39 -158q0 -90 58 -149t169 -59q110 0 200 61v-136q-81 -46 -202 -46q-169 0 -267 94.5t-98 237.5q0 85 34 155z" />
    <glyph glyph-name="gjNukta" unicode="&#xabc;" horiz-adv-x="0" 
d="M-307 -297q-35 0 -58.5 23.5t-23.5 58.5t23.5 58.5t58.5 23.5t58.5 -23.5t23.5 -58.5t-23.5 -58.5t-58.5 -23.5z" />
    <glyph glyph-name="gjAvagraha" unicode="&#xabd;" horiz-adv-x="538" 
d="M45 58v145q46 -30 111.5 -53.5t116.5 -23.5q82 0 82 56q0 27 -31.5 53.5t-76.5 52t-90 55t-76.5 75t-31.5 99.5q0 71 50 112.5t138 41.5h229v-126h-213q-48 0 -48 -39q0 -21 22 -43t55 -40.5t71.5 -44t71.5 -52t55 -66.5t22 -85q0 -79 -58.5 -128.5t-165.5 -49.5
q-122 0 -233 61z" />
    <glyph glyph-name="gjmAA" unicode="&#xabe;" 
d="M63 671h142v-671h-142v671z" />
    <glyph glyph-name="gjmI" unicode="&#xabf;" 
d="M63 0v707q0 122 71.5 194.5t202.5 72.5q226 0 453 -100v-120q-96 42 -219 72t-209 30q-157 0 -157 -154v-702h-142z" />
    <glyph glyph-name="gjmII" unicode="&#xac0;" 
d="M63 0v783q0 35 -17 54t-47 19q-62 0 -62 -77v-25h-142v30q0 91 56 140.5t147 49.5q86 0 146.5 -54.5t60.5 -140.5v-779h-142z" />
    <glyph glyph-name="gjmU" unicode="&#xac1;" horiz-adv-x="0" 
d="M-435 -73q154 -119 284 -119q30 0 47.5 13.5t17.5 34.5q0 19 -16 31t-47 12q-46 0 -105 -24v119q52 18 109 18q90 0 142.5 -43.5t52.5 -114.5q0 -72 -52.5 -116.5t-138.5 -44.5q-143 0 -294 92v142z" />
    <glyph glyph-name="gjmUU" unicode="&#xac2;" horiz-adv-x="0" 
d="M-87 -176v-106q-25 -11 -70 -11q-71 0 -122 41.5t-51 108.5q0 71 51 114.5t129 43.5q66 0 119 -28.5t84.5 -74.5t47.5 -99t16 -108h-131q0 80 -36.5 138.5t-93.5 58.5q-24 0 -38.5 -12t-14.5 -32q0 -21 16.5 -33t42.5 -12q24 0 51 11z" />
    <glyph glyph-name="gjmvR" unicode="&#xac3;" horiz-adv-x="0" 
d="M-146 -304q-88 0 -143.5 48t-55.5 118q0 77 55 112.5t137 35.5q48 0 90 -9v-103q-26 7 -62 7q-84 0 -84 -51q0 -47 70 -47q78 0 153 33v-113q-71 -31 -160 -31z" />
    <glyph glyph-name="gjmEcandra" unicode="&#xac5;" horiz-adv-x="0" 
d="M107 942q0 -103 -68 -154t-173 -51t-173 51t-68 154h134q0 -46 27.5 -73t79.5 -27t79.5 27t27.5 73h134z" />
    <glyph glyph-name="gjmE" unicode="&#xac7;" horiz-adv-x="0" 
d="M-421 875v118q40 9 78 9q116 0 172 -94l103 -169h-133l-80 105q-31 41 -79 41q-28 0 -61 -10z" />
    <glyph glyph-name="gjmAI" unicode="&#xac8;" horiz-adv-x="0" 
d="M-64 739h-141l-14 15q-53 57 -151 57q-50 0 -107 -20v113q54 16 99 16q129 0 212 -118h4l-43 81q-37 68 -110 68q-19 0 -39 -5v112q32 6 54 6q156 0 202 -184z" />
    <glyph glyph-name="gjmOcandra" unicode="&#xac9;" 
d="M241 942q0 -103 -68 -154t-173 -51t-173 51t-68 154h134q0 -46 27.5 -73t79.5 -27t79.5 27t27.5 73h134zM63 671h142v-671h-142v671z" />
    <glyph glyph-name="gjmO" unicode="&#xacb;" 
d="M-153 875v118q40 9 78 9q116 0 172 -94l103 -169h-133l-80 105q-31 41 -79 41q-28 0 -61 -10zM63 671h142v-671h-142v671z" />
    <glyph glyph-name="gjmAU" unicode="&#xacc;" 
d="M63 671h142v-671h-142v671zM204 739h-141l-14 15q-53 57 -151 57q-50 0 -107 -20v113q54 16 99 16q129 0 212 -118h4l-43 81q-37 68 -110 68q-19 0 -39 -5v112q32 6 54 6q156 0 202 -184z" />
    <glyph glyph-name="gjVirama" unicode="&#xacd;" horiz-adv-x="0" 
d="M-60 -65l142 -176h-168l-120 176h146z" />
    <glyph glyph-name="gjOm" unicode="&#xad0;" horiz-adv-x="1237" 
d="M499 129q42 -69 120 -69q53 0 98 33.5t76.5 81.5t59.5 95.5t58 81t60 33.5q27 0 42.5 -25t15.5 -74q0 -54 -23.5 -89t-69.5 -35q-44 0 -82 23v-120q46 -18 101 -18q95 0 154 70.5t59 172.5q0 104 -53 165t-141 61q-58 0 -106.5 -33.5t-81.5 -80.5t-61.5 -94.5t-60 -81
t-64.5 -33.5q-48 0 -91 71q-42 69 -109 78q36 17 57 50t21 74q0 79 -55 125t-147 46q-95 0 -159 -43v-120q66 47 140 47q36 0 58 -19t22 -50q0 -35 -26 -57t-81 -22h-29v-112h81q91 0 91 -66q0 -36 -25.5 -57t-67.5 -21q-90 0 -182 54v-130q82 -42 189 -42q72 0 131 36.5
t81 93.5zM951 716q0 -103 -69.5 -154t-175.5 -51t-175.5 51t-69.5 154h136q0 -46 28 -73t81 -27t81 27t28 73h136zM706 687q-30 0 -50.5 20.5t-20.5 50.5t20.5 50.5t50.5 20.5t50.5 -20.5t20.5 -50.5t-20.5 -50.5t-50.5 -20.5z" />
    <glyph glyph-name="gjAbbreviationsign" unicode="&#xaf0;" horiz-adv-x="418" 
d="M208 131q-81 0 -129.5 45.5t-48.5 126.5q0 78 49.5 126t130.5 48t129.5 -46t48.5 -126q0 -79 -49.5 -126.5t-130.5 -47.5zM208 377q-31 0 -48 -19.5t-17 -52.5q0 -35 17.5 -54.5t50.5 -19.5q63 0 63 72q0 74 -66 74z" />
    <glyph glyph-name="gjRupeesign" unicode="&#xaf1;" horiz-adv-x="961" 
d="M294 18q-77 0 -123 44v-138h-123v301h123v-4q0 -40 28 -64t69 -24q38 0 63 22.5t25 57.5q0 44 -28.5 65.5t-68.5 21.5h-100v119h99q36 0 62 17t26 50q0 35 -28 52.5t-74 17.5q-69 0 -146 -24v123q77 23 165 23q97 0 162.5 -45t65.5 -129q0 -54 -37.5 -91t-94.5 -51
q61 -13 101.5 -56.5t40.5 -111.5q0 -85 -62 -130.5t-145 -45.5zM751 131q-81 0 -129.5 45.5t-48.5 126.5q0 78 49.5 126t130.5 48t129.5 -46t48.5 -126q0 -79 -49.5 -126.5t-130.5 -47.5zM751 377q-31 0 -48 -19.5t-17 -52.5q0 -35 17.5 -54.5t50.5 -19.5q63 0 63 72
q0 74 -66 74z" />
    <glyph glyph-name="zerowidthnonjoiner" unicode="&#x200c;" horiz-adv-x="0" 
d="M24 -230h-47v1041h47v-1041z" />
    <glyph glyph-name="zerowidthjoiner" unicode="&#x200d;" horiz-adv-x="0" 
d="M24 -230h-47v865l-69 -73l-33 33l93 93l-95 95l33 33l95 -95l96 95l32 -32l-96 -96l96 -95l-33 -33l-72 75v-865z" />
    <glyph glyph-name="endash" unicode="&#x2013;" horiz-adv-x="555" 
d="M510 215h-465v107h465v-107z" />
    <glyph glyph-name="emdash" unicode="&#x2014;" horiz-adv-x="836" 
d="M791 218h-746v107h746v-107z" />
    <glyph glyph-name="quoteleft" unicode="&#x2018;" horiz-adv-x="267" 
d="M188 433h-161l136 261h126z" />
    <glyph glyph-name="quoteright" unicode="&#x2019;" horiz-adv-x="267" 
d="M154 433h-126l101 261h161z" />
    <glyph glyph-name="quotesinglbase" unicode="&#x201a;" horiz-adv-x="267" 
d="M119 -127h-126l101 261h161z" />
    <glyph glyph-name="quotedblleft" unicode="&#x201c;" horiz-adv-x="452" 
d="M185 433h-158l141 261h121zM378 433h-146l121 261h121z" />
    <glyph glyph-name="quotedblright" unicode="&#x201d;" horiz-adv-x="452" 
d="M149 433h-121l96 261h146zM334 433h-121l104 261h158z" />
    <glyph glyph-name="quotedblbase" unicode="&#x201e;" horiz-adv-x="452" 
d="M119 -127h-121l96 261h146zM304 -127h-121l104 261h158z" />
    <glyph glyph-name="dagger" unicode="&#x2020;" horiz-adv-x="559" 
d="M529 405h-185v-405h-130v405h-184v118h184v151h130v-151h185v-118z" />
    <glyph glyph-name="daggerdbl" unicode="&#x2021;" horiz-adv-x="589" 
d="M544 151h-185v-151h-130v151h-184v118h184v136h-184v118h184v151h130v-151h185v-118h-185v-136h185v-118z" />
    <glyph glyph-name="bullet" unicode="&#x2022;" horiz-adv-x="425" 
d="M345 356q0 -56 -38 -94.5t-94 -38.5q-57 0 -95 38t-38 95t37.5 95t94.5 38q56 0 94.5 -38.5t38.5 -94.5z" />
    <glyph glyph-name="ellipsis" unicode="&#x2026;" horiz-adv-x="938" 
d="M238 81q0 -37 -26 -63t-63 -26t-63 26t-26 63t26 63t63 26t63 -26t26 -63zM558 81q0 -37 -26 -63t-63 -26t-63 26t-26 63t26 63t63 26t63 -26t26 -63zM878 81q0 -37 -26 -63t-63 -26t-63 26t-26 63t26 63t63 26t63 -26t26 -63z" />
    <glyph glyph-name="perthousand" unicode="&#x2030;" horiz-adv-x="1412" 
d="M358 -1h-131l379 708h132zM425 532q0 -79 -55.5 -134.5t-134.5 -55.5t-134.5 55.5t-55.5 134.5t55.5 134.5t134.5 55.5t134.5 -55.5t55.5 -134.5zM162 532q0 -30 21.5 -51.5t51.5 -21.5t51.5 21.5t21.5 51.5t-21.5 51.5t-51.5 21.5t-51.5 -21.5t-21.5 -51.5zM928 182
q0 -79 -55.5 -134.5t-134.5 -55.5t-134.5 55.5t-55.5 134.5t55.5 134.5t134.5 55.5t134.5 -55.5t55.5 -134.5zM665 182q0 -30 21.5 -51.5t51.5 -21.5t51.5 21.5t21.5 51.5t-21.5 51.5t-51.5 21.5t-51.5 -21.5t-21.5 -51.5zM1368 182q0 -79 -55.5 -134.5t-134.5 -55.5
t-134.5 55.5t-55.5 134.5t55.5 134.5t134.5 55.5t134.5 -55.5t55.5 -134.5zM1105 182q0 -30 21.5 -51.5t51.5 -21.5t51.5 21.5t21.5 51.5t-21.5 51.5t-51.5 21.5t-51.5 -21.5t-21.5 -51.5z" />
    <glyph glyph-name="guilsinglleft" unicode="&#x2039;" horiz-adv-x="371" 
d="M184 253l146 -162h-152l-152 162l152 162h152z" />
    <glyph glyph-name="guilsinglright" unicode="&#x203a;" horiz-adv-x="371" 
d="M345 253l-152 -162h-152l146 162l-146 162h152z" />
    <glyph glyph-name="fraction" unicode="&#x2044;" horiz-adv-x="264" 
d="M-68 0h-109l429 711h108z" />
    <glyph glyph-name="Euro" unicode="&#x20ac;" horiz-adv-x="622" 
d="M582 27q-64 -35 -156 -35q-107 0 -184.5 56.5t-108.5 152.5h-93v90h76q-1 10 -1 29q0 24 1 35h-76v90h92q31 104 110 161t179 57q98 0 161 -38v-147q-59 48 -137 48q-98 0 -146 -81h178v-90h-206q-2 -22 -2 -36q0 -19 1 -28h207v-90h-179q45 -75 142 -75q82 0 142 49
v-148z" />
    <glyph glyph-name="indianrupee" unicode="&#x20b9;" horiz-adv-x="559" 
d="M518 395h-108q-11 -71 -56.5 -115t-123.5 -57l191 -223h-184l-177 219v115h87q93 0 113 61h-200v109h194q-30 61 -110 61h-84v109h458v-109h-155q25 -28 37 -61h118v-109z" />
    <glyph glyph-name="uni20BA" unicode="&#x20ba;" horiz-adv-x="588" 
d="M224 0h-99v208l-71 -36v111l71 36v89l-71 -36v111l71 36v136h146v-63l89 45v-111l-89 -45v-89l89 45v-111l-89 -45v-154q77 23 122.5 89t45.5 147h142q0 -68 -23.5 -132t-66.5 -116t-112.5 -83.5t-154.5 -31.5z" />
    <glyph glyph-name="uni20BD" unicode="&#x20bd;" horiz-adv-x="545" 
d="M267 537h-48v-197h39q122 0 122 104q0 93 -113 93zM416 77h-197v-77h-154v77h-77v102h77v59h-77v102h77v315h220q120 0 180.5 -58t60.5 -149q0 -101 -65.5 -155.5t-175.5 -54.5h-66v-59h197v-102z" />
    <glyph glyph-name="uni2113" unicode="&#x2113;" horiz-adv-x="519" 
d="M280 459v-108q81 57 81 146q0 52 -38 52q-43 0 -43 -90zM476 27q-56 -32 -141 -32q-92 0 -144 49t-55 141q-12 -1 -38 -1q-41 0 -68 7v118q32 -8 68 -8q14 0 38 2v162q0 97 40.5 155.5t131.5 58.5q86 0 129.5 -46.5t43.5 -123.5q0 -91 -52.5 -170.5t-148.5 -120.5v-11
q0 -48 24.5 -71.5t67.5 -23.5q55 0 104 33v-118z" />
    <glyph glyph-name="trademark" unicode="&#x2122;" horiz-adv-x="753" 
d="M396 331h-91l29 343h99l36 -93q18 -47 29.5 -81.5t13.5 -45.5l3 -12q9 33 49 139l36 93h99l35 -343h-91l-10 112q-3 32 -3 63.5t2 47.5l1 16q-10 -56 -38 -128l-40 -107h-78l-39 107q-11 29 -20 61t-12 49l-4 18q1 -7 2 -18t3 -46.5t-2 -63.5zM188 331h-94v261h-84v82
h261v-82h-83v-261z" />
    <glyph glyph-name="uni2126" unicode="&#x2126;" horiz-adv-x="790" 
d="M350 0h-305v124h129q-95 79 -95 220q0 156 84.5 248.5t233.5 92.5t233.5 -92t84.5 -249q0 -141 -97 -220h127v-124h-305v124q55 15 82.5 74.5t27.5 145.5q0 95 -39.5 148t-113.5 53t-113.5 -53t-39.5 -148q0 -85 26 -144.5t80 -75.5v-124z" />
    <glyph glyph-name="partialdiff" unicode="&#x2202;" horiz-adv-x="552" 
d="M502 284q0 -140 -62 -217t-172 -77q-112 0 -172.5 64t-60.5 166q0 94 59.5 153.5t144.5 59.5q63 0 109 -31q-57 154 -247 272h201q91 -70 145.5 -180t54.5 -210zM267 120q97 0 102 154q-38 35 -98 35q-38 0 -62.5 -26.5t-24.5 -69.5t21.5 -68t61.5 -25z" />
    <glyph glyph-name="uni2206" unicode="&#x2206;" horiz-adv-x="681" 
d="M35 0v101l210 573h194l207 -573v-101h-611zM245 268l-47 -144h284l-47 144l-95 294q-24 -74 -95 -294z" />
    <glyph glyph-name="product" unicode="&#x220f;" horiz-adv-x="647" 
d="M240 43q0 -229 -182 -229q-36 0 -73 13v133q24 -13 47 -13q30 0 42 22.5t12 72.5v632h496v-854h-155v723h-187v-500z" />
    <glyph glyph-name="summation" unicode="&#x2211;" horiz-adv-x="484" 
d="M191 -76h303v-124h-464v124l146 320l-146 306v124h464v-124h-302l142 -306z" />
    <glyph glyph-name="minus" unicode="&#x2212;" horiz-adv-x="589" 
d="M544 275h-499v129h499v-129z" />
    <glyph glyph-name="uni2215" unicode="&#x2215;" horiz-adv-x="488" 
d="M88 0h-109l429 711h108z" />
    <glyph glyph-name="uni2219" unicode="&#x2219;" horiz-adv-x="316" 
d="M247 337q0 -37 -26 -63t-63 -26t-63 26t-26 63t26 63t63 26t63 -26t26 -63z" />
    <glyph glyph-name="radical" unicode="&#x221a;" horiz-adv-x="825" 
d="M522 -190h-170l-194 538h-131l30 113h226l82 -246q52 -155 74 -265q31 156 65 265l213 692h154z" />
    <glyph glyph-name="infinity" unicode="&#x221e;" horiz-adv-x="830" 
d="M415 259q-25 -28 -42.5 -43.5t-56.5 -33t-85 -17.5q-90 0 -138 44.5t-48 127.5q0 81 52 129.5t138 48.5q98 0 179 -90q81 93 186 93q88 0 136.5 -45.5t48.5 -126.5q0 -80 -52 -129t-137 -49q-103 0 -181 91zM172 339q0 -30 18 -46.5t50 -16.5q52 0 99 68q-59 59 -99 59
q-32 0 -50 -17t-18 -47zM491 339q20 -19 31 -29t30.5 -20t37.5 -10q67 0 67 64q0 27 -17 45t-47 18q-25 0 -47 -13.5t-31 -24t-24 -30.5z" />
    <glyph glyph-name="integral" unicode="&#x222b;" horiz-adv-x="326" 
d="M241 -4q0 -92 -51.5 -143t-142.5 -51q-47 0 -76 10v118q28 -11 52 -11q37 0 55 17t18 60v517q0 92 51.5 143t142.5 51q47 0 76 -10v-118q-28 11 -52 11q-37 0 -55 -17t-18 -60v-517z" />
    <glyph glyph-name="approxequal" unicode="&#x2248;" horiz-adv-x="589" 
d="M207 405q-30 0 -50.5 -13t-43.5 -40l-92 73q71 99 157 99q60 0 119.5 -22.5t81.5 -22.5q30 0 50 13t44 41l92 -74q-69 -99 -158 -99q-52 0 -110.5 22.5t-89.5 22.5zM207 201q-30 0 -50.5 -13t-43.5 -40l-92 73q71 99 157 99q60 0 119.5 -22.5t81.5 -22.5q30 0 50 13
t44 41l92 -74q-69 -99 -158 -99q-52 0 -110.5 22.5t-89.5 22.5z" />
    <glyph glyph-name="notequal" unicode="&#x2260;" horiz-adv-x="589" 
d="M544 166h-294l-37 -80h-75l37 80h-130v116h185l54 116h-239v116h294l37 80h75l-37 -80h130v-116h-185l-54 -116h239v-116z" />
    <glyph glyph-name="lessequal" unicode="&#x2264;" horiz-adv-x="584" 
d="M539 469l-396 -50l396 -50v-126l-499 86v180l499 86v-126zM539 83h-499v116h499v-116z" />
    <glyph glyph-name="greaterequal" unicode="&#x2265;" horiz-adv-x="584" 
d="M544 509v-180l-499 -86v126l396 50l-396 50v126zM544 83h-499v116h499v-116z" />
    <glyph glyph-name="lozenge" unicode="&#x25ca;" horiz-adv-x="604" 
d="M177 337l25 -42q32 -54 57 -99.5t34 -63.5l9 -19q27 61 102 182l26 42l-26 42q-33 54 -58.5 99.5t-34.5 63.5l-9 19q-28 -61 -100 -182zM376 0h-150l-197 337l197 337h150l199 -337z" />
    <glyph glyph-name="dottedcircle" unicode="&#x25cc;" horiz-adv-x="660" 
d="M286 90q0 -20 -12.5 -33t-31.5 -13t-32 13t-13 33q0 18 13 31t32 13t31.5 -13t12.5 -31zM184 165q0 -19 -12.5 -31.5t-31.5 -12.5q-20 0 -32 12.5t-12 31.5t12.5 31.5t31.5 12.5t31.5 -12.5t12.5 -31.5zM132 281q0 -19 -12.5 -31t-31.5 -12t-31.5 12t-12.5 31t12.5 32
t31.5 13t31.5 -12.5t12.5 -32.5zM413 74q0 -19 -12.5 -31.5t-32.5 -12.5t-32 12t-12 32t12 32t32 12t32.5 -12.5t12.5 -31.5zM147 407q0 -19 -13 -31.5t-31 -12.5q-20 0 -33 12.5t-13 31.5t13 31.5t33 12.5q18 0 31 -12.5t13 -31.5zM534 127q0 -19 -13 -31.5t-32 -12.5
t-31.5 12.5t-12.5 31.5t12.5 31.5t31.5 12.5t32 -12.5t13 -31.5zM227 517q0 -20 -12.5 -32.5t-31.5 -12.5t-31.5 12.5t-12.5 32.5q0 19 12.5 31.5t31.5 12.5t31.5 -12.5t12.5 -31.5zM606 225q0 -19 -12.5 -31.5t-30.5 -12.5q-19 0 -32 12.5t-13 31.5t13 32t32 13
q18 0 30.5 -13t12.5 -32zM345 560q0 -20 -12.5 -32t-31.5 -12t-31.5 12t-12.5 32t12.5 32t31.5 12t31.5 -12t12.5 -32zM616 359q0 -19 -12.5 -31.5t-31.5 -12.5q-20 0 -32 12.5t-12 31.5t12 31.5t32 12.5q19 0 31.5 -12.5t12.5 -31.5zM471 545q0 -18 -12.5 -31t-30.5 -13
q-19 0 -32 13t-13 31q0 19 12.5 32t32.5 13q19 0 31 -12.5t12 -32.5zM566 477q0 -19 -12.5 -31.5t-31.5 -12.5t-31.5 12.5t-12.5 31.5t12.5 32t31.5 13t31.5 -12.5t12.5 -32.5z" />
    <glyph glyph-name="fi" unicode="&#xfb01;" horiz-adv-x="575" 
d="M241 0h-145v400h-66v107h66v19q0 92 51.5 143t142.5 51q98 0 189 -42v-118q-95 43 -165 43q-37 0 -55 -17t-18 -60v-19h291v-507h-146v400h-145v-400z" />
    <glyph glyph-name="fl" unicode="&#xfb02;" horiz-adv-x="593" 
d="M336 400h-95v-400h-145v400h-66v107h66v19q0 92 51.5 143t142.5 51q110 0 243 -63v-657h-146v593q-40 10 -68 10q-40 0 -59 -16t-19 -61v-19h95v-107z" />
    <glyph glyph-name="gjK_SSA" horiz-adv-x="796" 
d="M229 506q0 -52 54 -72q64 30 64 78q0 23 -15 38.5t-40 15.5q-28 0 -45.5 -17.5t-17.5 -42.5zM591 671h142v-671h-142v312h-214q-55 0 -110 15q-47 -25 -71.5 -49.5t-24.5 -59.5t24 -56t60 -21q45 0 75 30.5t30 77.5h138v-249h-140v88q-16 -23 -53 -40t-79 -17
q-87 0 -142.5 50t-55.5 130q0 67 34.5 106.5t94.5 65.5q-60 53 -60 131q0 74 52.5 120.5t137.5 46.5q86 0 137 -43t51 -115q0 -61 -48 -104h164v252z" />
    <glyph glyph-name="gjJ_NYA" horiz-adv-x="713" 
d="M508 0v476h-262q-46 0 -46 -29t46 -29q81 0 133.5 -37t52.5 -114q0 -75 -52.5 -109.5t-133.5 -34.5h-15q-1 -3 -1 -11q0 -29 25 -44.5t67 -15.5q46 0 96 13v-117q-37 -12 -107 -12q-93 0 -154.5 48.5t-61.5 136.5v2h-67v113h201q64 0 64 34q0 19 -15.5 24.5t-48.5 5.5
q-73 0 -118 39t-45 105q0 70 49.5 108t121.5 38h271v81h142v-671h-142z" />
    <glyph glyph-name="gjReph" horiz-adv-x="0" 
d="M36 987v-118q-38 16 -74 16q-73 0 -73 -62q0 -8 2 -17t4.5 -15t8 -15t8 -13t9.5 -13t8 -11h-135q-36 53 -36 109q0 74 52 114.5t129 40.5q50 0 97 -16z" />
    <glyph glyph-name="gjRAc2" horiz-adv-x="0" 
d="M-396 -199l176 199h172l176 -199h-170l-92 119l-92 -119h-170z" />
    <glyph glyph-name="gjK" horiz-adv-x="571" 
d="M293 -7q-130 0 -228 46v130q108 -54 215 -54q42 0 77.5 17t35.5 56q0 40 -30 61.5t-85 38.5l-246 -62v122l100 23q-66 47 -66 127q0 85 66 132.5t176 47.5q96 0 177 -24v-124q-88 26 -172 26q-48 0 -76.5 -18t-28.5 -53q0 -48 64 -74l50 12q89 21 227 21h196v-109h-30
q-245 0 -281 -3q101 -47 101 -151q0 -83 -68 -135.5t-174 -52.5z" />
    <glyph glyph-name="gjKH" horiz-adv-x="584" 
d="M362 517h142v-101h246v-117h-247q-9 -83 -62 -127.5t-142 -44.5q-96 0 -150 53t-54 149v187q0 38 -40 38q-16 0 -37 -7v117q29 7 70 7q62 0 105.5 -38t43.5 -104v-217q0 -67 62 -67q63 0 63 67v205z" />
    <glyph glyph-name="gjG" horiz-adv-x="433" 
d="M132 678q106 0 182 -69.5t76 -182.5t-76 -182.5t-182 -69.5q-48 0 -99 17v123q40 -17 85 -17q57 0 92 36t35 93q0 58 -35 94t-92 36q-37 0 -70 -13v123q42 12 84 12z" />
    <glyph glyph-name="gjGH" horiz-adv-x="410" 
d="M480 310l97 -53q-48 -84 -126.5 -132.5t-177.5 -48.5q-92 0 -160 46.5t-68 123.5q0 60 39 95.5t107 47.5q-59 13 -96 48.5t-37 95.5q0 68 56 108.5t141 40.5q57 0 114 -12v-117q-44 11 -86 11q-32 0 -56.5 -14.5t-24.5 -47.5q0 -30 21.5 -45t52.5 -15h57v-119h-70
q-31 0 -52 -16.5t-21 -42.5q0 -33 27.5 -51.5t73.5 -18.5q113 0 189 116z" />
    <glyph glyph-name="gjNG" horiz-adv-x="643" 
d="M337 392q181 -51 181 -201q0 -87 -68.5 -142.5t-176.5 -55.5q-130 0 -228 56v130q108 -64 226 -64q45 0 73.5 20t28.5 53q0 23 -9.5 39.5t-31 27.5t-38 16.5t-48.5 13.5q-39 10 -69.5 22.5t-63.5 35.5t-51.5 60t-18.5 85q0 90 67 140t178 50q97 0 178 -24v-124
q-89 26 -173 26q-48 0 -76.5 -18t-28.5 -53q0 -19 10 -33.5t30.5 -24.5t35.5 -15.5t41.5 -12t31.5 -7.5zM551 342q-35 0 -58.5 24t-23.5 58t23.5 58t58.5 24t58.5 -24t23.5 -58t-23.5 -58t-58.5 -24zM345 -65l142 -176h-168l-120 176h146z" />
    <glyph glyph-name="gjC" horiz-adv-x="458" 
d="M530 332l104 -57q-37 -81 -113 -132.5t-169 -51.5q-101 0 -176 57t-87 164h-66v119h163q35 0 61 14.5t26 48.5q0 30 -25 47t-63 17q-55 0 -103 -13v120q63 13 117 13q92 0 155 -50t63 -139q0 -81 -55 -127t-141 -50q6 -50 41 -75t87 -25q119 0 181 120z" />
    <glyph glyph-name="gjCH" horiz-adv-x="810" 
d="M341 116q129 0 214 84.5t85 201.5q0 115 -50 115q-51 0 -51 -100q0 -68 34 -128h-137q-38 68 -38 146q0 88 48 146t136 58q82 0 140 -65.5t58 -185.5q0 -112 -61 -204t-157 -141.5t-202 -49.5q-139 0 -225 55t-86 151q0 62 39.5 98t99.5 48q-65 14 -106.5 56t-41.5 104
q0 82 65.5 127.5t156.5 45.5q47 0 95 -11v-120q-42 10 -76 10q-43 0 -69.5 -19t-26.5 -56q0 -39 27.5 -57.5t64.5 -18.5h61v-119h-47q-40 0 -68.5 -20t-28.5 -60q0 -47 45 -69t102 -22zM443 -65l142 -176h-168l-120 176h146z" />
    <glyph glyph-name="gjJ" horiz-adv-x="729" 
d="M834 553v-123q-39 14 -93 14q-78 0 -155 -37q95 -131 95 -232q0 -75 -58.5 -128.5t-158.5 -53.5q-84 0 -149 52.5t-65 144.5q0 62 38.5 126.5t103.5 118.5q-58 63 -97 92t-76 29q-26 0 -44 -15.5t-18 -42.5q0 -25 18.5 -42t46.5 -17q23 0 42 7v-116q-23 -10 -67 -10
q-79 0 -130.5 52t-51.5 124q0 79 55 130.5t139 51.5q82 0 151 -44.5t142 -125.5q113 59 225 59q60 0 107 -14zM462 112q31 0 54.5 22t23.5 55q0 64 -62 146q-87 -77 -87 -153q0 -27 20 -48.5t51 -21.5z" />
    <glyph glyph-name="gjJH" horiz-adv-x="766" 
d="M352 19v123q48 -19 102 -19q60 0 102 32.5t42 92.5q0 63 -38.5 94.5t-95.5 31.5q-40 0 -79 -16q-22 -85 -91.5 -134.5t-158.5 -49.5q-48 0 -102 16v123q43 -16 82 -16q56 0 94.5 35t38.5 94q0 58 -35 94t-92 36q-37 0 -70 -13v123q42 12 84 12q91 0 161.5 -52t90.5 -141
q44 11 91 11q66 0 124.5 -26t99.5 -84.5t41 -139.5q0 -108 -73 -177t-188 -69q-73 0 -130 19z" />
    <glyph glyph-name="gjNY" horiz-adv-x="448" 
d="M143 638q100 0 174 -60.5t83 -160.5h212v-117h-227q-28 -72 -94.5 -114t-147.5 -42q-59 0 -117 24v123q45 -24 103 -24q57 0 92 34.5t35 89.5t-35 90t-92 35q-37 0 -70 -13v123q42 12 84 12z" />
    <glyph glyph-name="gjTT" horiz-adv-x="550" 
d="M92 512v134q73 32 174 32t171 -55.5t70 -145.5q0 -132 -159 -183q-11 -4 -41 -12t-46.5 -14t-37 -16.5t-30.5 -27t-10 -37.5q0 -28 20 -45.5t42 -22.5t47 -5q110 0 209 54v-134q-81 -42 -205 -42q-111 0 -185 55.5t-74 155.5q0 142 193 194q29 8 41 11.5t33.5 12t31 16.5
t17.5 20.5t8 27.5q0 38 -32.5 54t-74.5 16q-85 0 -162 -43zM323 -65l142 -176h-168l-120 176h146z" />
    <glyph glyph-name="gjTTH" horiz-adv-x="613" 
d="M310 112q60 0 95 25t35 66q0 40 -35 64.5t-95 24.5q-61 0 -96.5 -25t-35.5 -65t35.5 -65t96.5 -25zM583 203q0 -93 -76.5 -152t-198.5 -59q-121 0 -197 59t-76 151q0 58 33 101.5t92 67.5q-77 51 -77 131q0 85 67.5 130.5t177.5 45.5q97 0 178 -24v-124q-89 26 -173 26
q-105 0 -105 -65q0 -18 10.5 -31.5t31.5 -22.5t39 -14t48 -11.5t44 -10.5q79 -22 130.5 -70t51.5 -128zM373 -65l142 -176h-168l-120 176h146z" />
    <glyph glyph-name="gjDD" horiz-adv-x="549" 
d="M466 653v-128q-76 30 -164 30q-114 0 -114 -70q0 -15 8 -27.5t17.5 -20.5t31 -16.5t33.5 -12t41 -11.5q200 -53 200 -201q0 -98 -71 -151t-188 -53q-130 0 -215 45v134q104 -57 219 -57q44 0 76.5 18.5t32.5 56.5q0 21 -10.5 36.5t-32 26.5t-39 17t-48 13.5t-42.5 11.5
q-159 51 -159 186q0 91 65.5 144.5t179.5 53.5q108 0 179 -25zM345 -65l142 -176h-168l-120 176h146z" />
    <glyph glyph-name="gjDDH" horiz-adv-x="605" 
d="M467 671q24 -31 24 -79q0 -54 -33 -93t-79.5 -63.5t-93 -48.5t-79.5 -61t-33 -87q0 -61 43.5 -94t113.5 -33q47 0 84.5 18.5t37.5 62.5q0 22 -12 34.5t-28 12.5q-18 0 -29 -12.5t-11 -30.5q0 -17 5 -29h-123q-12 24 -12 57q0 62 49 97.5t118 35.5q83 0 133 -48.5
t50 -123.5q0 -89 -75.5 -141t-186.5 -52q-124 0 -211.5 72t-87.5 189q0 57 23.5 103.5t59 74.5t76.5 53t76.5 42t59 39t23.5 47q0 30 -23 58h141zM393 -65l142 -176h-168l-120 176h146z" />
    <glyph glyph-name="gjNN" horiz-adv-x="645" 
d="M205 671v-398q0 -85 56.5 -121.5t145.5 -36.5q50 0 102 12.5t83 28.5v-125q-83 -38 -175 -38q-55 0 -104.5 9.5t-96 32.5t-80 57t-53.5 86.5t-20 118.5v374h142zM381 671q102 0 161.5 -63t59.5 -148t-59 -148t-162 -63q-43 0 -75 10v120q25 -8 56 -8q48 0 75 26.5
t27 62.5t-27 62.5t-75 26.5q-31 0 -56 -8v120q32 10 75 10z" />
    <glyph glyph-name="gjT" horiz-adv-x="366" 
d="M531 388h-229q-61 0 -95.5 -36.5t-34.5 -102.5q0 -61 27 -95.5t79 -34.5q16 0 36 3v-117q-25 -5 -50 -5q-103 0 -168.5 70t-65.5 182q0 120 70.5 187t197.5 67h233v-118z" />
    <glyph glyph-name="gjTH" horiz-adv-x="445" 
d="M531 351l86 -74q-46 -80 -124 -125.5t-171 -45.5q-113 0 -194.5 70t-102.5 191q142 29 199.5 62t57.5 84q0 25 -13 38t-30 13q-47 0 -47 -54q0 -24 11 -53h-132q-11 33 -11 67q0 69 47 113t127 44q81 0 129.5 -48t48.5 -126q0 -84 -64.5 -142t-156.5 -79q38 -62 129 -62
q134 0 211 127z" />
    <glyph glyph-name="gjD" horiz-adv-x="494" 
d="M484 25q-86 -32 -177 -32q-102 0 -182 54t-80 149q0 62 40.5 101.5t102.5 51.5q-57 15 -95 55.5t-38 99.5q0 84 65.5 129t162.5 45q88 0 165 -23v-123q-77 24 -146 24q-46 0 -74 -19.5t-28 -57.5q0 -37 26 -55.5t62 -18.5h99v-119h-100q-40 0 -68.5 -20.5t-28.5 -62.5
q0 -44 34.5 -66t87.5 -22q79 0 172 35v-125zM333 -65l142 -176h-168l-120 176h146z" />
    <glyph glyph-name="gjDH" horiz-adv-x="413" 
d="M580 257q-44 -82 -124.5 -131.5t-179.5 -49.5q-94 0 -162.5 51.5t-68.5 139.5q0 69 44 107t105 51q-57 16 -96.5 57.5t-39.5 105.5q0 85 67 152h169v-11q-94 -87 -94 -162q0 -88 98 -88h45v-116h-61q-41 0 -66.5 -23t-25.5 -60q0 -40 31 -62t76 -22q112 0 186 114z" />
    <glyph glyph-name="gjN" horiz-adv-x="496" 
d="M454 273q0 -78 -58 -128.5t-152 -50.5q-97 0 -156.5 59.5t-59.5 146.5q0 94 61 150t164 56h409v-115h-257q49 -49 49 -118zM170 300q0 -39 20.5 -63.5t52.5 -24.5q33 0 53.5 24.5t20.5 63.5t-20.5 63.5t-52.5 24.5q-33 0 -53.5 -24.5t-20.5 -63.5z" />
    <glyph glyph-name="gjP" horiz-adv-x="365" 
d="M432 364l82 -80q-27 -49 -84.5 -85t-125.5 -36q-97 0 -153 57t-56 155v141q0 38 -40 38q-16 0 -37 -7v117q29 7 70 7q62 0 105.5 -38t43.5 -104v-159q0 -87 77 -87q69 0 118 81z" />
    <glyph glyph-name="gjPH" horiz-adv-x="571" 
d="M329 -3q-67 0 -127 30v-126h-134v278h130q7 -31 36 -48t65 -17q40 0 68.5 19.5t28.5 54.5q0 28 -19 49t-40 30.5t-57 21.5l-248 -63v122l100 23q-66 47 -66 127q0 85 66 132.5t176 47.5q96 0 177 -24v-124q-88 26 -172 26q-48 0 -76.5 -18t-28.5 -53q0 -48 64 -74l50 12
q89 21 227 21h196v-109h-37q-244 0 -277 -4q105 -49 105 -155q0 -85 -60.5 -132t-146.5 -47z" />
    <glyph glyph-name="gjB" horiz-adv-x="554" 
d="M436 660v-123q-65 19 -116 19q-148 0 -148 -188q0 -102 24.5 -135.5t63.5 -33.5q73 0 73 109v144h141v-89h246v-117h-251q-29 -166 -207 -166q-99 0 -165.5 72.5t-66.5 223.5q0 80 23 140t63 94.5t88.5 51t105.5 16.5q72 0 126 -18z" />
    <glyph glyph-name="gjBH" horiz-adv-x="566" 
d="M358 0q-146 0 -237 98.5t-91 265.5q0 87 23.5 155t82 113.5t146.5 45.5q97 0 150.5 -58.5t53.5 -153.5v-33h254v-118h-254v-86h-124l-31 60q-29 57 -29 82q0 43 45 55v49q0 37 -16 60.5t-50 23.5q-46 0 -77.5 -49.5t-31.5 -156.5q0 -104 49.5 -167.5t156.5 -63.5
q46 0 104 14v-121q-60 -15 -124 -15z" />
    <glyph glyph-name="gjM" horiz-adv-x="349" 
d="M246 529v-156h261v-117h-261v-117h-119l-36 80q-29 67 -29 92q0 43 45 55v150q0 38 -40 38q-16 0 -37 -7v117q29 7 70 7q61 0 103.5 -38t42.5 -104z" />
    <glyph glyph-name="gjY" horiz-adv-x="407" 
d="M492 327l91 -75q-41 -62 -112.5 -104.5t-161.5 -42.5q-54 0 -101.5 15.5t-88 47.5t-66 87t-28.5 127q83 12 132.5 41t49.5 71q0 30 -20.5 46t-51.5 16q-37 0 -76 -22v124q41 19 92 19q79 0 137 -52.5t58 -132.5q0 -137 -164 -187q9 -38 41.5 -58t75.5 -20q118 0 193 100z
" />
    <glyph glyph-name="gjR" horiz-adv-x="506" 
d="M28 263v121h171q57 0 93.5 22.5t36.5 63.5t-30 63.5t-78 22.5q-64 0 -132 -27v123q69 26 151 26q99 0 166.5 -55t67.5 -153q0 -93 -67 -147t-168 -59q-1 -6 -1 -17q0 -67 38 -99.5t93 -32.5q47 0 91 16v-123q-45 -15 -111 -15q-105 0 -179.5 70.5t-74.5 199.5h-67z
M330 -65l142 -176h-168l-120 176h146z" />
    <glyph glyph-name="gjL" horiz-adv-x="464" 
d="M443 7q-54 -14 -99 -14q-140 0 -227 95t-87 247q0 157 84.5 250t223.5 93q49 0 105 -14v-121q-41 12 -75 12q-87 0 -140 -62t-53 -158q0 -102 52.5 -160.5t140.5 -58.5q34 0 75 12v-121zM636 274h-347v122h347v-122z" />
    <glyph glyph-name="gjV" horiz-adv-x="409" 
d="M495 345l86 -87q-100 -125 -263 -125q-116 0 -202 76.5t-86 193.5q0 107 71.5 182t188.5 75q42 0 78 -8v-119q-27 5 -47 5q-69 0 -107.5 -41t-38.5 -100t41 -100.5t110 -41.5q53 0 98 24.5t71 65.5z" />
    <glyph glyph-name="gjSH" horiz-adv-x="522" 
d="M356 -7q-106 0 -179.5 65t-79.5 187h-69v122h160q62 0 107 29.5t45 91.5q0 36 -14 56t-40 20q-27 0 -41 -21.5t-14 -52.5q0 -39 19 -71h-139q-19 34 -19 91q0 76 53 125.5t136 49.5q91 0 147 -56t56 -159q0 -99 -68.5 -157.5t-176.5 -66.5q1 -68 39.5 -99.5t97.5 -31.5
q47 0 101 21v-123q-53 -20 -121 -20z" />
    <glyph glyph-name="gjSS" horiz-adv-x="405" 
d="M322 277q56 0 98 42l-193 186q3 -25 3 -69v-60q0 -45 24 -72t68 -27zM208 615l333 -323q-32 -59 -92 -95.5t-131 -36.5q-99 0 -161 57t-62 161v138q0 38 -40 38q-16 0 -37 -7v117q29 7 70 7q63 0 120 -56z" />
    <glyph glyph-name="gjS" horiz-adv-x="505" 
d="M28 254v122h144q61 0 96 22.5t35 65.5q0 45 -32.5 68.5t-85.5 23.5q-45 0 -87 -13v123q45 12 106 12q103 0 173.5 -56t70.5 -158q0 -31 -8 -60h170v-117h-272q-43 -22 -100 -30v-7q0 -69 36.5 -102t90.5 -33q43 0 90 18v-123q-47 -17 -110 -17q-101 0 -172.5 68
t-75.5 193h-69z" />
    <glyph glyph-name="gjH" horiz-adv-x="622" 
d="M266 365h5q59 -49 117 -49q22 0 35.5 10t13.5 28q0 19 -20.5 36t-49.5 32.5t-57.5 35t-49 52.5t-20.5 75q0 54 30 86h139v-4q-28 -30 -28 -67q0 -25 14.5 -44.5t36.5 -31.5t47 -28.5t47 -34t36.5 -48t14.5 -69.5q0 -69 -50.5 -109t-122.5 -40q-76 0 -138 41v129zM64 476
h145q-39 -76 -39 -158q0 -90 58 -149t169 -59q110 0 200 61v-136q-81 -46 -202 -46q-169 0 -267 94.5t-98 237.5q0 85 34 155zM390 -65l142 -176h-168l-120 176h146z" />
    <glyph glyph-name="gjLL" horiz-adv-x="538" 
d="M557 674v-121q-18 4 -34 4q-40 0 -55 -28t-15 -85q0 -22 0.5 -55t0.5 -45q0 -248 -203 -248q-108 0 -164.5 75t-56.5 220q0 280 196 280q26 0 48 -6v-119q-14 4 -28 4q-37 0 -56.5 -36.5t-19.5 -126.5q0 -91 17 -131t60 -40q39 0 55 34t16 115q0 4 -0.5 29.5t-0.5 48.5
q0 234 198 234q21 0 42 -3z" />
    <glyph glyph-name="gjK_SS" horiz-adv-x="533" 
d="M229 506q0 -52 54 -72q64 30 64 78q0 23 -15 38.5t-40 15.5q-28 0 -45.5 -17.5t-17.5 -42.5zM691 419v-107h-314q-55 0 -110 15q-47 -25 -71.5 -49.5t-24.5 -59.5t24 -56t60 -21q45 0 75 30.5t30 77.5h138v-249h-140v88q-16 -23 -53 -40t-79 -17q-87 0 -142.5 50
t-55.5 130q0 67 34.5 106.5t94.5 65.5q-60 53 -60 131q0 74 52.5 120.5t137.5 46.5q86 0 137 -43t51 -115q0 -61 -48 -104h264z" />
    <glyph glyph-name="gjJ_NY" horiz-adv-x="467" 
d="M629 476h-383q-46 0 -46 -29t46 -29q81 0 133.5 -37t52.5 -114q0 -75 -52.5 -109.5t-133.5 -34.5h-15q-1 -3 -1 -11q0 -29 25 -44.5t67 -15.5q46 0 96 13v-117q-37 -12 -107 -12q-93 0 -154.5 48.5t-61.5 136.5v2h-67v113h201q64 0 64 34q0 19 -15.5 24.5t-48.5 5.5
q-73 0 -118 39t-45 105q0 70 49.5 108t121.5 38h392v-114z" />
    <glyph glyph-name="gjK_RA" horiz-adv-x="581" 
d="M393 188q0 49 -58 85l-43 -92h-155l104 131l-209 -60v122l91 16q-56 51 -56 119q0 80 67 124.5t174 44.5q96 0 177 -24v-124q-88 26 -172 26q-48 0 -76.5 -18t-28.5 -53q0 -50 77 -72l261 58v-120l-119 -12q108 -52 108 -158q0 -91 -73.5 -139.5t-185.5 -48.5
q-115 0 -211 33v130q106 -41 215 -41q42 0 77.5 17t35.5 56z" />
    <glyph glyph-name="gjKH_RA" horiz-adv-x="837" 
d="M632 671h142v-671h-142v137l-193 -157h-194l387 312v11h-139q-19 -61 -68.5 -93.5t-125.5 -32.5q-96 0 -150 53t-54 149v137q0 38 -40 38q-16 0 -37 -7v117q29 7 70 7q62 0 105.5 -38t43.5 -104v-167q0 -67 62 -67q63 0 63 67v155h142v-97h128v251z" />
    <glyph glyph-name="gjG_RA" horiz-adv-x="676" 
d="M471 671h142v-671h-142v137l-175 -157h-189l364 320v371zM132 678q106 0 182 -64.5t76 -169.5t-76 -169.5t-182 -64.5q-53 0 -99 17v123q43 -17 85 -17q57 0 92 31t35 80t-35 80.5t-92 31.5q-37 0 -70 -13v123q42 12 84 12z" />
    <glyph glyph-name="gjGH_RA" horiz-adv-x="656" 
d="M451 671h142v-671h-142v140l-214 -185h-189l154 129q-69 15 -113 57.5t-44 104.5q0 60 39 95.5t107 47.5q-59 13 -96 48.5t-37 95.5q0 68 56 108.5t141 40.5q57 0 114 -12v-117q-44 11 -86 11q-32 0 -56.5 -14.5t-24.5 -47.5q0 -30 21.5 -45t52.5 -15h57v-119h-70
q-31 0 -52 -16.5t-21 -42.5q0 -33 27.5 -51.5t73.5 -18.5q74 0 117 40.5t43 114.5v322z" />
    <glyph glyph-name="gjC_RA" horiz-adv-x="702" 
d="M23 312v119h163q35 0 61 14.5t26 48.5q0 30 -25 47t-63 17q-55 0 -103 -13v120q63 13 117 13q92 0 155 -50t63 -139q0 -81 -55 -127t-141 -50q5 -50 40 -75t87 -25q66 0 107.5 38t41.5 97v324h142v-671h-142v160l-237 -205h-189l180 150q-65 21 -109 74.5t-53 132.5h-66z
" />
    <glyph glyph-name="gjCH_RA" horiz-adv-x="810" 
d="M341 116q129 0 214 84.5t85 201.5q0 115 -50 115q-51 0 -51 -100q0 -68 34 -128h-137q-38 68 -38 146q0 88 48 146t136 58q82 0 140 -65.5t58 -185.5q0 -124 -71.5 -220.5t-184.5 -141.5l139 -158h-170l-92 119l-92 -119h-170l119 134q-97 18 -153 69.5t-56 127.5
q0 62 39.5 98t99.5 48q-65 14 -106.5 56t-41.5 104q0 82 65.5 127.5t156.5 45.5q47 0 95 -11v-120q-42 10 -76 10q-43 0 -69.5 -19t-26.5 -56q0 -39 27.5 -57.5t64.5 -18.5h61v-119h-47q-40 0 -68.5 -20t-28.5 -60q0 -47 45 -69t102 -22z" />
    <glyph glyph-name="gjJ_RA" horiz-adv-x="748" 
d="M159 465h-139q-5 13 -5 38q0 76 56 125.5t138 49.5q77 0 143 -39.5t134 -112.5l143 145h145v-11l-209 -226q116 -147 116 -259q0 -75 -58.5 -128.5t-158.5 -53.5q-87 0 -151 50.5t-64 143.5q0 58 31 109t105 127l15 15q-20 22 -37 40l-154 -163h-156l227 231
q-31 17 -61 17t-48.5 -17.5t-18.5 -44.5q0 -18 7 -36zM462 112q32 0 56 22t24 55q0 65 -62 153l-22 -24q-34 -37 -51.5 -64t-20 -39t-2.5 -30q0 -29 22 -51t56 -22z" />
    <glyph glyph-name="gjJH_RA" horiz-adv-x="796" 
d="M705 0h-162q66 107 66 215q0 66 -31 108l-97 -211h-144l127 262q-37 -2 -79 -16q-22 -85 -91.5 -134.5t-158.5 -49.5q-48 0 -102 16v123q43 -16 82 -16q56 0 94.5 35t38.5 94q0 58 -35 94t-92 36q-37 0 -70 -13v123q42 12 84 12q91 0 161.5 -52t90.5 -141q47 11 86 11
q13 0 39 -2l78 177h156l-106 -223q116 -78 116 -240q0 -110 -51 -208z" />
    <glyph glyph-name="gjTT_RA" horiz-adv-x="550" 
d="M92 512v134q73 32 174 32t171 -55.5t70 -145.5q0 -132 -159 -183q-11 -4 -41 -12t-46.5 -14t-37 -16.5t-30.5 -27t-10 -37.5q0 -28 20 -45.5t42 -22.5t47 -5q110 0 209 54v-134q-39 -19 -80 -29l126 -142h-170l-92 119l-92 -119h-170l137 155q-123 56 -123 185
q0 142 193 194q29 8 41 11.5t33.5 12t31 16.5t17.5 20.5t8 27.5q0 38 -32.5 54t-74.5 16q-85 0 -162 -43z" />
    <glyph glyph-name="gjTTH_RA" horiz-adv-x="613" 
d="M310 112q60 0 95 25t35 66q0 40 -35 64.5t-95 24.5q-61 0 -96.5 -25t-35.5 -65t35.5 -65t96.5 -25zM47 -137l133 150q-68 26 -106.5 75.5t-38.5 113.5q0 58 33 101.5t92 67.5q-77 51 -77 131q0 85 67.5 130.5t177.5 45.5q97 0 178 -24v-124q-89 26 -173 26
q-105 0 -105 -65q0 -18 10.5 -31.5t31.5 -22.5t39 -14t48 -11.5t44 -10.5q79 -22 130.5 -70t51.5 -128q0 -65 -38.5 -114.5t-106.5 -74.5l133 -151h-170l-92 119l-92 -119h-170z" />
    <glyph glyph-name="gjDD_RA" horiz-adv-x="549" 
d="M466 653v-128q-76 30 -164 30q-114 0 -114 -70q0 -15 8 -27.5t17.5 -20.5t31 -16.5t33.5 -12t41 -11.5q200 -53 200 -201q0 -123 -109 -174l141 -159h-170l-92 119l-92 -119h-170l123 139q-56 10 -105 35v134q104 -57 219 -57q44 0 76.5 18.5t32.5 56.5q0 21 -10.5 36.5
t-32 26.5t-39 17t-48 13.5t-42.5 11.5q-159 51 -159 186q0 91 65.5 144.5t179.5 53.5q108 0 179 -25z" />
    <glyph glyph-name="gjDDH_RA" horiz-adv-x="605" 
d="M467 671q24 -31 24 -79q0 -54 -33 -93t-79.5 -63.5t-93 -48.5t-79.5 -61t-33 -87q0 -61 43.5 -94t113.5 -33q47 0 84.5 18.5t37.5 62.5q0 22 -12 34.5t-28 12.5q-18 0 -29 -12.5t-11 -30.5q0 -17 5 -29h-123q-12 24 -12 57q0 62 49 97.5t118 35.5q83 0 133 -48.5
t50 -123.5q0 -60 -36 -104t-98 -67l134 -151h-170l-92 119l-92 -119h-170l134 152q-77 30 -124 92t-47 146q0 57 23.5 103.5t59 74.5t76.5 53t76.5 42t59 39t23.5 47q0 30 -23 58h141z" />
    <glyph glyph-name="gjT_RA" horiz-adv-x="656" 
d="M451 671h142v-671h-142v267l-310 -200l-77 106l270 162q-49 133 -162 133q-73 0 -147 -43v128q71 37 157 37q84 0 152 -49.5t107 -141.5l10 6v266z" />
    <glyph glyph-name="gjTH_RA" horiz-adv-x="695" 
d="M490 671h142v-671h-142v178l-237 -213h-187l173 151q-81 22 -139 88t-75 163q142 29 199.5 62t57.5 84q0 25 -13 38t-30 13q-47 0 -47 -54q0 -24 11 -53h-132q-11 33 -11 67q0 69 47 113t127 44q81 0 129.5 -48t48.5 -126q0 -83 -64 -141t-156 -80q35 -62 128 -62
q66 0 118 37.5t52 113.5v296z" />
    <glyph glyph-name="gjD_RA" horiz-adv-x="567" 
d="M379 -30v127l-144 -152h-182l131 132q-66 24 -107 79.5t-41 133.5q0 48 18 87t46.5 63.5t63.5 43.5t70 33.5t63.5 27.5t46.5 30t18 38q0 32 -23 58h141q24 -31 24 -79q0 -45 -24 -79t-60.5 -53t-78.5 -38.5t-78.5 -35.5t-60.5 -44t-24 -64q0 -46 30 -72.5t74 -26.5
q41 0 69 24t28 64v12h140v-309h-140z" />
    <glyph glyph-name="gjDH_RA" horiz-adv-x="664" 
d="M459 671h142v-671h-142v147l-222 -192h-189l156 130q-70 17 -114.5 64.5t-44.5 117.5q0 69 44 107t105 51q-57 16 -96.5 57.5t-39.5 105.5q0 85 67 152h169v-11q-94 -87 -94 -162q0 -88 98 -88h45v-116h-61q-41 0 -66.5 -23t-25.5 -60q0 -40 31 -62t76 -22
q71 0 116.5 42.5t45.5 108.5v324z" />
    <glyph glyph-name="gjN_RA" horiz-adv-x="740" 
d="M539 671h138v-671h-138v75l-150 -137h-187l337 296v187h-136q48 -48 48 -119q0 -70 -58.5 -119t-148.5 -49q-97 0 -156.5 58t-59.5 143q0 92 61 146.5t164 54.5h286v135zM170 335q0 -37 20.5 -60t52.5 -23q33 0 53.5 23t20.5 60t-20.5 60t-52.5 23q-33 0 -53.5 -23
t-20.5 -60z" />
    <glyph glyph-name="gjP_RA" horiz-adv-x="605" 
d="M400 671h142v-671h-142v203l-182 -219h-176l168 197q-115 36 -115 194v141q0 38 -40 38q-16 0 -37 -7v117q29 7 70 7q62 0 105.5 -38t43.5 -104v-159q0 -87 77 -87q86 0 86 93v295z" />
    <glyph glyph-name="gjPH_RA" horiz-adv-x="581" 
d="M300 199h-149l89 113l-208 -60v122l91 16q-56 51 -56 119q0 80 67 124.5t174 44.5q96 0 177 -24v-124q-88 26 -172 26q-48 0 -76.5 -18t-28.5 -53q0 -50 77 -72l261 58v-120l-119 -12q111 -52 111 -158q0 -87 -61 -135.5t-148 -48.5q-67 0 -127 30v-126h-134v266h127
q4 -25 32.5 -40t66.5 -15q41 0 71.5 19t30.5 60q0 49 -60 84z" />
    <glyph glyph-name="gjB_RA" horiz-adv-x="804" 
d="M604 671h137v-671h-137v77l-178 -160h-189l367 323v8h-140q-36 -144 -202 -144q-46 0 -86.5 16t-73.5 49t-52.5 90t-19.5 133q0 143 80 214.5t200 71.5q72 0 126 -18v-123q-65 19 -116 19q-22 0 -41.5 -4t-39.5 -15.5t-34.5 -30t-23.5 -50t-9 -72.5q0 -98 24.5 -129.5
t63.5 -31.5q73 0 73 109v120h141v-87h130v306z" />
    <glyph glyph-name="gjBH_RA" horiz-adv-x="819" 
d="M266 54h-145q-91 145 -91 310q0 87 23.5 155t82 113.5t146.5 45.5q97 0 150.5 -58.5t53.5 -153.5v-33h132v238h138v-671h-138v136l-188 -176h-188l376 335v20h-132v-86h-124l-31 60q-29 57 -29 82q0 43 45 55v49q0 37 -16 60.5t-50 23.5q-46 0 -77.5 -49.5t-31.5 -156.5
q0 -166 94 -299z" />
    <glyph glyph-name="gjM_RA" horiz-adv-x="619" 
d="M417 671h139v-671h-139v133l-185 -173h-188l373 332v18h-171v-98h-119q-65 122 -65 153q0 43 45 55v96q0 38 -40 38q-16 0 -37 -7v117q29 7 70 7q61 0 103.5 -38t42.5 -104v-102h171v244z" />
    <glyph glyph-name="gjY_RA" horiz-adv-x="654" 
d="M449 671h142v-671h-142v176l-237 -211h-187l179 154q-73 25 -121.5 92t-53.5 171q83 12 132.5 41t49.5 71q0 30 -20.5 46t-51.5 16q-37 0 -76 -22v124q41 19 92 19q79 0 137 -52.5t58 -132.5q0 -137 -164 -187q9 -38 41.5 -58t75.5 -20q57 0 101.5 38.5t44.5 105.5v300z
" />
    <glyph glyph-name="gjV_RA" horiz-adv-x="663" 
d="M458 671h142v-671h-142v207l-232 -251h-185l178 190q-85 23 -137 91.5t-52 161.5q0 109 72 185t188 76q42 0 78 -8v-119q-27 5 -47 5q-70 0 -108 -41.5t-38 -101.5q0 -58 36.5 -99t102.5 -41q56 0 98 36t46 94v286z" />
    <glyph glyph-name="gjSH_RA" horiz-adv-x="743" 
d="M269 566q-27 0 -43.5 -17t-16.5 -46q0 -62 63 -97q59 35 59 96q0 26 -17 45t-45 19zM540 671h140v-671h-140v198l-251 -215l-107 77l212 170q-54 17 -102 39l-176 -129l-108 80l163 111q-100 75 -100 179q0 72 55.5 121.5t141.5 49.5q89 0 145 -48.5t56 -128.5
q0 -86 -78 -148q74 -29 149 -48v363z" />
    <glyph glyph-name="gjS_RA" horiz-adv-x="798" 
d="M28 254v122h144q61 0 96 22.5t35 65.5q0 45 -32.5 68.5t-85.5 23.5q-45 0 -87 -13v123q45 12 106 12q91 0 158 -44.5t82 -126.5h151v164h140v-671h-140v256l-74 -70h-183v10l257 185v9h-160q-22 -56 -74.5 -90t-122.5 -43v-7q0 -72 39 -103.5t96 -31.5q35 0 70 9v-124
q-30 -7 -86 -7q-50 0 -95 15.5t-81.5 46.5t-59 82t-24.5 117h-69z" />
    <glyph glyph-name="gjH_RA" horiz-adv-x="622" 
d="M479 216v113q0 5 -2 13l-151 -137l-83 85l111 87q22 17 48 29q-20 10 -42 24q-29 17 -43.5 27.5t-36 30.5t-31 45t-9.5 56q0 50 30 82h134v-4q-28 -30 -28 -67q0 -30 22.5 -54t55 -41.5t64.5 -38t54.5 -54.5t22.5 -80v-116h-116zM597 156v-127q-86 -40 -202 -40
q-169 0 -267 94.5t-98 237.5q0 85 34 155h145q-39 -76 -39 -158q0 -90 58 -149t169 -59q110 0 200 46z" />
    <glyph glyph-name="gjK_R" horiz-adv-x="571" 
d="M313 556q-48 0 -76.5 -18t-28.5 -53q0 -48 64 -74l50 12q89 21 227 21h196v-109h-30q-245 0 -281 -3q101 -47 101 -151q0 -91 -73.5 -139.5t-185.5 -48.5q-115 0 -211 33v130q106 -41 215 -41q42 0 77.5 17t35.5 56q0 49 -58 85l-43 -92h-155l104 131l-209 -60v122l91 16
q-56 51 -56 119q0 80 67 124.5t174 44.5q96 0 177 -24v-124q-88 26 -172 26z" />
    <glyph glyph-name="gjKH_R" horiz-adv-x="584" 
d="M362 517h142v-97h246v-185l-311 -255h-194l410 323h-162q-19 -61 -68.5 -93.5t-125.5 -32.5q-96 0 -150 53t-54 149v137q0 38 -40 38q-16 0 -37 -7v117q29 7 70 7q62 0 105.5 -38t43.5 -104v-167q0 -67 62 -67q63 0 63 67v155z" />
    <glyph glyph-name="gjG_R" horiz-adv-x="433" 
d="M132 678q106 0 182 -64.5t76 -169.5t-76 -169.5t-182 -64.5q-53 0 -99 17v123q43 -17 85 -17q57 0 92 31t35 80t-35 80.5t-92 31.5q-37 0 -70 -13v123q42 12 84 12zM496 320l82 -90l-282 -250h-189z" />
    <glyph glyph-name="gjGH_R" horiz-adv-x="410" 
d="M590 250l-353 -295h-189l154 129q-69 15 -113 57.5t-44 104.5q0 60 39 95.5t107 47.5q-59 13 -96 48.5t-37 95.5q0 68 56 108.5t141 40.5q57 0 114 -12v-117q-44 11 -86 11q-32 0 -56.5 -14.5t-24.5 -47.5q0 -30 21.5 -45t52.5 -15h57v-119h-70q-31 0 -52 -16.5
t-21 -42.5q0 -33 27.5 -51.5t73.5 -18.5q113 0 189 116z" />
    <glyph glyph-name="gjC_R" horiz-adv-x="458" 
d="M23 312v119h163q35 0 61 14.5t26 48.5q0 30 -25 47t-63 17q-55 0 -103 -13v120q63 13 117 13q92 0 155 -50t63 -139q0 -81 -55 -127t-141 -50q5 -50 40 -75t87 -25q119 0 181 120l110 -60l-379 -317h-189l180 150q-65 21 -109 74.5t-53 132.5h-66z" />
    <glyph glyph-name="gjJ_R" horiz-adv-x="729" 
d="M681 175q0 -76 -56.5 -129t-156.5 -53q-83 0 -147 54.5t-64 147.5q0 58 39 122.5t106 119.5q-28 30 -39 41l-154 -163h-156l227 231q-31 17 -61 17t-48.5 -17.5t-18.5 -44.5q0 -18 7 -36h-139q-5 13 -5 38q0 76 56 125.5t138 49.5q83 0 152.5 -45t143.5 -128
q113 59 222 59q62 0 107 -11v-120q-39 11 -93 11q-79 0 -156 -36q96 -131 96 -233zM466 112q31 0 53.5 21.5t22.5 55.5q0 67 -62 153q-87 -76 -87 -155q0 -28 20 -51.5t53 -23.5z" />
    <glyph glyph-name="gjJH_R" horiz-adv-x="766" 
d="M705 0h-162q66 107 66 215q0 66 -31 108l-97 -211h-144l127 262q-37 -2 -79 -16q-22 -85 -91.5 -134.5t-158.5 -49.5q-48 0 -102 16v123q43 -16 82 -16q56 0 94.5 35t38.5 94q0 58 -35 94t-92 36q-37 0 -70 -13v123q42 12 84 12q91 0 161.5 -52t90.5 -141q47 11 86 11
q127 0 205 -79t78 -209q0 -110 -51 -208z" />
    <glyph glyph-name="gjTT_R" horiz-adv-x="550" 
d="M358 -197l142 -176h-168l-120 176h146zM92 512v134q73 32 174 32t171 -55.5t70 -145.5q0 -132 -159 -183q-11 -4 -41 -12t-46.5 -14t-37 -16.5t-30.5 -27t-10 -37.5q0 -28 20 -45.5t42 -22.5t47 -5q110 0 209 54v-134q-39 -19 -80 -29l126 -142h-170l-92 119l-92 -119
h-170l137 155q-123 56 -123 185q0 142 193 194q29 8 41 11.5t33.5 12t31 16.5t17.5 20.5t8 27.5q0 38 -32.5 54t-74.5 16q-85 0 -162 -43z" />
    <glyph glyph-name="gjTTH_R" horiz-adv-x="613" 
d="M47 -137l133 150q-68 26 -106.5 75.5t-38.5 113.5q0 58 33 101.5t92 67.5q-77 51 -77 131q0 85 67.5 130.5t177.5 45.5q97 0 178 -24v-124q-89 26 -173 26q-105 0 -105 -65q0 -18 10.5 -31.5t31.5 -22.5t39 -14t48 -11.5t44 -10.5q79 -22 130.5 -70t51.5 -128
q0 -65 -38.5 -114.5t-106.5 -74.5l133 -151h-170l-92 119l-92 -119h-170zM310 112q60 0 95 25t35 66q0 40 -35 64.5t-95 24.5q-61 0 -96.5 -25t-35.5 -65t35.5 -65t96.5 -25zM381 -197l142 -176h-168l-120 176h146z" />
    <glyph glyph-name="gjDD_R" horiz-adv-x="549" 
d="M27 -137l123 139q-56 10 -105 35v134q104 -57 219 -57q44 0 76.5 18.5t32.5 56.5q0 21 -10.5 36.5t-32 26.5t-39 17t-48 13.5t-42.5 11.5q-159 51 -159 186q0 91 65.5 144.5t179.5 53.5q108 0 179 -25v-128q-76 30 -164 30q-114 0 -114 -70q0 -15 8 -27.5t17.5 -20.5
t31 -16.5t33.5 -12t41 -11.5q200 -53 200 -201q0 -123 -109 -174l141 -159h-170l-92 119l-92 -119h-170zM362 -197l142 -176h-168l-120 176h146z" />
    <glyph glyph-name="gjDDH_R" horiz-adv-x="605" 
d="M63 -136l136 154q-76 30 -122 91.5t-46 144.5q0 57 23.5 103.5t59 74.5t76.5 53t76.5 42t59 39t23.5 47q0 30 -23 58h141q24 -31 24 -79q0 -54 -33 -93t-79.5 -63.5t-93 -48.5t-79.5 -61t-33 -87q0 -61 43.5 -94t113.5 -33q47 0 84.5 18.5t37.5 62.5q0 22 -12 34.5
t-28 12.5q-18 0 -29 -12.5t-11 -30.5q0 -17 5 -29h-123q-12 24 -12 57q0 62 49 97.5t118 35.5q83 0 133 -48.5t50 -123.5q0 -61 -37 -105t-100 -67l132 -150h-170l-92 119l-92 -119h-170zM395 -197l142 -176h-168l-120 176h146z" />
    <glyph glyph-name="gjT_R" horiz-adv-x="424" 
d="M141 67l-77 106l270 162q-49 133 -162 133q-73 0 -147 -43v128q71 37 157 37q84 0 152 -49.5t107 -141.5l38 23l27 -120z" />
    <glyph glyph-name="gjTH_R" horiz-adv-x="445" 
d="M617 277l-364 -312h-187l173 151q-81 22 -139 88t-75 163q142 29 199.5 62t57.5 84q0 25 -13 38t-30 13q-47 0 -47 -54q0 -24 11 -53h-132q-11 33 -11 67q0 69 47 113t127 44q81 0 129.5 -48t48.5 -126q0 -83 -64 -141t-156 -80q35 -62 128 -62q134 0 211 127z" />
    <glyph glyph-name="gjD_R" horiz-adv-x="567" 
d="M379 -30v127l-144 -152h-182l131 132q-66 24 -107 79.5t-41 133.5q0 48 18 87t46.5 63.5t63.5 43.5t70 33.5t63.5 27.5t46.5 30t18 38q0 32 -23 58h141q24 -31 24 -79q0 -45 -24 -79t-60.5 -53t-78.5 -38.5t-78.5 -35.5t-60.5 -44t-24 -64q0 -46 30 -72.5t74 -26.5
q41 0 69 24t28 64v12h140v-309h-140zM437 -103l142 -176h-168l-120 176h146z" />
    <glyph glyph-name="gjDH_R" horiz-adv-x="413" 
d="M587 245l-350 -290h-189l156 130q-70 17 -114.5 64.5t-44.5 117.5q0 69 44 107t105 51q-57 16 -96.5 57.5t-39.5 105.5q0 85 67 152h169v-11q-94 -87 -94 -162q0 -88 98 -88h45v-116h-61q-41 0 -66.5 -23t-25.5 -60q0 -40 31 -62t76 -22q112 0 186 114z" />
    <glyph glyph-name="gjN_R" horiz-adv-x="496" 
d="M451 302q0 -70 -58.5 -119t-148.5 -49q-97 0 -156.5 58t-59.5 143q0 92 61 146.5t164 54.5h409v-115h-259q48 -48 48 -119zM170 335q0 -37 20.5 -60t52.5 -23q33 0 53.5 23t20.5 60t-20.5 60t-52.5 23q-33 0 -53.5 -23t-20.5 -60zM662 346v-160l-273 -248h-187z" />
    <glyph glyph-name="gjP_R" horiz-adv-x="365" 
d="M494 303l-276 -319h-176l168 197q-115 36 -115 194v141q0 38 -40 38q-16 0 -37 -7v117q29 7 70 7q62 0 105.5 -38t43.5 -104v-159q0 -87 77 -87q69 0 118 81z" />
    <glyph glyph-name="gjPH_R" horiz-adv-x="571" 
d="M300 199h-149l89 113l-208 -60v122l91 16q-56 51 -56 119q0 80 67 124.5t174 44.5q96 0 177 -24v-124q-88 26 -172 26q-48 0 -76.5 -18t-28.5 -53q0 -48 64 -74l50 12q89 21 227 21h196v-109h-37q-244 0 -277 -4q105 -49 105 -155q0 -85 -60.5 -132t-146.5 -47
q-67 0 -127 30v-126h-134v266h127q4 -25 32.5 -40t66.5 -15q41 0 71.5 19t30.5 60q0 49 -60 84z" />
    <glyph glyph-name="gjB_R" horiz-adv-x="554" 
d="M436 660v-123q-65 19 -116 19q-22 0 -41.5 -4t-39.5 -15.5t-34.5 -30t-23.5 -50t-9 -72.5q0 -98 24.5 -129.5t63.5 -31.5q73 0 73 109v120h141v-87h246v-183l-294 -265h-189l376 331h-149q-36 -144 -202 -144q-46 0 -86.5 16t-73.5 49t-52.5 90t-19.5 133q0 143 80 214.5
t200 71.5q72 0 126 -18z" />
    <glyph glyph-name="gjBH_R" horiz-adv-x="566" 
d="M266 54h-145q-91 145 -91 310q0 87 23.5 155t82 113.5t146.5 45.5q97 0 150.5 -58.5t53.5 -153.5v-33h254v-182l-310 -291h-188l398 355h-154v-86h-124l-31 60q-29 57 -29 82q0 43 45 55v49q0 37 -16 60.5t-50 23.5q-46 0 -77.5 -49.5t-31.5 -156.5q0 -166 94 -299z" />
    <glyph glyph-name="gjM_R" horiz-adv-x="349" 
d="M246 529v-102h261v-209l-275 -258h-188l394 350h-192v-98h-119q-65 122 -65 153q0 43 45 55v96q0 38 -40 38q-16 0 -37 -7v117q29 7 70 7q61 0 103.5 -38t42.5 -104z" />
    <glyph glyph-name="gjY_R" horiz-adv-x="409" 
d="M565 269l-355 -304h-187l184 152q-75 23 -125 91t-55 174q83 12 132.5 41t49.5 71q0 30 -20.5 46t-51.5 16q-37 0 -76 -22v124q41 19 92 19q79 0 137 -52.5t58 -132.5q0 -137 -164 -187q9 -38 41.5 -58t75.5 -20q118 0 193 100z" />
    <glyph glyph-name="gjV_R" horiz-adv-x="409" 
d="M567 272l-341 -316h-185l213 183q-99 14 -161.5 85.5t-62.5 174.5q0 109 72 185t188 76q42 0 78 -8v-119q-27 5 -47 5q-70 0 -108 -41.5t-38 -101.5q0 -57 41 -98.5t108 -41.5q112 0 171 90z" />
    <glyph glyph-name="gjS_R" horiz-adv-x="555" 
d="M28 254v122h144q61 0 96 22.5t35 65.5q0 45 -32.5 68.5t-85.5 23.5q-45 0 -87 -13v123q45 12 106 12q91 0 158 -44.5t82 -126.5h216v-190l-139 -131h-183v10l269 194h-172q-22 -56 -74.5 -90t-122.5 -43v-7q0 -72 39 -103.5t96 -31.5q35 0 70 9v-124q-30 -7 -86 -7
q-50 0 -95 15.5t-81.5 46.5t-59 82t-24.5 117h-69z" />
    <glyph glyph-name="gjK_KA" horiz-adv-x="1098" 
d="M808 -7q-130 0 -228 46v130q108 -54 215 -54q42 0 77.5 17t35.5 56q0 41 -30 63t-90 44l-297 -7q44 -42 44 -107q0 -83 -68 -135.5t-174 -52.5q-130 0 -228 46v130q108 -54 215 -54q42 0 77.5 17t35.5 56q0 37 -24.5 57.5t-75.5 40.5l-261 -45v119l99 14q-65 53 -65 130
q0 82 67 128t175 46q96 0 177 -24v-124q-88 26 -172 26q-48 0 -76.5 -18t-28.5 -53q0 -30 26.5 -49.5t78.5 -40.5l307 8q-39 42 -39 100q0 82 67 128.5t175 46.5q96 0 177 -24v-124q-88 26 -172 26q-48 0 -76.5 -18t-28.5 -53q0 -43 62 -72l278 47v-118l-105 -15
q92 -53 92 -146q0 -83 -68 -135.5t-174 -52.5z" />
    <glyph glyph-name="gjK_KHA" horiz-adv-x="1401" 
d="M1196 671h142v-671h-142v299h-129q-9 -83 -62 -127.5t-142 -44.5q-96 0 -150 53t-54 149v6q-194 0 -225 -3q101 -47 101 -151q0 -83 -68 -135.5t-174 -52.5q-130 0 -228 46v130q108 -54 215 -54q42 0 77.5 17t35.5 56q0 40 -30 61.5t-85 38.5l-246 -62v122l100 23
q-66 47 -66 127q0 85 66 132.5t176 47.5q96 0 177 -24v-124q-88 26 -172 26q-48 0 -76.5 -18t-28.5 -53q0 -48 64 -74l50 12q89 21 227 21h110v72q0 38 -40 38q-16 0 -37 -7v117q29 7 70 7q62 0 105.5 -38t43.5 -104v-217q0 -67 62 -67q63 0 63 67v205h142v-101h128v255z
" />
    <glyph glyph-name="gjK_CA" horiz-adv-x="1242" 
d="M1037 347v324h142v-671h-142v164q-25 -33 -69.5 -52.5t-95.5 -19.5q-93 0 -162 58.5t-81 161.5h-53q-41 36 -79 36q-27 0 -76 -15q114 -44 114 -152q0 -83 -68 -135.5t-174 -52.5q-130 0 -228 46v130q108 -54 215 -54q42 0 77.5 17t35.5 56q0 40 -30 61.5t-85 38.5
l-246 -62v122l100 23q-66 47 -66 127q0 85 66 132.5t176 47.5q96 0 177 -24v-124q-88 26 -172 26q-48 0 -76.5 -18t-28.5 -53q0 -47 62 -73q162 43 201 46q12 1 23 1q59 0 109 -28h123q35 0 61 14.5t26 48.5q0 30 -25 47t-63 17q-55 0 -103 -13v120q63 13 117 13
q92 0 155 -50t63 -139q0 -81 -55 -127t-141 -50q5 -50 40 -75t87 -25q66 0 107.5 38t41.5 97z" />
    <glyph glyph-name="gjK_JA" horiz-adv-x="1284" 
d="M998 112q31 0 54.5 22t23.5 55q0 64 -64 148l-18 -19q-34 -37 -51.5 -64t-20 -39t-2.5 -30q0 -29 22 -51t56 -22zM1000 -7q-88 0 -154.5 50.5t-66.5 143.5q0 59 30 110.5t103 125.5l14 14q-55 61 -94.5 90t-76.5 29q-26 0 -44 -15.5t-18 -42.5q0 -25 18.5 -42t46.5 -17
q23 0 42 7v-114q-22 -10 -67 -10q-31 0 -90 2.5t-88 2.5q-72 0 -113 -4q93 -46 93 -142q0 -83 -68 -135.5t-174 -52.5q-130 0 -228 46v130q108 -54 215 -54q42 0 77.5 17t35.5 56q0 40 -30 61.5t-85 38.5l-246 -62v122l100 23q-66 47 -66 127q0 85 66 132.5t176 47.5
q96 0 177 -24v-124q-88 26 -172 26q-48 0 -76.5 -18t-28.5 -53q0 -51 76 -79l8 2q119 29 231 29q39 0 58 -1q-24 38 -24 80q0 71 53.5 116.5t134.5 45.5q76 0 141 -38.5t132 -108.5l138 140h154v-11l-209 -226q116 -147 116 -259q0 -75 -58.5 -128.5t-158.5 -53.5z" />
    <glyph glyph-name="gjK_TTA" horiz-adv-x="1126" 
d="M668 512v134q73 32 174 32t171 -55.5t70 -145.5q0 -132 -159 -183q-11 -4 -41 -12t-46.5 -14t-37 -16.5t-30.5 -27t-10 -37.5q0 -28 20 -45.5t42 -22.5t47 -5q110 0 209 54v-134q-81 -42 -205 -42q-111 0 -185 55.5t-74 155.5q0 65 40 110q-62 25 -139 25q-41 0 -81 -6
q102 -47 102 -151q0 -83 -68 -135.5t-174 -52.5q-130 0 -228 46v130q108 -54 215 -54q42 0 77.5 17t35.5 56q0 40 -30 61.5t-85 38.5l-246 -62v122l100 23q-66 47 -66 127q0 85 66 132.5t176 47.5q96 0 177 -24v-124q-88 26 -172 26q-48 0 -76.5 -18t-28.5 -53q0 -48 64 -74
l50 12q107 25 198 25q144 0 245 -64q18 6 41 13q29 8 41 11.5t33.5 12t31 16.5t17.5 20.5t8 27.5q0 38 -32.5 54t-74.5 16q-85 0 -162 -43z" />
    <glyph glyph-name="gjK_NNA" horiz-adv-x="1462" 
d="M1257 671h142v-671h-142v671zM777 671v-398q0 -85 56.5 -121.5t145.5 -36.5q50 0 102 12.5t83 28.5v-125q-83 -38 -175 -38q-55 0 -104.5 9.5t-96 32.5t-80 57t-53.5 86.5t-20 118.5v38q-157 0 -201 -3q101 -47 101 -151q0 -83 -68 -135.5t-174 -52.5q-130 0 -228 46v130
q108 -54 215 -54q42 0 77.5 17t35.5 56q0 40 -30 61.5t-85 38.5l-246 -62v122l100 23q-66 47 -66 127q0 85 66 132.5t176 47.5q96 0 177 -24v-124q-88 26 -172 26q-48 0 -76.5 -18t-28.5 -53q0 -48 64 -74l50 12q89 21 227 21h86v227h142zM953 671q102 0 161.5 -63
t59.5 -148t-59 -148t-162 -63q-43 0 -75 10v120q25 -8 56 -8q48 0 75 26.5t27 62.5t-27 62.5t-75 26.5q-31 0 -56 -8v120q32 10 75 10z" />
    <glyph glyph-name="gjK_TA" horiz-adv-x="1199" 
d="M994 671h142v-671h-142v388h-109q-61 0 -95.5 -36.5t-34.5 -102.5q0 -61 27 -95.5t79 -34.5q17 0 36 3v-117q-25 -5 -50 -5q-103 0 -168.5 70t-65.5 182q0 77 40 128q-33 -7 -217 -50q99 -47 99 -149q0 -83 -68 -135.5t-174 -52.5q-130 0 -228 46v130q108 -54 215 -54
q42 0 77.5 17t35.5 56q0 40 -30 61.5t-85 38.5l-246 -62v122l100 23q-66 47 -66 127q0 85 66 132.5t176 47.5q96 0 177 -24v-124q-88 26 -172 26q-48 0 -76.5 -18t-28.5 -53q0 -46 65 -75l207 47q217 49 358 49h156v165z" />
    <glyph glyph-name="gjK_T_YA" horiz-adv-x="1584" 
d="M485 654v-124q-88 26 -172 26q-48 0 -76.5 -18t-28.5 -53q0 -46 65 -75l74 17q267 60 472 60q139 0 217 -88q105 33 105 95q0 30 -20.5 46t-51.5 16q-37 0 -76 -22v124q41 19 92 19q79 0 137 -52.5t58 -132.5q0 -140 -174 -190q44 -75 127 -75q57 0 101.5 38.5
t44.5 105.5v300h142v-671h-142v181q-27 -35 -71.5 -55t-95.5 -20q-44 0 -81 14t-62 37t-46.5 50.5t-40 55t-36.5 50.5t-41.5 37t-51.5 14q-48 0 -73 -32t-25 -83q0 -61 27 -95.5t79 -34.5q17 0 36 3v-117q-25 -5 -50 -5q-103 0 -168.5 70t-65.5 182q0 68 36 113
q-98 -7 -213 -35q99 -47 99 -149q0 -83 -68 -135.5t-174 -52.5q-130 0 -228 46v130q108 -54 215 -54q42 0 77.5 17t35.5 56q0 40 -30 61.5t-85 38.5l-246 -62v122l100 23q-66 47 -66 127q0 85 66 132.5t176 47.5q96 0 177 -24z" />
    <glyph glyph-name="gjK_T_RA" horiz-adv-x="1189" 
d="M674 2l-77 106l269 162q-51 114 -171 114q-14 0 -30 -2t-44 -8t-45.5 -10t-66 -15.5t-73.5 -17.5q99 -49 99 -150q0 -83 -68 -135.5t-174 -52.5q-130 0 -228 46v130q108 -54 215 -54q42 0 77.5 17t35.5 56q0 40 -30 61.5t-85 38.5l-246 -62v122l100 23q-66 47 -66 127
q0 85 66 132.5t176 47.5q96 0 177 -24v-124q-88 26 -172 26q-48 0 -76.5 -18t-28.5 -53q0 -48 64 -74l208 50q156 38 231 38q179 0 262 -165l11 6v331h142v-671h-142v202z" />
    <glyph glyph-name="gjK_T_VA" horiz-adv-x="1564" 
d="M1359 671h142v-671h-142v208q-54 -72 -163 -72q-111 0 -185.5 71t-79.5 181h-46q-61 0 -95.5 -36.5t-34.5 -102.5q0 -61 27 -95.5t79 -34.5q17 0 36 3v-117q-25 -5 -50 -5q-103 0 -168.5 70t-65.5 182q0 77 40 128q-33 -7 -217 -50q99 -47 99 -149q0 -83 -68 -135.5
t-174 -52.5q-130 0 -228 46v130q108 -54 215 -54q42 0 77.5 17t35.5 56q0 40 -30 61.5t-85 38.5l-246 -62v122l100 23q-66 47 -66 127q0 85 66 132.5t176 47.5q96 0 177 -24v-124q-88 26 -172 26q-48 0 -76.5 -18t-28.5 -53q0 -46 65 -75l207 47q217 49 358 49h114
q29 69 91.5 111.5t147.5 42.5q42 0 78 -8v-119q-27 5 -47 5q-70 0 -108 -41.5t-38 -101.5q0 -58 36.5 -99t102.5 -41q56 0 98 36t46 94v286z" />
    <glyph glyph-name="gjK_DA" horiz-adv-x="1000" 
d="M877 -7q-102 0 -182 54t-80 149q0 62 40.5 101.5t102.5 51.5h-2h-15q-154 0 -201 -2.5t-107 -14.5q102 -47 102 -151q0 -83 -68 -135.5t-174 -52.5q-130 0 -228 46v130q108 -54 215 -54q42 0 77.5 17t35.5 56q0 40 -30 61.5t-85 38.5l-246 -62v122l100 23q-66 47 -66 127
q0 85 66 132.5t176 47.5q96 0 177 -24v-124q-88 26 -172 26q-48 0 -76.5 -18t-28.5 -53q0 -48 64 -74l50 12q155 38 260 38h49q-6 19 -6 43q0 84 65.5 129t162.5 45q88 0 165 -23v-123q-77 24 -146 24q-46 0 -74 -19.5t-28 -57.5q0 -37 26 -55.5t62 -18.5h99v-119h-100
q-40 0 -68.5 -20.5t-28.5 -62.5q0 -44 34.5 -66t87.5 -22q79 0 172 35v-125q-86 -32 -177 -32z" />
    <glyph glyph-name="gjK_NA" horiz-adv-x="1320" 
d="M1115 671h142v-671h-142v391h-130q49 -49 49 -118q0 -78 -58 -128.5t-152 -50.5q-96 0 -155 57.5t-59 141.5q0 48 23 83q-45 -9 -197 -46q99 -47 99 -149q0 -83 -68 -135.5t-174 -52.5q-130 0 -228 46v130q108 -54 215 -54q42 0 77.5 17t35.5 56q0 40 -30 61.5t-85 38.5
l-246 -62v122l100 23q-66 47 -66 127q0 85 66 132.5t176 47.5q96 0 177 -24v-124q-88 26 -172 26q-48 0 -76.5 -18t-28.5 -53q0 -46 65 -75l207 47q217 49 353 49h282v165zM750 300q0 -39 20.5 -63.5t52.5 -24.5q33 0 53.5 24.5t20.5 63.5t-20.5 63.5t-52.5 24.5
q-33 0 -53.5 -24.5t-20.5 -63.5z" />
    <glyph glyph-name="gjK_PA" horiz-adv-x="1155" 
d="M950 376v295h142v-671h-142v206q-47 -35 -117 -35q-167 0 -186 164q-168 0 -213 -3q101 -47 101 -151q0 -83 -68 -135.5t-174 -52.5q-130 0 -228 46v130q108 -54 215 -54q42 0 77.5 17t35.5 56q0 40 -30 61.5t-85 38.5l-246 -62v122l100 23q-66 47 -66 127q0 85 66 132.5
t176 47.5q96 0 177 -24v-124q-88 26 -172 26q-48 0 -76.5 -18t-28.5 -53q0 -48 64 -74l50 12q89 21 227 21h96v72q0 38 -40 38q-16 0 -37 -7v117q29 7 70 7q62 0 105.5 -38t43.5 -104v-159q0 -87 77 -87q86 0 86 93z" />
    <glyph glyph-name="gjK_P_RA" horiz-adv-x="1155" 
d="M950 671h142v-671h-142v203l-182 -219h-176l168 197q-100 31 -113 154q-168 0 -213 -3q101 -47 101 -151q0 -83 -68 -135.5t-174 -52.5q-130 0 -228 46v130q108 -54 215 -54q42 0 77.5 17t35.5 56q0 40 -30 61.5t-85 38.5l-246 -62v122l100 23q-66 47 -66 127
q0 85 66 132.5t176 47.5q96 0 177 -24v-124q-88 26 -172 26q-48 0 -76.5 -18t-28.5 -53q0 -48 64 -74l50 12q89 21 227 21h96v72q0 38 -40 38q-16 0 -37 -7v117q29 7 70 7q62 0 105.5 -38t43.5 -104v-159q0 -87 77 -87q86 0 86 93v295z" />
    <glyph glyph-name="gjK_PHA" horiz-adv-x="1103" 
d="M849 -3q-67 0 -127 30v-126h-134v278h130q7 -31 36 -48t65 -17q40 0 68.5 19.5t28.5 54.5q0 41 -35 65t-90 42l-300 -7q44 -42 44 -107q0 -83 -68 -135.5t-174 -52.5q-130 0 -228 46v130q108 -54 215 -54q42 0 77.5 17t35.5 56q0 37 -24.5 57.5t-75.5 40.5l-261 -45v119
l99 14q-65 53 -65 130q0 82 67 128t175 46q96 0 177 -24v-124q-88 26 -172 26q-48 0 -76.5 -18t-28.5 -53q0 -30 26.5 -49.5t78.5 -40.5l312 8q-39 41 -39 97q0 85 66 131.5t176 46.5q96 0 177 -24v-124q-88 26 -172 26q-48 0 -76.5 -18t-28.5 -53q0 -43 62 -72l278 47v-118
l-105 -15q93 -52 93 -146q0 -87 -60.5 -135.5t-146.5 -48.5z" />
    <glyph glyph-name="gjK_MA" horiz-adv-x="1176" 
d="M971 671h142v-671h-142v256h-168v-117h-115l-36 80q-23 52 -23 72q0 29 19 44q-169 0 -214 -3q101 -47 101 -151q0 -83 -68 -135.5t-174 -52.5q-130 0 -228 46v130q108 -54 215 -54q42 0 77.5 17t35.5 56q0 40 -30 61.5t-85 38.5l-246 -62v122l100 23q-66 47 -66 127
q0 85 66 132.5t176 47.5q96 0 177 -24v-124q-88 26 -172 26q-48 0 -76.5 -18t-28.5 -53q0 -48 64 -74l50 12q89 21 227 21h119v72q0 38 -40 38q-16 0 -37 -7v117q29 7 70 7q60 0 101 -38t41 -104v-156h168v298z" />
    <glyph glyph-name="gjK_YA" horiz-adv-x="1215" 
d="M1010 671h142v-671h-142v181q-56 -75 -167 -75q-83 0 -150.5 52.5t-91.5 149.5q-45 29 -103 29q-28 0 -65 -5q102 -47 102 -151q0 -83 -68 -135.5t-174 -52.5q-130 0 -228 46v130q108 -54 215 -54q42 0 77.5 17t35.5 56q0 40 -30 61.5t-85 38.5l-246 -62v122l100 23
q-66 47 -66 127q0 85 66 132.5t176 47.5q96 0 177 -24v-124q-88 26 -172 26q-48 0 -76.5 -18t-28.5 -53q0 -48 64 -74l50 12q102 24 174 24q102 0 178 -46q98 34 98 93q0 30 -20.5 46t-51.5 16q-37 0 -76 -22v124q41 19 92 19q79 0 137 -52.5t58 -132.5q0 -137 -164 -187
q9 -38 41.5 -58t75.5 -20q57 0 101.5 38.5t44.5 105.5v300z" />
    <glyph glyph-name="gjK_LA" horiz-adv-x="1304" 
d="M1099 671h142v-671h-142v274h-230v122h230v275zM948 555q-87 0 -140 -62t-53 -158q0 -102 52.5 -160.5t140.5 -58.5q34 0 75 12v-121q-54 -14 -99 -14q-140 0 -227 95t-87 247q-136 0 -176 -3q101 -47 101 -151q0 -83 -68 -135.5t-174 -52.5q-130 0 -228 46v130
q108 -54 215 -54q42 0 77.5 17t35.5 56q0 40 -30 61.5t-85 38.5l-246 -62v122l100 23q-66 47 -66 127q0 85 66 132.5t176 47.5q96 0 177 -24v-124q-88 26 -172 26q-48 0 -76.5 -18t-28.5 -53q0 -48 64 -74l50 12q89 21 227 21h73q27 110 105.5 172t190.5 62q49 0 105 -14
v-121q-41 12 -75 12z" />
    <glyph glyph-name="gjK_VA" horiz-adv-x="1232" 
d="M1027 671h142v-671h-142v208q-54 -72 -163 -72q-97 0 -167.5 55t-90.5 144q-132 0 -172 -3q101 -47 101 -151q0 -83 -68 -135.5t-174 -52.5q-130 0 -228 46v130q108 -54 215 -54q42 0 77.5 17t35.5 56q0 40 -30 61.5t-85 38.5l-246 -62v122l100 23q-66 47 -66 127
q0 85 66 132.5t176 47.5q96 0 177 -24v-124q-88 26 -172 26q-48 0 -76.5 -18t-28.5 -53q0 -48 64 -74l50 12q89 21 227 21h54q15 94 83.5 155t172.5 61q42 0 78 -8v-119q-27 5 -47 5q-70 0 -108 -41.5t-38 -101.5q0 -58 36.5 -99t102.5 -41q56 0 98 36t46 94v286z" />
    <glyph glyph-name="gjK_V_YA" horiz-adv-x="1612" 
d="M1407 671h142v-671h-142v181q-56 -75 -167 -75q-104 0 -176 75q-79 -48 -177 -48q-97 0 -176 56t-103 146q-134 0 -174 -3q101 -47 101 -151q0 -83 -68 -135.5t-174 -52.5q-130 0 -228 46v130q108 -54 215 -54q42 0 77.5 17t35.5 56q0 40 -30 61.5t-85 38.5l-246 -62v122
l100 23q-66 47 -66 127q0 85 66 132.5t176 47.5q96 0 177 -24v-124q-88 26 -172 26q-48 0 -76.5 -18t-28.5 -53q0 -48 64 -74l50 12q89 21 227 21h53q14 94 83 155t174 61q42 0 78 -8v-119q-27 5 -47 5q-69 0 -107.5 -41t-38.5 -100t41 -100.5t110 -41.5q61 0 109 31
q-14 44 -17 96q83 12 132.5 41t49.5 71q0 30 -20.5 46t-51.5 16q-37 0 -76 -22v124q41 19 92 19q79 0 137 -52.5t58 -132.5q0 -137 -164 -187q9 -38 41.5 -58t75.5 -20q57 0 101.5 38.5t44.5 105.5v300z" />
    <glyph glyph-name="gjK_SHA" horiz-adv-x="1327" 
d="M911 -7q-106 0 -179.5 65t-79.5 187q-83 90 -192 90q-14 0 -28 -3q103 -45 103 -151q0 -83 -68 -135.5t-174 -52.5q-130 0 -228 46v130q108 -54 215 -54q42 0 77.5 17t35.5 56q0 40 -30 61.5t-85 38.5l-246 -62v122l100 23q-66 47 -66 127q0 85 66 132.5t176 47.5
q96 0 177 -24v-124q-88 26 -172 26q-48 0 -76.5 -18t-28.5 -53q0 -47 63 -74l48 12q96 23 155 23q132 0 225 -79h44q62 0 107 29.5t45 91.5q0 36 -14 56t-40 20q-27 0 -41 -21.5t-14 -52.5q0 -22 8 -48h-138q-9 27 -9 68q0 76 53 125.5t136 49.5q91 0 147 -56t56 -159
q0 -99 -68.5 -157.5t-176.5 -66.5q1 -68 39.5 -99.5t97.5 -31.5q47 0 101 21v-123q-53 -20 -121 -20zM1122 671h142v-671h-142v671z" />
    <glyph glyph-name="gjK_SS_MA" horiz-adv-x="1141" 
d="M229 506q0 -52 47 -75q71 33 71 81q0 23 -15 38.5t-40 15.5q-28 0 -45.5 -17.5t-17.5 -42.5zM936 671h142v-671h-142v290h-168v-117h-119l-36 80q-12 25 -18 47h-187q-79 0 -149 23q-88 -48 -88 -105q0 -35 24 -56t60 -21q45 0 75 30.5t30 77.5h138v-249h-140v88
q-16 -23 -53 -40t-79 -17q-87 0 -142.5 50t-55.5 130q0 66 33.5 105.5t92.5 65.5q-57 54 -57 132q0 74 52.5 120.5t137.5 46.5q86 0 137 -43t51 -115q0 -66 -62 -116h33h183v109q0 38 -40 38q-16 0 -37 -7v117q29 7 70 7q61 0 103.5 -38t42.5 -104v-122h168v264z" />
    <glyph glyph-name="gjK_SS_M_YA" horiz-adv-x="2028" 
d="M1823 671h142v-671h-142v151q-56 -75 -167 -75q-79 0 -146.5 48.5t-92.5 140.5h-126v-117h-119l-36 80q-2 5 -5.5 13.5t-5.5 12.5h-345v-4q0 -69 36.5 -102t90.5 -33q43 0 90 18v-123q-47 -17 -110 -17q-101 0 -172.5 68t-75.5 193q-44 44 -81.5 62.5t-97.5 18.5
q-14 0 -28 -3q103 -45 103 -151q0 -83 -68 -135.5t-174 -52.5q-130 0 -228 46v130q108 -54 215 -54q42 0 77.5 17t35.5 56q0 40 -30 61.5t-85 38.5l-246 -62v122l100 23q-66 47 -66 127q0 85 66 132.5t176 47.5q96 0 177 -24v-124q-88 26 -172 26q-48 0 -76.5 -18t-28.5 -53
q0 -47 63 -74l48 12q95 23 155 23q120 0 209 -70h31q61 0 96 22.5t35 65.5q0 45 -32.5 68.5t-85.5 23.5q-45 0 -87 -13v123q45 12 106 12q98 0 169 -54.5t71 -144.5q0 -66 -41 -110h207v147q0 38 -40 38q-16 0 -37 -7v117q29 7 70 7q61 0 103.5 -38t42.5 -104v-153h126
q168 0 168 98q0 34 -20.5 53t-51.5 19q-37 0 -76 -22v124q41 19 92 19q79 0 137 -55.5t58 -139.5q0 -80 -47 -131t-117 -66q9 -38 41.5 -58t75.5 -20q57 0 101.5 38.5t44.5 105.5v330z" />
    <glyph glyph-name="gjK_SS_YA" horiz-adv-x="1171" 
d="M229 506q0 -50 46 -76q72 33 72 82q0 23 -15 38.5t-40 15.5q-28 0 -45.5 -17.5t-17.5 -42.5zM581 534v124q41 19 92 19q82 0 138.5 -55t56.5 -140q0 -63 -46 -110t-123 -64q30 -81 121 -81q57 0 101.5 38.5t44.5 105.5v300h142v-671h-142v181q-56 -75 -167 -75
q-79 0 -146 50t-93 144h-149q-84 0 -152 23q-88 -48 -88 -105q0 -35 24 -56t60 -21q45 0 75 30.5t30 77.5h138v-249h-140v88q-16 -23 -53 -40t-79 -17q-87 0 -142.5 50t-55.5 130q0 66 33.5 105.5t92.5 65.5q-57 54 -57 132q0 74 52.5 120.5t137.5 46.5q86 0 137 -43
t51 -115q0 -68 -62 -116h25h125q89 0 127.5 24.5t38.5 62.5q0 30 -20.5 46t-51.5 16q-37 0 -76 -22z" />
    <glyph glyph-name="gjK_SS_VA" horiz-adv-x="1194" 
d="M229 506q0 -52 54 -72q64 30 64 78q0 23 -15 38.5t-40 15.5q-28 0 -45.5 -17.5t-17.5 -42.5zM989 671h142v-671h-142v208q-54 -72 -163 -72q-90 0 -158 48t-94 128h-197q-55 0 -110 15q-47 -25 -71.5 -49.5t-24.5 -59.5t24 -56t60 -21q45 0 75 30.5t30 77.5h138v-249
h-140v88q-16 -23 -53 -40t-79 -17q-87 0 -142.5 50t-55.5 130q0 67 34.5 106.5t94.5 65.5q-60 53 -60 131q0 74 52.5 120.5t137.5 46.5q86 0 137 -43t51 -115q0 -61 -48 -104h135q7 102 77.5 171.5t181.5 69.5q42 0 78 -8v-119q-27 5 -47 5q-70 0 -108 -41.5t-38 -101.5
q0 -58 36.5 -99t102.5 -41q56 0 98 36t46 94v286z" />
    <glyph glyph-name="gjK_SA" horiz-adv-x="1332" 
d="M1127 671h142v-671h-142v287h-247q-43 -22 -100 -30v-7q0 -69 36.5 -102t90.5 -33q43 0 90 18v-123q-47 -17 -110 -17q-101 0 -172.5 68t-75.5 193q-44 44 -81.5 62.5t-97.5 18.5q-14 0 -28 -3q103 -45 103 -151q0 -83 -68 -135.5t-174 -52.5q-130 0 -228 46v130
q108 -54 215 -54q42 0 77.5 17t35.5 56q0 40 -30 61.5t-85 38.5l-246 -62v122l100 23q-66 47 -66 127q0 85 66 132.5t176 47.5q96 0 177 -24v-124q-88 26 -172 26q-48 0 -76.5 -18t-28.5 -53q0 -47 63 -74l48 12q95 23 155 23q120 0 209 -70h31q61 0 96 22.5t35 65.5
q0 45 -32.5 68.5t-85.5 23.5q-45 0 -87 -13v123q45 12 106 12q103 0 173.5 -56t70.5 -158q0 -31 -8 -60h145v267z" />
    <glyph glyph-name="gjK_S_TTA" horiz-adv-x="1596" 
d="M1342 -8q-107 0 -182.5 53.5t-75.5 144.5q0 61 32 101q-33 -4 -100 -4h-136q-43 -22 -100 -30v-7q0 -69 36.5 -102t90.5 -33q43 0 90 18v-123q-47 -17 -110 -17q-101 0 -172.5 68t-75.5 193q-44 44 -81.5 62.5t-97.5 18.5q-14 0 -28 -3q103 -45 103 -151
q0 -83 -68 -135.5t-174 -52.5q-130 0 -228 46v130q108 -54 215 -54q42 0 77.5 17t35.5 56q0 40 -30 61.5t-85 38.5l-246 -62v122l100 23q-66 47 -66 127q0 85 66 132.5t176 47.5q96 0 177 -24v-124q-88 26 -172 26q-48 0 -76.5 -18t-28.5 -53q0 -47 63 -74l48 12
q95 23 155 23q120 0 209 -70h31q61 0 96 22.5t35 65.5q0 45 -32.5 68.5t-85.5 23.5q-45 0 -87 -13v123q45 12 106 12q103 0 173.5 -56t70.5 -158q0 -31 -8 -60h233q192 0 192 81q0 38 -32.5 54t-74.5 16q-85 0 -162 -43v134q73 32 174 32t171 -55.5t70 -145.5
q0 -132 -159 -183q-11 -4 -41 -12t-46.5 -14t-37 -16.5t-30.5 -27t-10 -37.5q0 -28 20 -45.5t42 -22.5t47 -5q110 0 209 54v-134q-81 -42 -205 -42z" />
    <glyph glyph-name="gjK_S_DDA" horiz-adv-x="1607" 
d="M1318 -8q-130 0 -215 45v134q103 -57 219 -57q44 0 76.5 18.5t32.5 56.5q0 98 -254 98h-297q-43 -22 -100 -30v-7q0 -69 36.5 -102t90.5 -33q43 0 90 18v-123q-47 -17 -110 -17q-101 0 -172.5 68t-75.5 193q-44 44 -81.5 62.5t-97.5 18.5q-14 0 -28 -3q103 -45 103 -151
q0 -83 -68 -135.5t-174 -52.5q-130 0 -228 46v130q108 -54 215 -54q42 0 77.5 17t35.5 56q0 40 -30 61.5t-85 38.5l-246 -62v122l100 23q-66 47 -66 127q0 85 66 132.5t176 47.5q96 0 177 -24v-124q-88 26 -172 26q-48 0 -76.5 -18t-28.5 -53q0 -47 63 -74l48 12
q95 23 155 23q120 0 209 -70h31q61 0 96 22.5t35 65.5q0 45 -32.5 68.5t-85.5 23.5q-45 0 -87 -13v123q45 12 106 12q103 0 173.5 -56t70.5 -158q0 -37 -10 -64h27q73 0 132 -8q-36 41 -36 99q0 84 65 135.5t177 51.5q108 0 179 -25v-128q-76 30 -164 30q-114 0 -114 -70
q0 -19 9.5 -33.5t31.5 -24.5t39 -15.5t51 -14.5q200 -55 200 -201q0 -98 -71 -151t-188 -53z" />
    <glyph glyph-name="gjK_S_TA" horiz-adv-x="1654" 
d="M1449 671h142v-671h-142v388h-109q-61 0 -95.5 -36.5t-34.5 -102.5q0 -61 27 -95.5t79 -34.5q16 0 36 3v-117q-25 -5 -50 -5q-103 0 -168.5 70t-65.5 182q0 13 2 35h-190q-43 -22 -100 -30v-7q0 -69 36.5 -102t90.5 -33q43 0 90 18v-123q-47 -17 -110 -17
q-101 0 -172.5 68t-75.5 193q-44 44 -81.5 62.5t-97.5 18.5q-14 0 -28 -3q103 -45 103 -151q0 -83 -68 -135.5t-174 -52.5q-130 0 -228 46v130q108 -54 215 -54q42 0 77.5 17t35.5 56q0 40 -30 61.5t-85 38.5l-246 -62v122l100 23q-66 47 -66 127q0 85 66 132.5t176 47.5
q96 0 177 -24v-124q-88 26 -172 26q-48 0 -76.5 -18t-28.5 -53q0 -47 63 -74l48 12q95 23 155 23q120 0 209 -70h31q61 0 96 22.5t35 65.5q0 45 -32.5 68.5t-85.5 23.5q-45 0 -87 -13v123q45 12 106 12q103 0 173.5 -56t70.5 -158q0 -31 -8 -60h127q68 102 227 102h113v165z
" />
    <glyph glyph-name="gjK_S_P_RA" horiz-adv-x="1662" 
d="M1457 671h142v-671h-142v203l-182 -219h-176l168 197q-61 20 -89 73h-398v-4q0 -69 36.5 -102t90.5 -33q43 0 90 18v-123q-47 -17 -110 -17q-101 0 -172.5 68t-75.5 193q-44 44 -81.5 62.5t-97.5 18.5q-14 0 -28 -3q103 -45 103 -151q0 -83 -68 -135.5t-174 -52.5
q-130 0 -228 46v130q108 -54 215 -54q42 0 77.5 17t35.5 56q0 40 -30 61.5t-85 38.5l-246 -62v122l100 23q-66 47 -66 127q0 85 66 132.5t176 47.5q96 0 177 -24v-124q-88 26 -172 26q-48 0 -76.5 -18t-28.5 -53q0 -47 63 -74l48 12q95 23 155 23q120 0 209 -70h31
q61 0 96 22.5t35 65.5q0 45 -32.5 68.5t-85.5 23.5q-45 0 -87 -13v123q45 12 106 12q98 0 169 -54.5t71 -144.5q0 -66 -41 -110h207v6v141q0 38 -40 38q-16 0 -37 -7v117q29 7 70 7q62 0 105.5 -38t43.5 -104v-159q0 -87 77 -87q86 0 86 93v295z" />
    <glyph glyph-name="gjK_S_P_LA" horiz-adv-x="2141" 
d="M1936 671h142v-671h-142v274h-230v122h230v275zM1785 555q-87 0 -140 -62t-53 -158q0 -102 52.5 -160.5t140.5 -58.5q35 0 75 12v-121q-54 -14 -99 -14q-102 0 -178.5 53t-110.5 145q-54 -28 -111 -28q-124 0 -179 91h-402v-4q0 -69 36.5 -102t90.5 -33q43 0 90 18v-123
q-47 -17 -110 -17q-101 0 -172.5 68t-75.5 193q-44 44 -81.5 62.5t-97.5 18.5q-14 0 -28 -3q103 -45 103 -151q0 -83 -68 -135.5t-174 -52.5q-130 0 -228 46v130q108 -54 215 -54q42 0 77.5 17t35.5 56q0 40 -30 61.5t-85 38.5l-246 -62v122l100 23q-66 47 -66 127
q0 85 66 132.5t176 47.5q96 0 177 -24v-124q-88 26 -172 26q-48 0 -76.5 -18t-28.5 -53q0 -47 63 -74l48 12q95 23 155 23q120 0 209 -70h31q61 0 96 22.5t35 65.5q0 45 -32.5 68.5t-85.5 23.5q-45 0 -87 -13v123q45 12 106 12q98 0 169 -54.5t71 -144.5q0 -66 -41 -110h207
v6v141q0 38 -40 38q-16 0 -37 -7v117q29 7 70 7q62 0 105.5 -38t43.5 -104v-159q0 -87 77 -87q42 0 77 30q-1 7 -1 22q0 157 84.5 250t223.5 93q49 0 105 -14v-121q-40 12 -75 12z" />
    <glyph glyph-name="gjKH_KHA" horiz-adv-x="1385" 
d="M362 517h142v-101h139v100q0 38 -40 38q-16 0 -37 -7v117q29 7 70 7q62 0 105.5 -38t43.5 -104v-217q0 -67 62 -67q63 0 63 67v205h142v-101h128v255h142v-671h-142v299h-129q-9 -83 -62 -127.5t-142 -44.5q-88 0 -141 45t-62 127h-141q-9 -83 -62 -127.5t-142 -44.5
q-96 0 -150 53t-54 149v187q0 38 -40 38q-16 0 -37 -7v117q29 7 70 7q62 0 105.5 -38t43.5 -104v-217q0 -67 62 -67q63 0 63 67v205z" />
    <glyph glyph-name="gjKH_TA" horiz-adv-x="1197" 
d="M362 517h142v-101h156q71 90 219 90h113v165h142v-671h-142v388h-109q-61 0 -95.5 -36.5t-34.5 -102.5q0 -61 27 -95.5t79 -34.5q17 0 36 3v-117q-25 -5 -50 -5q-103 0 -168.5 70t-65.5 182q0 24 3 47h-111q-9 -83 -62 -127.5t-142 -44.5q-96 0 -150 53t-54 149v187
q0 38 -40 38q-16 0 -37 -7v117q29 7 70 7q62 0 105.5 -38t43.5 -104v-217q0 -67 62 -67q63 0 63 67v205z" />
    <glyph glyph-name="gjKH_NA" horiz-adv-x="1324" 
d="M362 517h142v-101h150q58 90 193 90h282v165h142v-671h-142v391h-130q49 -49 49 -118q0 -78 -58 -128.5t-152 -50.5q-97 0 -156.5 59t-59.5 146h-119q-9 -83 -62 -127.5t-142 -44.5q-96 0 -150 53t-54 149v187q0 38 -40 38q-16 0 -37 -7v117q29 7 70 7q62 0 105.5 -38
t43.5 -104v-217q0 -67 62 -67q63 0 63 67v205zM764 300q0 -39 20.5 -63.5t52.5 -24.5q33 0 53.5 24.5t20.5 63.5t-20.5 63.5t-52.5 24.5q-33 0 -53.5 -24.5t-20.5 -63.5z" />
    <glyph glyph-name="gjKH_MA" horiz-adv-x="1163" 
d="M362 487h142v-101h147v130q0 38 -40 38q-16 0 -37 -7v117q29 7 70 7q61 0 103.5 -38t42.5 -104v-143h168v285h142v-671h-142v269h-168v-130h-119l-36 80q-14 34 -20 50h-117q-16 -68 -67.5 -105t-131.5 -37q-96 0 -150 53t-54 149v187q0 38 -40 38q-16 0 -37 -7v117
q29 7 70 7q62 0 105.5 -38t43.5 -104v-217q0 -67 62 -67q63 0 63 67v175z" />
    <glyph glyph-name="gjKH_YA" horiz-adv-x="1210" 
d="M362 512h142v-106h95q168 0 168 88q0 30 -20.5 46t-51.5 16q-37 0 -76 -22v124q41 19 92 19q79 0 137 -52.5t58 -132.5q0 -75 -47 -123.5t-117 -63.5q9 -38 41.5 -58t75.5 -20q57 0 101.5 38.5t44.5 105.5v300h142v-671h-142v181q-56 -75 -167 -75q-79 0 -146.5 48.5
t-92.5 140.5h-97q-9 -80 -62 -124t-141 -44q-96 0 -150 53t-54 149v187q0 38 -40 38q-16 0 -37 -7v117q29 7 70 7q62 0 105.5 -38t43.5 -104v-217q0 -67 62 -67q63 0 63 67v200z" />
    <glyph glyph-name="gjKH_SHA" horiz-adv-x="1295" 
d="M362 507h142v-140h207q62 0 107 29.5t45 91.5q0 36 -14 56t-40 20q-27 0 -41 -21.5t-14 -52.5q0 -32 14 -62h-138q-15 34 -15 82q0 76 53 125.5t136 49.5q91 0 147 -56t56 -159q0 -97 -68.5 -154.5t-176.5 -64.5q1 -70 39.5 -103t97.5 -33q47 0 101 21v-123
q-53 -20 -121 -20q-106 0 -179.5 66.5t-79.5 190.5h-128q-20 -60 -69 -91.5t-124 -31.5q-96 0 -150 53t-54 149v187q0 38 -40 38q-16 0 -37 -7v117q29 7 70 7q62 0 105.5 -38t43.5 -104v-217q0 -67 62 -67q63 0 63 67v195zM1090 671h142v-671h-142v671z" />
    <glyph glyph-name="gjKH_SA" horiz-adv-x="1300" 
d="M362 507h142v-131h178q61 0 96 22.5t35 65.5q0 45 -32.5 68.5t-85.5 23.5q-45 0 -87 -13v123q45 12 106 12q103 0 173.5 -56t70.5 -158q0 -31 -8 -60h145v267h142v-671h-142v287h-247q-43 -22 -100 -30v-7q0 -69 36.5 -102t90.5 -33q43 0 90 18v-123q-47 -17 -110 -17
q-101 0 -172.5 68t-75.5 193h-113q-19 -61 -69.5 -94t-125.5 -33q-96 0 -150 53t-54 149v187q0 38 -40 38q-16 0 -37 -7v117q29 7 70 7q62 0 105.5 -38t43.5 -104v-217q0 -67 62 -67q63 0 63 67v195z" />
    <glyph glyph-name="gjG_NA" horiz-adv-x="1165" 
d="M132 678q106 0 182 -69.5t76 -182.5t-76 -182.5t-182 -69.5q-48 0 -99 17v123q40 -17 85 -17q57 0 92 36t35 93q0 58 -35 94t-92 36q-37 0 -70 -13v123q42 12 84 12zM970 671h142v-671h-142v391h-130q49 -49 49 -118q0 -78 -58 -128.5t-152 -50.5q-97 0 -156.5 59.5
t-59.5 146.5q0 94 61 150t164 56h282v165zM605 300q0 -39 20.5 -63.5t52.5 -24.5q33 0 53.5 24.5t20.5 63.5t-20.5 63.5t-52.5 24.5q-33 0 -53.5 -24.5t-20.5 -63.5z" />
    <glyph glyph-name="gjG_R_YA" horiz-adv-x="1077" 
d="M132 678q106 0 182 -64.5t76 -169.5t-76 -169.5t-182 -64.5q-53 0 -99 17v123q43 -17 85 -17q57 0 92 31t35 80t-35 80.5t-92 31.5q-37 0 -70 -13v123q42 12 84 12zM872 671h142v-671h-142v181q-56 -75 -167 -75q-108 0 -180 80l-229 -206h-189l359 315q-11 37 -14 87
q83 12 132.5 41t49.5 71q0 30 -20.5 46t-51.5 16q-37 0 -76 -22v124q41 19 92 19q79 0 137 -52.5t58 -132.5q0 -137 -164 -187q9 -38 41.5 -58t75.5 -20q57 0 101.5 38.5t44.5 105.5v300z" />
    <glyph glyph-name="gjGH_NA" horiz-adv-x="1134" 
d="M929 671h142v-671h-142v391h-130q49 -49 49 -118q0 -78 -58 -128.5t-152 -50.5q-92 0 -152 55q-92 -73 -213 -73q-92 0 -160 46.5t-68 123.5q0 60 39 95.5t107 47.5q-59 13 -96 48.5t-37 95.5q0 68 56 108.5t141 40.5q57 0 114 -12v-117q-44 11 -86 11q-32 0 -56.5 -14.5
t-24.5 -47.5q0 -30 21.5 -45t52.5 -15h57v-119h-70q-31 0 -52 -16.5t-21 -42.5q0 -33 27.5 -51.5t73.5 -18.5q79 0 137 53q-6 26 -6 53q0 94 61 150t164 56h282v165zM564 300q0 -39 20.5 -63.5t52.5 -24.5q33 0 53.5 24.5t20.5 63.5t-20.5 63.5t-52.5 24.5
q-33 0 -53.5 -24.5t-20.5 -63.5z" />
    <glyph glyph-name="gjGH_MA" horiz-adv-x="1033" 
d="M828 671h142v-671h-142v256h-168v-106h-125q-113 -74 -251 -74q-97 0 -168 45t-71 125q0 60 39 95.5t107 47.5q-59 13 -96 48.5t-37 95.5q0 68 56 108.5t141 40.5q57 0 114 -12v-117q-44 11 -86 11q-32 0 -56.5 -14.5t-24.5 -47.5q0 -30 21.5 -45t52.5 -15h57v-119h-70
q-31 0 -52 -16.5t-21 -42.5q0 -33 27.5 -51.5t73.5 -18.5q115 0 197 69q-12 31 -12 48q0 43 45 55v150q0 38 -40 38q-16 0 -37 -7v117q29 7 70 7q61 0 103.5 -38t42.5 -104v-156h168v298z" />
    <glyph glyph-name="gjGH_YA" horiz-adv-x="1043" 
d="M838 671h142v-671h-142v181q-56 -75 -167 -75q-94 0 -163 63q-98 -93 -235 -93q-92 0 -160 46.5t-68 123.5q0 60 39 95.5t107 47.5q-59 13 -96 48.5t-37 95.5q0 68 56 108.5t141 40.5q57 0 114 -12v-117q-44 11 -86 11q-32 0 -56.5 -14.5t-24.5 -47.5q0 -30 21.5 -45
t52.5 -15h57v-119h-70q-31 0 -52 -16.5t-21 -42.5q0 -33 27.5 -51.5t73.5 -18.5q89 0 152 68q-22 55 -25 120q83 12 132.5 41t49.5 71q0 30 -20.5 46t-51.5 16q-37 0 -76 -22v124q41 19 92 19q79 0 137 -52.5t58 -132.5q0 -137 -164 -187q9 -38 41.5 -58t75.5 -20
q57 0 101.5 38.5t44.5 105.5v300z" />
    <glyph glyph-name="gjC_CA" horiz-adv-x="1163" 
d="M484 314v117h163q35 0 61 14.5t26 48.5q0 30 -25 47t-63 17q-55 0 -103 -13v120q63 13 117 13q92 0 155 -50t63 -139q0 -81 -54.5 -126t-141.5 -49q4 -51 39 -76.5t88 -25.5q66 0 107.5 38t41.5 97v324h142v-671h-142v164q-25 -33 -69.5 -52.5t-95.5 -19.5
q-60 0 -111.5 25.5t-83.5 73.5q-92 -100 -233 -100q-65 0 -122.5 23t-101 74.5t-52.5 123.5h-66v119h163q35 0 61 14.5t26 48.5q0 30 -25 47t-63 17q-55 0 -103 -13v120q63 13 117 13q92 0 155 -50t63 -139q0 -81 -55 -127t-141 -50q9 -50 49 -75t98 -25q118 0 185 102h-69z
" />
    <glyph glyph-name="gjC_CHA" horiz-adv-x="1260" 
d="M23 312v119h163q35 0 61 14.5t26 48.5q0 30 -25 47t-63 17q-55 0 -103 -13v120q63 13 117 13q92 0 155 -50t63 -139q0 -81 -55 -127t-141 -50q7 -47 41.5 -73.5t84.5 -26.5q44 0 82.5 17.5t64 39t64 44.5t79.5 32q-64 14 -105.5 56t-41.5 104q0 82 65.5 127.5t156.5 45.5
q47 0 95 -11v-120q-42 10 -76 10q-43 0 -69.5 -19t-26.5 -56q0 -39 27.5 -57.5t64.5 -18.5h61v-119h-47q-40 0 -68.5 -20t-28.5 -60q0 -47 45 -69t102 -22q129 0 214 84.5t85 201.5q0 115 -50 115q-51 0 -51 -100q0 -68 34 -128h-137q-38 68 -38 146q0 88 48 146t136 58
q82 0 140 -65.5t58 -185.5q0 -112 -61 -204t-157 -141.5t-202 -49.5q-112 0 -191 37t-105 104q-70 -43 -151 -43q-105 0 -183 57t-91 164h-66z" />
    <glyph glyph-name="gjC_CH_VA" horiz-adv-x="1260" 
d="M823 -180q53 0 94 36.5t41 93.5v71q-49 -19 -107 -25q-123 -12 -123 -92q0 -35 25 -59.5t70 -24.5zM23 312v119h163q35 0 61 14.5t26 48.5q0 30 -25 47t-63 17q-55 0 -103 -13v120q63 13 117 13q92 0 155 -50t63 -139q0 -81 -55 -127t-141 -50q7 -47 41.5 -73.5
t84.5 -26.5q44 0 82.5 17.5t64 39t64 44.5t79.5 32q-64 14 -105.5 56t-41.5 104q0 82 65.5 127.5t156.5 45.5q47 0 95 -11v-120q-42 10 -76 10q-43 0 -69.5 -19t-26.5 -56q0 -39 27.5 -57.5t64.5 -18.5h61v-119h-47q-40 0 -68.5 -20t-28.5 -60q0 -47 45 -69t102 -22
q129 0 214 84.5t85 201.5q0 115 -50 115q-51 0 -51 -100q0 -68 34 -128h-137q-38 68 -38 146q0 88 48 146t136 58q82 0 140 -65.5t58 -185.5q0 -89 -39 -166t-107 -131v-424h-126v106q-52 -72 -154 -72q-93 0 -155 56t-62 141q0 75 56 125q-99 32 -129 111q-70 -43 -151 -43
q-105 0 -183 57t-91 164h-66z" />
    <glyph glyph-name="gjC_NA" horiz-adv-x="1185" 
d="M23 312v119h163q35 0 61 14.5t26 48.5q0 30 -25 47t-63 17q-55 0 -103 -13v120q63 13 117 13q92 0 155 -50t63 -139q0 -81 -55 -127t-141 -50q6 -50 41 -75t87 -25q74 0 127 49q-3 19 -3 39q0 94 61 150t164 56h282v165h142v-671h-142v391h-130q49 -49 49 -118
q0 -78 -58 -128.5t-152 -50.5q-95 0 -155 58q-82 -61 -182 -61q-101 0 -176 57t-87 164h-66zM615 300q0 -39 20.5 -63.5t52.5 -24.5q33 0 53.5 24.5t20.5 63.5t-20.5 63.5t-52.5 24.5q-33 0 -53.5 -24.5t-20.5 -63.5z" />
    <glyph glyph-name="gjC_MA" horiz-adv-x="1074" 
d="M23 312v119h163q35 0 61 14.5t26 48.5q0 30 -25 47t-63 17q-55 0 -103 -13v120q63 13 117 13q92 0 155 -50t63 -139q0 -81 -55 -127t-141 -50q9 -46 50.5 -73t100.5 -27q99 0 155 58q-10 26 -10 41q0 43 45 55v150q0 38 -40 38q-16 0 -37 -7v117q29 7 70 7
q61 0 103.5 -38t42.5 -104v-156h168v298h142v-671h-142v256h-168v-96h-119q-84 -69 -207 -69q-107 0 -189.5 58.5t-96.5 162.5h-66z" />
    <glyph glyph-name="gjC_YA" horiz-adv-x="1096" 
d="M23 312v119h163q35 0 61 14.5t26 48.5q0 30 -25 47t-63 17q-55 0 -103 -13v120q63 13 117 13q92 0 155 -50t63 -139q0 -81 -55 -127t-141 -50q6 -50 41 -75t87 -25q85 0 142 63q-17 50 -20 107q83 12 132.5 41t49.5 71q0 30 -20.5 46t-51.5 16q-37 0 -76 -22v124
q41 19 92 19q79 0 137 -52.5t58 -132.5q0 -137 -164 -187q9 -38 41.5 -58t75.5 -20q57 0 101.5 38.5t44.5 105.5v300h142v-671h-142v181q-56 -75 -167 -75q-97 0 -166 66q-89 -81 -206 -81q-101 0 -176 57t-87 164h-66z" />
    <glyph glyph-name="gjCH_YA" horiz-adv-x="1463" 
d="M1258 671h142v-671h-142v141q-56 -75 -167 -75q-99 0 -173 72.5t-80 203.5q83 11 132.5 38t49.5 65q0 54 -68 54q-80 0 -173 -86q1 -8 1 -25q0 -112 -61 -204t-157 -141.5t-202 -49.5q-139 0 -225 55t-86 151q0 62 39.5 98t99.5 48q-65 14 -106.5 56t-41.5 104
q0 82 65.5 127.5t156.5 45.5q47 0 95 -11v-120q-42 10 -76 10q-43 0 -69.5 -19t-26.5 -56q0 -39 27.5 -57.5t64.5 -18.5h61v-119h-47q-40 0 -68.5 -20t-28.5 -60q0 -47 45 -69t102 -22q129 0 214 84.5t85 201.5q0 115 -50 115q-51 0 -51 -100q0 -68 34 -128h-137
q-38 68 -38 146q0 88 48 146t136 58q49 0 92 -25t70 -73q93 75 206 75q82 0 145.5 -45.5t63.5 -131.5q0 -65 -46.5 -109t-117.5 -65q9 -38 41.5 -58t75.5 -20q57 0 101.5 38.5t44.5 105.5v340z" />
    <glyph glyph-name="gjCH_VA" horiz-adv-x="810" 
d="M780 388q0 -89 -39 -166t-107 -131v-424h-126v106q-52 -72 -154 -72q-93 0 -155 56t-62 141q0 77 56 125q-68 23 -106 68t-38 108q0 62 39.5 98t99.5 48q-65 14 -106.5 56t-41.5 104q0 82 65.5 127.5t156.5 45.5q47 0 95 -11v-120q-42 10 -76 10q-43 0 -69.5 -19
t-26.5 -56q0 -39 27.5 -57.5t64.5 -18.5h61v-119h-47q-40 0 -68.5 -20t-28.5 -60q0 -47 45 -69t102 -22q129 0 214 84.5t85 201.5q0 115 -50 115q-51 0 -51 -100q0 -68 34 -128h-137q-38 68 -38 146q0 88 48 146t136 58q82 0 140 -65.5t58 -185.5zM373 -180q53 0 94 36.5
t41 93.5v71q-49 -19 -107 -25q-123 -12 -123 -92q0 -35 25 -59.5t70 -24.5z" />
    <glyph glyph-name="gjJ_KA" horiz-adv-x="1306" 
d="M462 112q31 0 54.5 22t23.5 55q0 64 -62 146q-87 -77 -87 -153q0 -27 20 -48.5t51 -21.5zM1018 -7q-130 0 -228 46v130q108 -54 215 -54q42 0 77.5 17t35.5 56q0 40 -30 61.5t-85 38.5l-246 -62v122l100 23q-38 27 -54 67q-28 6 -62 6q-78 0 -155 -37q95 -131 95 -232
q0 -75 -58.5 -128.5t-158.5 -53.5q-84 0 -149 52.5t-65 144.5q0 62 38.5 126.5t103.5 118.5q-58 63 -97 92t-76 29q-26 0 -44 -15.5t-18 -42.5q0 -25 18.5 -42t46.5 -17q23 0 42 7v-116q-23 -10 -67 -10q-79 0 -130.5 52t-51.5 124q0 79 55 130.5t139 51.5q82 0 151 -44.5
t142 -125.5q113 59 225 59q37 0 75 -6q22 56 83 86.5t148 30.5q96 0 177 -24v-124q-88 26 -172 26q-48 0 -76.5 -18t-28.5 -53q0 -47 63 -74l275 69v-122l-108 -24q97 -50 97 -153q0 -83 -68 -135.5t-174 -52.5z" />
    <glyph glyph-name="gjJ_JA" horiz-adv-x="1428" 
d="M1454 671v-11l-209 -226q116 -147 116 -259q0 -75 -58.5 -128.5t-158.5 -53.5q-88 0 -154.5 50.5t-66.5 143.5q0 59 30 110.5t103 125.5l14 14q-55 61 -94.5 90t-76.5 29q-26 0 -44 -15.5t-18 -42.5q0 -25 18.5 -42t46.5 -17q23 0 42 7v-116q-22 -10 -67 -10
q-63 0 -109.5 34.5t-63.5 87.5q-57 -7 -118 -35q95 -131 95 -232q0 -75 -58.5 -128.5t-158.5 -53.5q-84 0 -149 52.5t-65 144.5q0 62 38.5 126.5t103.5 118.5q-58 63 -97 92t-76 29q-26 0 -44 -15.5t-18 -42.5q0 -25 18.5 -42t46.5 -17q23 0 42 7v-116q-23 -10 -67 -10
q-79 0 -130.5 52t-51.5 124q0 79 55 130.5t139 51.5q82 0 151 -44.5t142 -125.5q101 53 207 59q21 51 69.5 81t110.5 30q76 0 141 -38.5t132 -108.5l138 140h154zM1142 112q31 0 54.5 22t23.5 55q0 64 -64 148l-18 -19q-34 -37 -51.5 -64t-20 -39t-2.5 -30q0 -29 22 -51
t56 -22zM462 112q31 0 54.5 22t23.5 55q0 64 -62 146q-87 -77 -87 -153q0 -27 20 -48.5t51 -21.5z" />
    <glyph glyph-name="gjJ_J_YA" horiz-adv-x="2052" 
d="M462 112q31 0 54.5 22t23.5 55q0 64 -62 146q-87 -77 -87 -153q0 -27 20 -48.5t51 -21.5zM1847 671h142v-671h-142v181q-56 -75 -167 -75q-87 0 -156.5 57.5t-89.5 162.5q-61 36 -134 36h-4q65 -103 65 -187q0 -75 -58.5 -128.5t-158.5 -53.5q-87 0 -150 56.5t-63 144.5
q0 77 39.5 136.5t107.5 97.5q-60 66 -100.5 97t-78.5 31q-26 0 -44 -15.5t-18 -42.5q0 -25 18.5 -42t46.5 -17q18 0 36 5v-116q-21 -8 -61 -8q-63 0 -109.5 34.5t-63.5 87.5q-57 -7 -118 -35q95 -131 95 -232q0 -75 -58.5 -128.5t-158.5 -53.5q-84 0 -149 52.5t-65 144.5
q0 62 38.5 126.5t103.5 118.5q-58 63 -97 92t-76 29q-26 0 -44 -15.5t-18 -42.5q0 -25 18.5 -42t46.5 -17q23 0 42 7v-116q-23 -10 -67 -10q-79 0 -130.5 52t-51.5 124q0 79 55 130.5t139 51.5q82 0 151 -44.5t142 -125.5q101 53 207 59q21 51 69.5 81t110.5 30
q89 0 162.5 -51.5t155.5 -146.5q1 -1 2.5 -3t2.5 -3q36 7 79 7q141 0 237 -74q81 33 81 87q0 30 -20.5 46t-51.5 16q-37 0 -76 -22v124q41 19 92 19q79 0 137 -52.5t58 -132.5q0 -137 -164 -187q9 -38 41.5 -58t75.5 -20q57 0 101.5 38.5t44.5 105.5v300zM1142 112
q31 0 54.5 22t23.5 55q0 62 -58 140q-90 -49 -90 -142q0 -29 18 -52t52 -23z" />
    <glyph glyph-name="gjJ_J_VA" horiz-adv-x="2055" 
d="M462 112q31 0 54.5 22t23.5 55q0 64 -62 146q-87 -77 -87 -153q0 -27 20 -48.5t51 -21.5zM1142 112q31 0 54.5 22t23.5 55q0 64 -62 146q-87 -77 -87 -153q0 -27 20 -48.5t51 -21.5zM1850 671h142v-671h-142v208q-54 -72 -163 -72q-114 0 -189.5 74.5t-75.5 188.5
q0 25 4 45h-5q-78 0 -155 -37q95 -131 95 -232q0 -75 -58.5 -128.5t-158.5 -53.5q-84 0 -149 52.5t-65 144.5q0 62 38.5 126.5t103.5 118.5q-58 63 -97 92t-76 29q-26 0 -44 -15.5t-18 -42.5q0 -25 18.5 -42t46.5 -17q23 0 42 7v-116q-22 -10 -67 -10q-63 0 -109.5 34.5
t-63.5 87.5q-57 -7 -118 -35q95 -131 95 -232q0 -75 -58.5 -128.5t-158.5 -53.5q-84 0 -149 52.5t-65 144.5q0 62 38.5 126.5t103.5 118.5q-58 63 -97 92t-76 29q-26 0 -44 -15.5t-18 -42.5q0 -25 18.5 -42t46.5 -17q23 0 42 7v-116q-23 -10 -67 -10q-79 0 -130.5 52
t-51.5 124q0 79 55 130.5t139 51.5q82 0 151 -44.5t142 -125.5q101 53 207 59q21 51 69.5 81t110.5 30q82 0 151 -44.5t142 -125.5q113 59 225 59q38 0 69 -4q74 97 206 97q42 0 78 -8v-119q-27 5 -47 5q-70 0 -108 -41.5t-38 -101.5q0 -58 36.5 -99t102.5 -41q56 0 98 36
t46 94v286z" />
    <glyph glyph-name="gjJ_JHA" horiz-adv-x="1496" 
d="M1062 19v123q47 -19 102 -19q60 0 102 32.5t42 92.5q0 63 -38.5 94.5t-95.5 31.5q-37 0 -76 -15q-17 -85 -86.5 -135t-159.5 -50q-48 0 -102 16v123q43 -16 82 -16q52 0 89 30.5t37 80.5q0 52 -40 84.5t-100 32.5q-129 0 -256 -88q119 -148 119 -262q0 -75 -58.5 -128.5
t-158.5 -53.5q-84 0 -149 52.5t-65 144.5q0 131 127 261q-51 54 -87 79.5t-71 25.5q-26 0 -44 -15.5t-18 -42.5q0 -25 18.5 -42t46.5 -17q17 0 28 3v-116q-21 -6 -53 -6q-79 0 -130.5 52t-51.5 124q0 79 55 130.5t139 51.5q75 0 139 -37.5t130 -105.5q166 113 340 113
q94 0 170 -43.5t103 -120.5q49 12 97 12q9 0 31 -2l81 177h156l-103 -225q100 -71 100 -200q0 -108 -73 -177t-188 -69q-73 0 -130 19zM462 112q31 0 54.5 22t23.5 55q0 68 -74 161q-75 -88 -75 -168q0 -27 20 -48.5t51 -21.5z" />
    <glyph glyph-name="gjJ_NY_YA" horiz-adv-x="1133" 
d="M928 671h142v-671h-142v181q-56 -75 -167 -75q-88 0 -157 57t-89 162q-44 77 -107 116t-162 39q-46 0 -46 -31t46 -31q81 0 133.5 -37t52.5 -114q0 -75 -52.5 -109.5t-133.5 -34.5h-15q-1 -3 -1 -11q0 -29 25 -44.5t67 -15.5q46 0 96 13v-117q-37 -12 -107 -12
q-93 0 -154.5 48.5t-61.5 136.5v2h-67v113h201q64 0 64 34q0 19 -15.5 24.5t-48.5 5.5q-73 0 -118 39.5t-45 106.5q0 69 52 109.5t139 40.5q221 0 353 -188q80 32 80 86q0 30 -20.5 46t-51.5 16q-30 0 -63 -10v122q41 9 79 9q79 0 137 -52.5t58 -132.5q0 -137 -164 -187
q9 -38 41.5 -58t75.5 -20q57 0 101.5 38.5t44.5 105.5v300z" />
    <glyph glyph-name="gjJ_TTA" horiz-adv-x="1288" 
d="M462 112q31 0 54.5 22t23.5 55q0 59 -54 135q-95 -47 -95 -142q0 -27 20 -48.5t51 -21.5zM830 512v134q73 32 174 32t171 -55.5t70 -145.5q0 -132 -159 -183q-11 -4 -41 -12t-46.5 -14t-37 -16.5t-30.5 -27t-10 -37.5q0 -28 20 -45.5t42 -22.5t47 -5q110 0 209 54v-134
q-81 -42 -205 -42q-111 0 -185 55.5t-74 155.5q0 72 47 119q-81 36 -178 36q-17 0 -25 -1q62 -99 62 -182q0 -75 -58.5 -128.5t-158.5 -53.5q-84 0 -149 52.5t-65 144.5q0 75 41.5 134t114.5 96q-65 71 -106.5 103.5t-80.5 32.5q-26 0 -44 -15.5t-18 -42.5q0 -25 18.5 -42
t46.5 -17q23 0 42 7v-116q-23 -10 -67 -10q-79 0 -130.5 52t-51.5 124q0 79 55 130.5t139 51.5q89 0 162.5 -51.5t155.5 -146.5q3 -2 7.5 -7.5t6.5 -8.5q49 9 102 9q170 0 301 -85q10 3 32.5 10.5l33 11t28 10t26 12.5t18 14t13.5 18t4 21q0 38 -32.5 54t-74.5 16
q-85 0 -162 -43z" />
    <glyph glyph-name="gjJ_DDA" horiz-adv-x="1277" 
d="M462 112q31 0 54.5 22t23.5 55q0 64 -62 146q-87 -77 -87 -153q0 -27 20 -48.5t51 -21.5zM1194 653v-128q-76 30 -164 30q-114 0 -114 -70q0 -15 8 -27.5t17.5 -20.5t31 -16.5t33.5 -12t41 -11.5q200 -53 200 -201q0 -98 -71 -151t-188 -53q-130 0 -215 45v134
q103 -57 219 -57q44 0 76.5 18.5t32.5 56.5q0 21 -10.5 36.5t-32 26.5t-39 17t-48 13.5t-42.5 11.5q-135 43 -155 149q-11 1 -33 1q-78 0 -155 -37q95 -131 95 -232q0 -75 -58.5 -128.5t-158.5 -53.5q-84 0 -149 52.5t-65 144.5q0 62 38.5 126.5t103.5 118.5q-58 63 -97 92
t-76 29q-26 0 -44 -15.5t-18 -42.5q0 -25 18.5 -42t46.5 -17q23 0 42 7v-116q-23 -10 -67 -10q-79 0 -130.5 52t-51.5 124q0 79 55 130.5t139 51.5q82 0 151 -44.5t142 -125.5q113 59 225 59q33 0 60 -4q26 55 84.5 85t143.5 30q108 0 179 -25z" />
    <glyph glyph-name="gjJ_TA" horiz-adv-x="1353" 
d="M1148 671h142v-671h-142v388h-109q-61 0 -95.5 -36.5t-34.5 -102.5q0 -61 27 -95.5t79 -34.5q17 0 36 3v-117q-25 -5 -50 -5q-103 0 -168.5 70t-65.5 182q0 78 43 132h-79q-65 0 -121 -13q71 -108 71 -196q0 -75 -58.5 -128.5t-158.5 -53.5q-84 0 -149 52.5t-65 144.5
q0 140 152 234q-62 68 -103.5 100t-79.5 32q-26 0 -44 -15.5t-18 -42.5q0 -25 18.5 -42t46.5 -17q23 0 42 7v-116q-23 -10 -67 -10q-79 0 -130.5 52t-51.5 124q0 79 55 130.5t139 51.5q89 0 162.5 -51.5t155.5 -146.5l1 -1q95 27 189 27h431v165zM462 112q31 0 54.5 22
t23.5 55q0 59 -54 135q-95 -56 -95 -142q0 -27 20 -48.5t51 -21.5z" />
    <glyph glyph-name="gjJ_DA" horiz-adv-x="1227" 
d="M462 112q31 0 54.5 22t23.5 55q0 64 -62 146q-87 -77 -87 -153q0 -27 20 -48.5t51 -21.5zM1040 -7q-102 0 -182 54t-80 149q0 62 40.5 101.5t102.5 51.5q-85 22 -118 89q-28 6 -62 6q-78 0 -155 -37q95 -131 95 -232q0 -75 -58.5 -128.5t-158.5 -53.5q-84 0 -149 52.5
t-65 144.5q0 62 38.5 126.5t103.5 118.5q-58 63 -97 92t-76 29q-26 0 -44 -15.5t-18 -42.5q0 -25 18.5 -42t46.5 -17q23 0 42 7v-116q-23 -10 -67 -10q-79 0 -130.5 52t-51.5 124q0 79 55 130.5t139 51.5q82 0 151 -44.5t142 -125.5q113 59 225 59q42 0 71 -6q21 57 80.5 87
t137.5 30q88 0 165 -23v-123q-77 24 -146 24q-46 0 -74 -19.5t-28 -57.5q0 -37 26 -55.5t62 -18.5h99v-119h-100q-40 0 -68.5 -20.5t-28.5 -62.5q0 -44 34.5 -66t87.5 -22q79 0 172 35v-125q-86 -32 -177 -32z" />
    <glyph glyph-name="gjJ_NA" horiz-adv-x="1467" 
d="M462 112q31 0 54.5 22t23.5 55q0 62 -57 139q-92 -52 -92 -146q0 -27 20 -48.5t51 -21.5zM1262 671h142v-671h-142v391h-130q49 -49 49 -118q0 -78 -58 -128.5t-152 -50.5q-96 0 -154.5 55.5t-58.5 136.5q0 59 31 102q-105 -2 -179 -16q71 -109 71 -197
q0 -75 -58.5 -128.5t-158.5 -53.5q-84 0 -149 52.5t-65 144.5q0 147 151 235q-62 68 -102.5 99.5t-79.5 31.5q-26 0 -44 -15.5t-18 -42.5q0 -25 18.5 -42t46.5 -17q23 0 42 7v-116q-23 -10 -67 -10q-79 0 -130.5 52t-51.5 124q0 79 55 130.5t139 51.5q89 0 162.5 -51.5
t155.5 -146.5l3 -4q112 30 252 30h480v165zM897 300q0 -39 20.5 -63.5t52.5 -24.5q33 0 53.5 24.5t20.5 63.5t-20.5 63.5t-52.5 24.5q-33 0 -53.5 -24.5t-20.5 -63.5z" />
    <glyph glyph-name="gjJ_MA" horiz-adv-x="1327" 
d="M465 112q30 0 52.5 22t22.5 55q0 64 -59 141q-90 -50 -90 -147q0 -27 20.5 -49t53.5 -22zM1122 671h142v-671h-142v241h-168v-105h-116l-39 78q-24 47 -24 80q0 44 48 57v4q-66 18 -148 18q-36 0 -63 -4q69 -106 69 -194q0 -75 -57.5 -128.5t-156.5 -53.5
q-85 0 -151 52.5t-66 145.5q0 72 39.5 133.5t109.5 103.5q-61 66 -101.5 97t-78.5 31q-26 0 -44 -15.5t-18 -42.5q0 -25 18.5 -42t46.5 -17q23 0 42 7v-116q-23 -10 -67 -10q-79 0 -130.5 52t-51.5 124q0 79 55 130.5t139 51.5q89 0 162.5 -51.5t155.5 -146.5l1 -1
q61 14 124 14q98 0 171 -21v44q0 38 -45 38q-16 0 -37 -7v117q29 7 70 7q60 0 101.5 -38t41.5 -104v-171h168v313z" />
    <glyph glyph-name="gjJ_YA" horiz-adv-x="1372" 
d="M1167 671h142v-671h-142v181q-56 -75 -167 -75q-87 0 -156.5 57.5t-89.5 162.5q-61 36 -134 36h-4q65 -103 65 -187q0 -75 -58.5 -128.5t-158.5 -53.5q-87 0 -150 56.5t-63 144.5q0 77 39.5 136.5t107.5 97.5q-60 66 -100.5 97t-78.5 31q-26 0 -44 -15.5t-18 -42.5
q0 -25 18.5 -42t46.5 -17q18 0 36 5v-116q-21 -8 -61 -8q-79 0 -130.5 52t-51.5 124q0 79 55 130.5t139 51.5q89 0 162.5 -51.5t155.5 -146.5q1 -1 2.5 -3t2.5 -3q36 7 79 7q141 0 237 -74q81 33 81 87q0 30 -20.5 46t-51.5 16q-37 0 -76 -22v124q41 19 92 19
q79 0 137 -52.5t58 -132.5q0 -137 -164 -187q9 -38 41.5 -58t75.5 -20q57 0 101.5 38.5t44.5 105.5v300zM462 112q31 0 54.5 22t23.5 55q0 62 -58 140q-90 -49 -90 -142q0 -29 18 -52t52 -23z" />
    <glyph glyph-name="gjNY_JA" horiz-adv-x="1208" 
d="M922 112q31 0 54.5 22t23.5 55q0 64 -64 148l-18 -19q-34 -37 -51.5 -64t-20 -39t-2.5 -30q0 -29 22 -51t56 -22zM143 638q95 0 167.5 -55.5t87.5 -148.5h104q-21 34 -21 77q0 72 53.5 119.5t134.5 47.5q76 0 141 -38.5t132 -108.5l138 140h154v-11l-209 -226
q116 -147 116 -259q0 -75 -58.5 -128.5t-158.5 -53.5q-88 0 -154.5 50.5t-66.5 143.5q0 59 30 110.5t103 125.5l14 14q-55 61 -94.5 90t-76.5 29q-26 0 -44 -15.5t-18 -42.5q0 -25 18.5 -42t46.5 -17q23 0 42 7v-116q-22 -10 -67 -10h-266q-23 -81 -92 -128.5t-156 -47.5
q-59 0 -117 24v123q45 -24 103 -24q57 0 92 34.5t35 89.5t-35 90t-92 35q-37 0 -70 -13v123q42 12 84 12z" />
    <glyph glyph-name="gjTT_TTA" horiz-adv-x="556" 
d="M95 516v130q77 32 174 32q101 0 171 -48.5t70 -127.5q0 -67 -42 -104t-117 -57q-19 -5 -50 -11.5t-47.5 -11t-35 -12t-26.5 -18.5t-8 -26q0 -21 20.5 -34.5t43.5 -17.5t47 -4q108 0 209 52v-130q-41 -22 -97 -33q12 -24 12 -54q0 -79 -106 -120q-14 -6 -36.5 -13.5
t-36 -12.5t-28 -13t-21.5 -18.5t-7 -23.5q0 -23 20.5 -37t43 -18t47.5 -4q110 0 209 54v-132q-81 -42 -205 -42q-111 0 -185 50t-74 141q0 35 13 62t37 45t45 28t49 20q8 3 21.5 7.5l21 7t18 6.5t17 7.5t12.5 8t8.5 10t2.5 11.5q0 14 -12 22q-102 6 -167.5 54.5t-65.5 132.5
q0 38 16.5 67t46.5 48t60 30.5t70 20.5q8 2 22.5 5.5t22.5 5.5l20 5t19 5.5t16 6.5t14 8t10 9t7 11.5t2 13.5q0 47 -102 47q-79 0 -169 -41z" />
    <glyph glyph-name="gjTT_TTHA" horiz-adv-x="545" 
d="M95 516v130q77 32 174 32q101 0 171 -48.5t70 -127.5q0 -67 -42 -104t-117 -57q-19 -5 -50 -11.5t-47.5 -11t-35 -12t-26.5 -18.5t-8 -26q0 -21 20.5 -34.5t43.5 -17.5t47 -4q108 0 209 52v-130q-72 -37 -173 -41q-5 -12 -5 -23q0 -39 55 -57q80 -27 128 -66.5t48 -105.5
q0 -79 -73.5 -127t-195.5 -48q-120 0 -193.5 50.5t-73.5 132.5q0 63 47 103t133 55q-16 21 -16 53q0 23 11 45q-71 19 -113.5 63.5t-42.5 111.5q0 38 16.5 67t46.5 48t60 30.5t70 20.5q8 2 22.5 5.5t22.5 5.5l20 5t19 5.5t16 6.5t14 8t10 9t7 11.5t2 13.5q0 47 -102 47
q-79 0 -169 -41zM162 -157q0 -65 128 -65t128 65q0 66 -128 66t-128 -66z" />
    <glyph glyph-name="gjTT_YA" horiz-adv-x="1186" 
d="M981 671h142v-671h-142v120q-56 -75 -167 -75q-99 0 -173 69.5t-80 196.5q83 12 132.5 41t49.5 71q0 30 -20.5 46t-51.5 16q-40 0 -79 -23t-67.5 -53t-76.5 -64t-100 -51q-11 -4 -41 -12t-46.5 -14t-37 -16.5t-30.5 -27t-10 -37.5q0 -28 20 -45.5t42 -22.5t47 -5
q110 0 209 54v-134q-81 -42 -205 -42q-111 0 -185 55.5t-74 155.5q0 62 33.5 103.5t81 60.5t95 33t81 34t33.5 51q0 38 -32.5 54t-74.5 16q-85 0 -162 -43v134q73 32 174 32q79 0 140.5 -38.5t80.5 -103.5q86 71 183 71q88 0 150 -51t62 -135q0 -137 -164 -187
q9 -33 41.5 -50.5t75.5 -17.5q57 0 101.5 38.5t44.5 105.5v361z" />
    <glyph glyph-name="gjTT_VA" horiz-adv-x="560" 
d="M102 516v130q77 32 174 32q101 0 171 -48.5t70 -127.5q0 -67 -42 -104t-117 -57q-19 -5 -50 -11.5t-47.5 -11t-35 -12t-26.5 -18.5t-8 -26q0 -21 20.5 -34.5t43.5 -17.5t47 -4q108 0 209 52v-130q-13 -7 -41 -17v-353h-126v119q-50 -47 -124 -47q-75 0 -126 51.5
t-51 125.5q0 87 74 134q-70 49 -70 133q0 38 16.5 67t46.5 48t60 30.5t70 20.5q8 2 22.5 5.5t22.5 5.5l20 5t19 5.5t16 6.5t14 8t10 9t7 11.5t2 13.5q0 47 -102 47q-79 0 -169 -41zM252 -62q44 0 68 32.5t24 82.5v35q-38 -2 -59 -2q-109 0 -109 -79q0 -28 21 -48.5t55 -20.5
z" />
    <glyph glyph-name="gjTTH_TTHA" horiz-adv-x="622" 
d="M313 199q63 0 96.5 17.5t33.5 48.5q0 29 -34 47t-96 18q-64 0 -98 -18t-34 -47q0 -30 34 -48t98 -18zM587 -165q0 -80 -72.5 -127.5t-199.5 -47.5q-123 0 -196.5 48.5t-73.5 129.5q0 64 47.5 106t135.5 56q-15 20 -15 49q0 18 8 39q-84 17 -133.5 64.5t-49.5 112.5
q0 47 30.5 84.5t85.5 58.5q-68 45 -68 110q0 78 67 119t178 41q96 0 178 -24v-124q-76 26 -173 26q-105 0 -105 -49q0 -14 10.5 -24.5t31 -16.5t39.5 -10t47.5 -8.5t44.5 -8.5q78 -17 130 -60t52 -113q0 -74 -62.5 -124.5t-166.5 -60.5q-8 -11 -8 -25q0 -20 15.5 -31
t43.5 -20q179 -54 179 -170zM186 -157q0 -31 35.5 -48t95.5 -17t95.5 17t35.5 48q0 32 -35.5 49t-95.5 17t-95.5 -17t-35.5 -49z" />
    <glyph glyph-name="gjTTH_YA" horiz-adv-x="1279" 
d="M1074 671h142v-671h-142v120q-56 -75 -167 -75q-99 0 -173 69.5t-80 196.5q83 12 132.5 41t49.5 71q0 30 -20.5 46t-51.5 16q-101 0 -226 -161q45 -48 45 -121q0 -93 -76.5 -152t-198.5 -59q-121 0 -197 59t-76 151q0 58 33 101.5t92 67.5q-77 51 -77 131
q0 85 67.5 130.5t177.5 45.5q84 0 155 -18v-124q-75 20 -150 20q-105 0 -105 -65q0 -18 10.5 -31.5t31.5 -22.5t39 -14t48 -11.5t44 -10.5q9 -2 27 -8q83 110 167.5 162t179.5 52q81 0 140.5 -52.5t59.5 -133.5q0 -137 -164 -187q9 -33 41.5 -50.5t75.5 -17.5
q57 0 101.5 38.5t44.5 105.5v361zM310 112q60 0 95 25t35 66q0 40 -35 64.5t-95 24.5q-61 0 -96.5 -25t-35.5 -65t35.5 -65t96.5 -25z" />
    <glyph glyph-name="gjDD_DDA" horiz-adv-x="548" 
d="M468 653v-126q-80 29 -166 29q-113 0 -113 -50q0 -25 24.5 -36.5t86.5 -26.5q4 -1 6.5 -1.5t7 -1.5t7.5 -2q200 -49 200 -176q0 -88 -69.5 -135.5t-185.5 -47.5h-18q-7 -4 -7 -14q0 -16 16.5 -24.5t51.5 -18.5l12 -3q45 -14 77 -27.5t62 -34t45.5 -49t15.5 -65.5
q0 -88 -69.5 -135.5t-185.5 -47.5q-132 0 -219 45v133q105 -57 223 -57q106 0 106 55q0 15 -8.5 27t-25.5 20t-32 13t-39.5 12t-36.5 11q-131 43 -131 138q0 23 9 42q-41 13 -65 25v133q105 -57 223 -57q106 0 106 55q0 16 -10 28t-30.5 19.5t-39.5 12.5t-48 11t-45 11
q-159 45 -159 164q0 81 65 129t178 48q109 0 181 -25z" />
    <glyph glyph-name="gjDD_DDHA" horiz-adv-x="567" 
d="M305 -338q-121 0 -210.5 66.5t-89.5 177.5q0 122 151 189q-58 10 -98 29v133q105 -57 223 -57q106 0 106 55q0 16 -10 28t-30.5 19.5t-39.5 12.5t-48 11t-45 11q-159 45 -159 164q0 81 65 129t178 48q109 0 181 -25v-126q-80 29 -166 29q-113 0 -113 -50
q0 -25 24.5 -36.5t86.5 -26.5q4 -1 6.5 -1.5t7 -1.5t7.5 -2q200 -49 200 -176q0 -64 -40 -106.5t-96.5 -64.5t-113 -43t-96.5 -57.5t-40 -92.5q0 -58 44.5 -88.5t114.5 -30.5q48 0 88 17.5t40 57.5q0 20 -13 33t-33 13t-33 -13.5t-13 -32.5q0 -9 2 -19h-115q-9 16 -9 45
q0 62 48 97.5t117 35.5q83 0 133 -46.5t50 -117.5q0 -86 -75 -136.5t-187 -50.5z" />
    <glyph glyph-name="gjDD_YA" horiz-adv-x="1224" 
d="M1019 671h142v-671h-142v120q-56 -75 -167 -75q-99 0 -173 69.5t-80 196.5q83 12 132.5 41t49.5 71q0 30 -20.5 46t-51.5 16q-104 0 -229 -177q39 -49 39 -112q0 -98 -71 -151t-188 -53q-130 0 -215 45v134q104 -57 219 -57q44 0 76.5 18.5t32.5 56.5q0 21 -10.5 36.5
t-32 26.5t-39 17t-48 13.5t-42.5 11.5q-159 51 -159 186q0 91 65.5 144.5t179.5 53.5q92 0 155 -18v-127q-68 22 -140 22q-114 0 -114 -70q0 -15 8 -27.5t17.5 -20.5t31 -16.5t33.5 -12t41 -11.5q23 -6 53 -17q84 117 168.5 172t179.5 55q81 0 140.5 -52.5t59.5 -133.5
q0 -137 -164 -187q9 -33 41.5 -50.5t75.5 -17.5q57 0 101.5 38.5t44.5 105.5v361z" />
    <glyph glyph-name="gjDD_VA" horiz-adv-x="558" 
d="M482 -242h-122v111q-50 -47 -124 -47t-125.5 51t-51.5 124q0 63 40 106q-31 10 -52 21v133q105 -57 223 -57q106 0 106 55q0 16 -10 28t-30.5 19.5t-39.5 12.5t-48 11t-45 11q-159 45 -159 164q0 81 65 129t178 48q109 0 181 -25v-126q-80 29 -166 29q-113 0 -113 -50
q0 -25 24.5 -36.5t86.5 -26.5q4 -1 6.5 -1.5t7 -1.5t7.5 -2q200 -49 200 -176q0 -65 -39 -109v-395zM270 -72q41 0 65.5 32t24.5 85v43q-40 -8 -83 -8q-41 0 -64.5 -22.5t-23.5 -53.5t22 -53.5t59 -22.5z" />
    <glyph glyph-name="gjDDH_DDHA" horiz-adv-x="615" 
d="M176 -102q0 -58 44.5 -88.5t114.5 -30.5q48 0 88 17.5t40 57.5q0 20 -13 32.5t-33 12.5t-33 -13t-13 -32q0 -11 2 -19h-115q-9 16 -9 45q0 62 48 97.5t117 35.5q83 0 133 -46.5t50 -117.5q0 -86 -75 -136.5t-187 -50.5q-121 0 -210.5 66.5t-89.5 177.5q0 137 159 204
q-72 29 -115.5 84t-43.5 129q0 53 23 96t57 69t74 49t74 37.5t57 33t23 37.5q0 12 -12 26h141q11 -18 11 -47q0 -43 -31.5 -75t-77 -53.5t-90.5 -43t-76.5 -56.5t-31.5 -81q0 -58 44.5 -88.5t114.5 -30.5q48 0 88 17.5t40 57.5q0 20 -13 32.5t-33 12.5t-33 -13t-13 -32
q0 -9 2 -19h-115q-9 16 -9 45q0 62 48 97.5t117 35.5q83 0 133 -46.5t50 -117.5q0 -35 -13.5 -64t-31 -47.5t-51 -36.5t-57 -27.5t-65.5 -23.5q-41 -14 -62 -22t-53 -23.5t-47.5 -31t-28 -39.5t-12.5 -53z" />
    <glyph glyph-name="gjDDH_YA" horiz-adv-x="1274" 
d="M467 671q24 -31 24 -79q0 -54 -33 -93t-79.5 -63.5t-93 -48.5t-79.5 -61t-33 -87q0 -61 43.5 -94t113.5 -33q47 0 84.5 18.5t37.5 62.5q0 22 -12 34.5t-28 12.5q-18 0 -29 -12.5t-11 -30.5q0 -17 5 -29h-123q-12 24 -12 57q0 62 49 97.5t118 35.5q14 0 20 -1
q156 250 341 250q81 0 140.5 -52.5t59.5 -133.5q0 -137 -164 -187q9 -33 41.5 -50.5t75.5 -17.5q57 0 101.5 38.5t44.5 105.5v361h142v-671h-142v120q-56 -75 -167 -75q-99 0 -173 69.5t-80 196.5q83 12 132.5 41t49.5 71q0 30 -20.5 46t-51.5 16q-51 0 -108.5 -51.5
t-102.5 -130.5q44 -47 44 -117q0 -89 -75.5 -141t-186.5 -52q-124 0 -211.5 72t-87.5 189q0 57 23.5 103.5t59 74.5t76.5 53t76.5 42t59 39t23.5 47q0 30 -23 58h141z" />
    <glyph glyph-name="gjT_KA" horiz-adv-x="945" 
d="M657 -7q-130 0 -228 46v130q108 -54 215 -54q42 0 77.5 17t35.5 56q0 40 -30 61.5t-85 38.5l-246 -62v122l100 23q-18 13 -29 27h-148q-69 0 -108 -38t-39 -106q0 -63 29.5 -99t86.5 -36q16 0 36 3v-117q-25 -5 -50 -5q-107 0 -175.5 71t-68.5 186q0 122 75 190.5
t210 68.5h116q7 77 72.5 119.5t168.5 42.5q96 0 177 -24v-124q-88 26 -172 26q-48 0 -76.5 -18t-28.5 -53q0 -47 63 -74l275 69v-122l-108 -24q97 -50 97 -153q0 -83 -68 -135.5t-174 -52.5z" />
    <glyph glyph-name="gjT_K_YA" horiz-adv-x="1579" 
d="M1374 671h142v-671h-142v181q-56 -75 -167 -75q-83 0 -150.5 52.5t-91.5 149.5q-45 29 -103 29q-28 0 -65 -5q102 -47 102 -151q0 -83 -68 -135.5t-174 -52.5q-130 0 -228 46v130q108 -54 215 -54q42 0 77.5 17t35.5 56q0 40 -30 61.5t-85 38.5l-246 -62v122l100 23
q-18 13 -29 27h-148q-69 0 -108 -38t-39 -106q0 -63 29.5 -99t86.5 -36q16 0 36 3v-117q-25 -5 -50 -5q-107 0 -175.5 71t-68.5 186q0 122 75 190.5t210 68.5h116q7 77 72.5 119.5t168.5 42.5q96 0 177 -24v-124q-88 26 -172 26q-48 0 -76.5 -18t-28.5 -53q0 -48 64 -74
l50 12q102 24 174 24q102 0 178 -46q98 34 98 93q0 30 -20.5 46t-51.5 16q-37 0 -76 -22v124q41 19 92 19q79 0 137 -52.5t58 -132.5q0 -137 -164 -187q9 -38 41.5 -58t75.5 -20q57 0 101.5 38.5t44.5 105.5v300z" />
    <glyph glyph-name="gjT_K_RA" horiz-adv-x="945" 
d="M757 188q0 49 -58 85l-43 -92h-155l104 131l-209 -60v122l91 16l-14 14h-154q-69 0 -108 -39t-39 -108q0 -65 29.5 -101.5t86.5 -36.5q16 0 36 3v-117q-25 -5 -50 -5q-107 0 -175.5 72t-68.5 188q0 124 75 193t210 69h117q6 74 72 115t168 41q96 0 177 -24v-124
q-88 26 -172 26q-48 0 -76.5 -18t-28.5 -53q0 -50 77 -72l261 58v-120l-119 -12q108 -52 108 -158q0 -91 -73.5 -139.5t-185.5 -48.5q-115 0 -211 33v130q106 -41 215 -41q42 0 77.5 17t35.5 56z" />
    <glyph glyph-name="gjT_K_VA" horiz-adv-x="1596" 
d="M1391 671h142v-671h-142v208q-54 -72 -163 -72q-97 0 -167.5 55t-90.5 144q-132 0 -172 -3q101 -47 101 -151q0 -83 -68 -135.5t-174 -52.5q-130 0 -228 46v130q108 -54 215 -54q42 0 77.5 17t35.5 56q0 40 -30 61.5t-85 38.5l-246 -62v122l100 23q-18 13 -29 27h-148
q-69 0 -108 -38t-39 -106q0 -63 29.5 -99t86.5 -36q16 0 36 3v-117q-25 -5 -50 -5q-107 0 -175.5 71t-68.5 186q0 122 75 190.5t210 68.5h116q7 77 72.5 119.5t168.5 42.5q96 0 177 -24v-124q-88 26 -172 26q-48 0 -76.5 -18t-28.5 -53q0 -48 64 -74l50 12q89 21 227 21h54
q15 94 83.5 155t172.5 61q42 0 78 -8v-119q-27 5 -47 5q-70 0 -108 -41.5t-38 -101.5q0 -58 36.5 -99t102.5 -41q56 0 98 36t46 94v286z" />
    <glyph glyph-name="gjT_K_SSA" horiz-adv-x="1154" 
d="M587 506q0 -52 54 -72q64 30 64 78q0 23 -15 38.5t-40 15.5q-28 0 -45.5 -17.5t-17.5 -42.5zM949 671h142v-671h-142v312h-214q-55 0 -110 15q-47 -25 -71.5 -49.5t-24.5 -59.5t24 -56t60 -21q45 0 75 30.5t30 77.5h138v-249h-140v88q-16 -23 -53 -40t-79 -17
q-87 0 -142.5 50t-55.5 130q0 67 34.5 106.5t94.5 65.5l-5 5h-208q-61 0 -95.5 -36.5t-34.5 -102.5q0 -61 27 -95.5t79 -34.5q16 0 36 3v-117q-25 -5 -50 -5q-103 0 -168.5 70t-65.5 182q0 120 70.5 187t197.5 67h157v8q0 74 52.5 120.5t137.5 46.5q86 0 137 -43t51 -115
q0 -61 -48 -104h164v252z" />
    <glyph glyph-name="gjT_KHA" horiz-adv-x="1137" 
d="M932 671h142v-671h-142v299h-129q-9 -83 -62 -127.5t-142 -44.5q-96 0 -150 53t-54 149v19h-93q-62 0 -96 -29.5t-34 -87.5q0 -53 27 -82.5t79 -29.5q16 0 36 3v-117q-25 -5 -50 -5q-103 0 -168.5 65t-65.5 169q0 112 70 172t198 60h97v50q0 38 -40 38q-16 0 -37 -7v117
q29 7 70 7q62 0 105.5 -38t43.5 -104v-217q0 -67 62 -67q63 0 63 67v205h142v-101h128v255z" />
    <glyph glyph-name="gjT_KH_NA" horiz-adv-x="1634" 
d="M662 517h142v-101h150q58 90 193 90h282v165h142v-671h-142v391h-130q49 -49 49 -118q0 -78 -58 -128.5t-152 -50.5q-97 0 -156.5 59t-59.5 146h-119q-9 -83 -62 -127.5t-142 -44.5q-96 0 -150 53t-54 149v19h-93q-62 0 -96 -29.5t-34 -87.5q0 -53 27 -82.5t79 -29.5
q16 0 36 3v-117q-25 -5 -50 -5q-103 0 -168.5 65t-65.5 169q0 112 70 172t198 60h97v50q0 38 -40 38q-16 0 -37 -7v117q29 7 70 7q62 0 105.5 -38t43.5 -104v-217q0 -67 62 -67q63 0 63 67v205zM1064 300q0 -39 20.5 -63.5t52.5 -24.5q33 0 53.5 24.5t20.5 63.5t-20.5 63.5
t-52.5 24.5q-33 0 -53.5 -24.5t-20.5 -63.5z" />
    <glyph glyph-name="gjT_KH_RA" horiz-adv-x="1137" 
d="M932 671h142v-671h-142v137l-193 -157h-194l387 312v11h-139q-19 -61 -68.5 -93.5t-125.5 -32.5q-88 0 -141 44.5t-61 126.5h-95q-62 0 -96 -29.5t-34 -87.5q0 -53 27 -82.5t79 -29.5q16 0 36 3v-117q-25 -5 -50 -5q-103 0 -168.5 65t-65.5 169q0 112 70 172t198 60h97
v50q0 38 -40 38q-16 0 -37 -7v117q29 7 70 7q62 0 105.5 -38t43.5 -104v-167q0 -67 62 -67q63 0 63 67v155h142v-97h128v251z" />
    <glyph glyph-name="gjT_TA" horiz-adv-x="668" 
d="M463 671h142v-671h-142v388h-109q-61 0 -95.5 -36.5t-34.5 -102.5q0 -61 27 -95.5t79 -34.5q16 0 36 3v-117q-25 -5 -50 -5q-103 0 -168.5 68t-65.5 178q0 92 61 147h-118v113h438v165z" />
    <glyph glyph-name="gjT_T" horiz-adv-x="418" 
d="M316 0q-103 0 -168.5 68t-65.5 178q0 92 61 147h-118v113h558v-118h-229q-61 0 -95.5 -36.5t-34.5 -102.5q0 -61 27 -95.5t79 -34.5q16 0 36 3v-117q-25 -5 -50 -5z" />
    <glyph glyph-name="gjT_T_YA" horiz-adv-x="1052" 
d="M25 481h287q120 0 193 -82q104 33 104 95q0 30 -20.5 46t-51.5 16q-37 0 -76 -22v124q41 19 92 19q79 0 137 -52.5t58 -132.5q0 -140 -174 -190q44 -75 127 -75q57 0 101.5 38.5t44.5 105.5v300h142v-671h-142v181q-27 -35 -71.5 -55t-95.5 -20q-44 0 -81 14t-62 37
t-46.5 50.5t-40 55t-36.5 50.5t-41.5 37t-51.5 14q-48 0 -73 -32t-25 -83q0 -61 27 -95.5t79 -34.5q17 0 36 3v-117q-25 -5 -50 -5q-97 0 -163.5 64t-66.5 156q0 93 56 148h-116v113z" />
    <glyph glyph-name="gjT_T_VA" horiz-adv-x="1033" 
d="M828 671h142v-671h-142v208q-54 -72 -163 -72q-111 0 -185.5 71t-79.5 181h-46q-61 0 -95.5 -36.5t-34.5 -102.5q0 -61 27 -95.5t79 -34.5q16 0 36 3v-117q-25 -5 -50 -5q-103 0 -168.5 68t-65.5 178q0 92 61 147h-118v113h396q29 69 91.5 111.5t147.5 42.5q42 0 78 -8
v-119q-27 5 -47 5q-70 0 -108 -41.5t-38 -101.5q0 -58 36.5 -99t102.5 -41q56 0 98 36t46 94v286z" />
    <glyph glyph-name="gjT_THA" horiz-adv-x="1059" 
d="M854 671h142v-671h-142v181q-58 -75 -171 -75q-59 0 -107 18.5t-76.5 46.5t-55.5 61t-47.5 61t-50 46.5t-63.5 18.5q-55 0 -83 -32t-28 -83q0 -58 27 -91t79 -33q16 0 36 3v-117q-25 -5 -50 -5q-103 0 -168.5 68t-65.5 178q0 112 63 174t178 62q113 0 205 -95
q92 24 131 53.5t39 72.5q0 25 -13 38t-30 13q-47 0 -47 -54q0 -14 5 -27h-132q-5 22 -5 41q0 69 47 113t127 44q81 0 129.5 -48t48.5 -126q0 -83 -64 -141t-156 -80q35 -62 128 -62q66 0 118 37.5t52 113.5v296z" />
    <glyph glyph-name="gjT_NA" horiz-adv-x="1085" 
d="M880 671h142v-671h-142v391h-130q49 -49 49 -118q0 -78 -58 -128.5t-152 -50.5q-96 0 -154.5 55.5t-58.5 136.5q0 59 31 102h-105q-61 0 -95.5 -36.5t-34.5 -102.5q0 -61 27 -95.5t79 -34.5q16 0 36 3v-117q-25 -5 -50 -5q-103 0 -168.5 70t-65.5 182q0 120 70.5 187
t197.5 67h582v165zM515 300q0 -39 20.5 -63.5t52.5 -24.5q33 0 53.5 24.5t20.5 63.5t-20.5 63.5t-52.5 24.5q-33 0 -53.5 -24.5t-20.5 -63.5z" />
    <glyph glyph-name="gjT_N_YA" horiz-adv-x="1498" 
d="M592 94q-98 0 -157 54.5t-59 137.5q0 59 31 102h-105q-61 0 -95.5 -36.5t-34.5 -102.5q0 -61 27 -95.5t79 -34.5q16 0 36 3v-117q-25 -5 -50 -5q-103 0 -168.5 70t-65.5 182q0 120 70.5 187t197.5 67h330q191 0 329 -105q98 34 98 93q0 30 -20.5 46t-51.5 16
q-37 0 -76 -22v124q41 19 92 19q79 0 137 -52.5t58 -132.5q0 -137 -164 -187q9 -38 41.5 -58t75.5 -20q57 0 101.5 38.5t44.5 105.5v300h142v-671h-142v181q-56 -75 -167 -75q-81 0 -147 49.5t-92 140.5q-48 45 -116 72q30 -40 30 -95q0 -78 -58 -128.5t-151 -50.5zM518 300
q0 -39 20.5 -63.5t52.5 -24.5q33 0 53.5 24.5t20.5 63.5t-20.5 63.5t-52.5 24.5q-33 0 -53.5 -24.5t-20.5 -63.5z" />
    <glyph glyph-name="gjT_PA" horiz-adv-x="905" 
d="M700 376v295h142v-671h-142v206q-47 -35 -117 -35q-175 0 -187 177h-94q-62 0 -96 -29.5t-34 -87.5q0 -53 27 -82.5t79 -29.5q16 0 36 3v-117q-25 -5 -50 -5q-103 0 -168.5 65t-65.5 169q0 112 70 172t198 60h97v50q0 38 -40 38q-16 0 -37 -7v117q29 7 70 7
q62 0 105.5 -38t43.5 -104v-159q0 -87 77 -87q86 0 86 93z" />
    <glyph glyph-name="gjT_P_RA" horiz-adv-x="940" 
d="M735 671h142v-671h-142v203l-182 -219h-176l168 197q-105 33 -114 167h-129q-62 0 -96 -29.5t-34 -87.5q0 -53 27 -82.5t79 -29.5q16 0 36 3v-117q-25 -5 -50 -5q-103 0 -168.5 65t-65.5 169q0 112 70 172t198 60h132v50q0 38 -40 38q-16 0 -37 -7v117q29 7 70 7
q62 0 105.5 -38t43.5 -104v-159q0 -87 77 -87q86 0 86 93v295z" />
    <glyph glyph-name="gjT_P_LA" horiz-adv-x="1384" 
d="M1179 671h142v-671h-142v274h-230v122h230v275zM1028 555q-87 0 -140 -62t-53 -158q0 -102 52.5 -160.5t140.5 -58.5q34 0 75 12v-121q-54 -14 -99 -14q-102 0 -178.5 53t-110.5 145q-54 -28 -111 -28q-89 0 -144.5 49.5t-63.5 135.5h-94q-62 0 -96 -29.5t-34 -87.5
q0 -53 27 -82.5t79 -29.5q16 0 36 3v-117q-25 -5 -50 -5q-103 0 -168.5 65t-65.5 169q0 112 70 172t198 60h97v50q0 38 -40 38q-16 0 -37 -7v117q29 7 70 7q62 0 105.5 -38t43.5 -104v-159q0 -87 77 -87q42 0 77 30q-1 7 -1 22q0 157 84.5 250t223.5 93q49 0 105 -14v-121
q-41 12 -75 12z" />
    <glyph glyph-name="gjT_PHA" horiz-adv-x="945" 
d="M693 -3q-67 0 -127 30v-126h-134v278h130q7 -31 36 -48t65 -17q40 0 68.5 19.5t28.5 54.5q0 28 -19 49t-40 30.5t-57 21.5l-248 -63v122l100 23q-18 13 -29 27h-148q-69 0 -108 -38t-39 -106q0 -63 29.5 -99t86.5 -36q16 0 36 3v-117q-25 -5 -50 -5q-107 0 -175.5 71
t-68.5 186q0 122 75 190.5t210 68.5h116q7 77 72.5 119.5t168.5 42.5q96 0 177 -24v-124q-88 26 -172 26q-48 0 -76.5 -18t-28.5 -53q0 -47 63 -74l275 69v-122l-106 -24q98 -49 98 -153q0 -87 -61 -135.5t-148 -48.5z" />
    <glyph glyph-name="gjT_MA" horiz-adv-x="933" 
d="M728 671h142v-671h-142v256h-168v-117h-119l-36 80q-29 67 -29 92q0 43 45 55v23h-102q-68 0 -107.5 -36.5t-39.5 -100.5q0 -60 30 -96.5t86 -36.5q16 0 36 3v-117q-25 -5 -50 -5q-107 0 -175.5 71.5t-68.5 183.5q0 118 75 184t210 66h106v11q0 38 -40 38q-16 0 -37 -7
v117q29 7 70 7q61 0 103.5 -38t42.5 -104v-156h168v298z" />
    </font>
</defs>
</svg>
